<?xml version="1.0" standalone="no"?>
<!DOCTYPE svg PUBLIC "-//W3C//DTD SVG 1.1//EN" "http://www.w3.org/Graphics/SVG/1.1/DTD/svg11.dtd" >
<svg>
<metadata>
Created by FontForge 20090914 at Mon Feb 29 03:12:34 2016
 By www-data
&#194;&#169; 2011 Sergiy S. Tkachenko / 4th february
&#194;&#169; 2011 DesignContest.com
http://creativecommons.org/licenses/by-nd/3.0
http://creativecommons.org/licenses/by-nd/3.0/deed.ru
</metadata>
<defs>
<font id="SansusWebissimo-Italic" horiz-adv-x="510" >
  <font-face 
    font-family="Sansus Webissimo"
    font-weight="400"
    font-style="italic"
    font-stretch="normal"
    units-per-em="1000"
    panose-1="0 0 0 0 0 0 0 0 0 0"
    ascent="750"
    descent="-250"
    x-height="514"
    cap-height="658"
    bbox="-54 -241 1285.64 967"
    underline-thickness="50"
    underline-position="-50"
    unicode-range="U+0020-U+2122"
  />
<missing-glyph horiz-adv-x="210" 
 />
    <glyph glyph-name=".notdef" horiz-adv-x="210" 
 />
    <glyph glyph-name="space" unicode=" " horiz-adv-x="210" 
 />
    <glyph glyph-name="exclam" unicode="!" horiz-adv-x="282" 
d="M237 265h-117l45 443h151zM226 74c-3.33301 -25.333 -13.333 -45.666 -30 -60.999s-35.667 -23 -57 -23s-38 7.66699 -50 23s-16.333 35.666 -13 60.999s13.333 45.666 30 60.999s35.667 23 57 23s38 -7.66699 50 -23s16.333 -35.666 13 -60.999z" />
    <glyph glyph-name="quotedbl" unicode="&#x22;" horiz-adv-x="366" 
d="M370 464h-84l21 242h111zM200 464h-83l20 242h111z" />
    <glyph glyph-name="numbersign" unicode="#" horiz-adv-x="494" 
d="M526 616l-21.498 -65.5l-21.5 -65.5h68c-4.66699 -16 -9 -31.833 -13 -47.5l-12 -46.5h-75l-36 -111h83l-25 -95h-88l-53 -159c-16 2 -32 3.83301 -48 5.5s-32 3.16699 -48 4.5l48 149h-81l-51 -153c-16.667 1.33301 -32.834 2.83301 -48.501 4.5
s-31.834 3.5 -48.501 5.5l48 143h-66l25 95h72l36 111h-81l26 94h87l47 146l98 -9l-45 -137h81l45 141zM269.002 391c-5.33301 -18.667 -11.168 -37.167 -17.501 -55.5s-12.166 -36.833 -17.499 -55.5h81l36 111h-82z" />
    <glyph glyph-name="dollar" unicode="$" horiz-adv-x="434" 
d="M73 166l24.002 -7.99805c10 -3.33301 20.833 -6.66602 32.5 -9.99902s23.667 -6.16602 36 -8.49902s24.5 -3.5 36.5 -3.5c22.667 0 40.334 5.16699 53.001 15.5s20 23.833 22 40.5c2 14 -1.5 26.667 -10.5 38s-20.5 22.666 -34.5 33.999s-29.333 22.833 -46 34.5
s-32 25 -46 40s-24.833 31.833 -32.5 50.5s-9.83398 40.667 -6.50098 66c6 41.333 22.5 75.5 49.5 102.5s61.833 45.167 104.5 54.5l12 102h102c-3.33301 -16 -6.16602 -32 -8.49902 -48s-4.83301 -32 -7.5 -48c26 -2 48.167 -5.16699 66.5 -9.5l43.5 -10.5l-26 -104
c-8.66699 3.33301 -23.334 7.5 -44.001 12.5s-42.667 7.5 -66 7.5c-21.333 0 -39.666 -4.5 -54.999 -13.5s-24 -21.5 -26 -37.5c-2 -14 1.66699 -26.667 11 -38s21.333 -22.5 36 -33.5s30.667 -22.333 48 -34s33.166 -24.834 47.499 -39.501s25.5 -31.334 33.5 -50.001
s10.333 -40.667 7 -66c-6 -42 -21.667 -77.5 -47 -106.5s-62 -48.167 -110 -57.5l-12 -98h-102l15 91c-18.667 1.33301 -35.334 3.66602 -50.001 6.99902s-27.834 7 -39.501 11s-21.5 7.66699 -29.5 11l-19 8z" />
    <glyph glyph-name="percent" unicode="%" horiz-adv-x="664" 
d="M657 151c-8.66699 -58.667 -25.667 -101.834 -51 -129.501s-60 -41.5 -104 -41.5c-44.667 0 -75.667 13.833 -93 41.5s-21.666 70.834 -12.999 129.501c16 112.667 67 169 153 169c43.333 0 74.166 -13.833 92.499 -41.5s23.5 -70.167 15.5 -127.5zM227 -5h-110l417 670
h109zM364 509c-8 -58.667 -24.667 -101.834 -50 -129.501s-60 -41.5 -104 -41.5c-44.667 0 -75.5 13.833 -92.5 41.5s-21.5 70.834 -13.5 129.501c16 112.667 67.333 169 154 169s122 -56.333 106 -169zM573 151c4.66699 32 4.5 56.5 -0.5 73.5s-15.833 25.5 -32.5 25.5
s-29.667 -8.5 -39 -25.5s-16.333 -41.5 -21 -73.5c-4.66699 -32.667 -4.66699 -57.5 0 -74.5s15.334 -25.5 32.001 -25.5c17.333 0 30.666 8.5 39.999 25.5s16.333 41.833 21 74.5zM281 509c4.66699 32 4.5 56.5 -0.5 73.5s-15.833 25.5 -32.5 25.5s-29.667 -8.5 -39 -25.5
s-16.333 -41.5 -21 -73.5c-4.66699 -32.667 -4.66699 -57.667 0 -75s15.334 -26 32.001 -26c17.333 0 30.666 8.66699 39.999 26s16.333 42.333 21 75z" />
    <glyph glyph-name="ampersand" unicode="&#x26;" horiz-adv-x="639" 
d="M454 0l-36 48.0029c-24.667 -18.667 -51.167 -33.167 -79.5 -43.5s-63.166 -15.5 -104.499 -15.5c-29.333 0 -56.333 4 -81 12s-45.5 20.167 -62.5 36.5s-29.333 37.333 -37 63s-9.16699 56.167 -4.5 91.5c6.66699 45.333 23.5 83.333 50.5 114s60.167 55 99.5 73
c-16.667 20 -29.834 41.5 -39.501 64.5s-12.5 50.167 -8.5 81.5c7.33301 50.667 29.166 89 65.499 115s82.833 39 139.5 39c54 0 95.833 -12 125.5 -36s41.167 -60 34.5 -108c-6.66699 -44 -23.5 -80.667 -50.5 -110s-60.5 -54.333 -100.5 -75l90 -121
c4.66699 6 9.5 13.167 14.5 21.5s9.66699 17.166 14 26.499s8 18.666 11 27.999s5.16699 17.666 6.5 24.999h132c-4 -19.333 -10 -38.5 -18 -57.5s-16.667 -37 -26 -54s-19.166 -32.5 -29.499 -46.5s-20.5 -26 -30.5 -36l104 -136h-179zM380 520.003
c1.33301 12.667 -0.499023 25.166 -5.49902 37.499s-16.5 18.5 -34.5 18.5c-10.667 0 -20.334 -3.66699 -29.001 -11s-14.667 -21.333 -18 -42c-2 -12.667 -3 -24.667 -3 -36s5 -23.666 15 -36.999l11 -16c13.333 8 26.5 19.5 39.5 34.5s21.167 32.167 24.5 51.5z
M265.001 295.002c-18.667 -8.66699 -33.332 -21.333 -43.999 -38s-17.667 -35 -21 -55c-4.66699 -30.667 -0.833984 -56 11.499 -76s31.166 -30 56.499 -30c14.667 0 29.334 3.16699 44.001 9.5s26.667 15.833 36 28.5z" />
    <glyph glyph-name="quotesingle" unicode="'" horiz-adv-x="197" 
d="M200 464h-83l20 242h111z" />
    <glyph glyph-name="parenleft" unicode="(" horiz-adv-x="326" 
d="M402 688c-13.333 -12.667 -28.5 -31.1631 -45.5 -55.4961s-33.833 -54 -50.5 -89s-32 -74.667 -46 -119s-24.667 -92.5 -32 -144.5s-10.166 -100 -8.49902 -144s6 -83.333 13 -118s15.5 -64.167 25.5 -88.5s20 -42.833 30 -55.5l-96 -62
c-18 19.333 -35.167 43.166 -51.5 71.499s-29.666 61.666 -39.999 99.999s-16.833 82.166 -19.5 131.499s0.333008 104.333 9 165s21.167 115.667 37.5 165s35.166 93.333 56.499 132s44.166 72.167 68.499 100.5s48.5 52.166 72.5 71.499z" />
    <glyph glyph-name="parenright" unicode=")" horiz-adv-x="326" 
d="M1 -126c13.333 12.667 28.502 31.167 45.502 55.5s34 54 51 89s32.5 74.667 46.5 119s24.667 92.5 32 144.5s10 100 8 144s-6.5 83.333 -13.5 118s-15.5 64.167 -25.5 88.5s-20 42.833 -30 55.5l96 61c18 -19.333 35.167 -43.166 51.5 -71.499
s29.666 -61.666 39.999 -99.999s17 -82 20 -131s0.166992 -103.833 -8.5 -164.5s-21.334 -115.667 -38.001 -165s-35.667 -93.333 -57 -132s-44 -72.334 -68 -101.001s-48 -52.334 -72 -71.001z" />
    <glyph glyph-name="asterisk" unicode="*" horiz-adv-x="409" 
d="M241 546l6 131h105l-34 -131l125 52l8 -48.5c2.66699 -16.333 5.66699 -32.5 9 -48.5l-127 -25l77 -98l-94 -61l-51 114l-84 -114l-37.5 30l-37.5 31l102 97l-59.5 12.5l-59.5 13.5l46 97z" />
    <glyph glyph-name="plus" unicode="+" horiz-adv-x="470" 
d="M341 357h140l-15 -106h-140l-22 -156h-112l22 156h-140l15 106h140l21 155h112z" />
    <glyph glyph-name="comma" unicode="," horiz-adv-x="233" 
d="M64 76c3.33301 22 12.167 39.8291 26.5 53.4961s28.833 20.5 43.5 20.5c46.667 0 66 -29.333 58 -88c-3.33301 -17.333 -9.5 -35.166 -18.5 -53.499s-19.5 -36.666 -31.5 -54.999s-25 -36.333 -39 -54l-40 -50.5l-56 31c6 8.66699 12 17.834 18 27.501
s11.667 19.334 17 29.001s9.83301 19.167 13.5 28.5s6.16699 18 7.5 26c2 12.667 2 25.167 0 37.5s-2 26.5 0 42.5z" />
    <glyph glyph-name="hyphen" unicode="-" horiz-adv-x="319" 
d="M314 226h-247l15 108h247z" />
    <glyph glyph-name="period" unicode="." horiz-adv-x="249" 
d="M209 74c-3.33301 -25.333 -13.333 -45.666 -30 -60.999s-35.667 -23 -57 -23s-38 7.66699 -50 23s-16.333 35.666 -13 60.999s13.333 45.666 30 60.999s35.667 23 57 23s38 -7.66699 50 -23s16.333 -35.666 13 -60.999z" />
    <glyph glyph-name="slash" unicode="/" horiz-adv-x="391" 
d="M495 718c-10 -19.333 -22.833 -45.499 -38.5 -78.499l-53.5 -114l-65.5 -141l-74.5 -161.5l-79.5 -176l-80.5 -182h-120l120.5 271l113 248.5l94 202c27.667 58.333 49.167 102.166 64.5 131.499h120z" />
    <glyph glyph-name="zero" unicode="0" horiz-adv-x="512" 
d="M526 328c-8.66699 -60.667 -21.001 -112.5 -37.001 -155.5s-35.5 -78.333 -58.5 -106s-49.333 -47.834 -79 -60.501s-62.5 -19 -98.5 -19s-67 6.33301 -93 19s-46.667 32.834 -62 60.501s-24.833 63 -28.5 106s-1.16699 94.833 7.5 155.5s20.834 112.667 36.501 156
s35 78.666 58 105.999s49.333 47.5 79 60.5s62.5 19.5 98.5 19.5s67 -6.5 93 -19.5s46.667 -33.167 62 -60.5s25 -62.666 29 -105.999s1.66699 -95.333 -7 -156zM388.999 328c10.667 76.667 12.5 135.666 5.5 176.999s-27.167 62 -60.5 62c-32.667 0 -58 -20.667 -76 -62
s-32.333 -100.333 -43 -177c-5.33301 -38 -8.83301 -71.833 -10.5 -101.5s-0.5 -54.667 3.5 -75s10.667 -35.666 20 -45.999s22.333 -15.5 39 -15.5c34 0 60 20.333 78 61s32.667 99.667 44 177z" />
    <glyph glyph-name="one" unicode="1" horiz-adv-x="360" 
d="M395 658l-92 -658h-138l72 519l-62.5 -45.5l-59.5 -41.5l-48 85l59.5 42.5l58 40l50.5 34l37 24.5h123z" />
    <glyph glyph-name="two" unicode="2" horiz-adv-x="429" 
d="M400 0l-384 0.000976562l13 97l39.5 36c17 15.333 35.5 33 55.5 53l62 64.5c21.333 23 41 46.5 59 70.5s33.333 48.167 46 72.5s20.667 47.5 24 69.5c8.66699 65.333 -16 98 -74 98c-12.667 0 -25.334 -1 -38.001 -3s-24.5 -4.5 -35.5 -7.5s-20.667 -6 -29 -9
s-14.5 -5.5 -18.5 -7.5c-2 15.333 -3.66699 31.166 -5 47.499l-4 47.5c6 2.66699 14.667 6.33398 26 11.001s24.833 9.16699 40.5 13.5s32.834 8.16602 51.501 11.499s38.334 5 59.001 5c65.333 0 112.5 -15.167 141.5 -45.5s39.5 -74.5 31.5 -132.5
c-5.33301 -38 -17.5 -74.833 -36.5 -110.5s-41.5 -69.667 -67.5 -102s-53.833 -62.833 -83.5 -91.5s-58.5 -55 -86.5 -79l108 4c37.333 1.33301 77.666 2 120.999 2z" />
    <glyph glyph-name="three" unicode="3" horiz-adv-x="466" 
d="M125 638c4.66699 2 12.168 4.66992 22.501 8.00293s23 6.83301 38 10.5s32.167 6.83398 51.5 9.50098s40 4 62 4c66 0 115.5 -14 148.5 -42s45.5 -69 37.5 -123c-5.33301 -39.333 -19.166 -71.666 -41.499 -96.999s-47.166 -45 -74.499 -59
c33.333 -9.33301 58.666 -26.5 75.999 -51.5s22.666 -60.167 15.999 -105.5c-5.33301 -36 -15.5 -67 -30.5 -93s-34 -47.333 -57 -64s-49.333 -28.834 -79 -36.501s-61.834 -11.5 -96.501 -11.5c-26.667 0 -50.5 2.5 -71.5 7.5s-39.167 10.5 -54.5 16.5s-28 11.833 -38 17.5
s-17 9.16699 -21 10.5l50 96c3.33301 -1.33301 9 -4 17 -8s17.667 -8 29 -12s24.166 -7.66699 38.499 -11s29.5 -5 45.5 -5c33.333 0 60.833 7.5 82.5 22.5s35.167 40.5 40.5 76.5c4.66699 30 -1.33301 51.667 -18 65s-42 20 -76 20c-15.333 0 -29.833 -0.166992 -43.5 -0.5
s-23.5 -0.5 -29.5 -0.5l14 101h34c15.333 0 29.833 0.666992 43.5 2s26.167 4.33301 37.5 9c3.33301 1.33301 8 4.16602 14 8.49902s12.167 10.333 18.5 18s12 16.667 17 27s8.5 22.166 10.5 35.499c4 26.667 -1.66699 46 -17 58s-38 18 -68 18
c-13.333 0 -26.666 -1 -39.999 -3s-25.5 -4.33301 -36.5 -7s-20.167 -5.33398 -27.5 -8.00098s-12 -4.33398 -14 -5.00098z" />
    <glyph glyph-name="four" unicode="4" horiz-adv-x="513" 
d="M437 658l-214 -375h111l16 115l141 20l-19 -135h52l-15 -112h-52l-24 -171h-138l24 171h-267l12 90l231 397h142z" />
    <glyph glyph-name="five" unicode="5" horiz-adv-x="457" 
d="M490 658l-15 -110.003h-204l-31 -144c8 3.33301 16.333 6 25 8s18.667 3 30 3c56 0 98.833 -17.333 128.5 -52s39.5 -87 29.5 -157c-5.33301 -39.333 -15.5 -72.666 -30.5 -99.999s-33.667 -49.833 -56 -67.5s-47.833 -30.5 -76.5 -38.5s-59.334 -12 -92.001 -12
c-26.667 0 -49.667 2.33301 -69 7s-35.833 10.167 -49.5 16.5s-24.667 12.5 -33 18.5s-15.166 10.333 -20.499 13l48 88c5.33301 -3.33301 13 -7.16602 23 -11.499s21 -8.33301 33 -12s24.667 -6.83398 38 -9.50098s26.333 -4 39 -4c30 0 54 9.83301 72 29.5
s29.667 47.834 35 84.501c4.66699 34.667 0.166992 61.167 -13.5 79.5s-36.167 27.5 -67.5 27.5c-19.333 0 -38 -2.66699 -56 -8s-30 -9.66602 -36 -12.999l-18 6c-6 2 -12 3.66699 -18 5l77 353h308z" />
    <glyph glyph-name="six" unicode="6" horiz-adv-x="480" 
d="M454 580c-39.333 -16 -76.835 -38.332 -112.502 -66.999s-65.5 -66 -89.5 -112c12 4.66699 26 9 42 13s32.667 6 50 6c26 0 48.667 -4.83301 68 -14.5s35 -23.167 47 -40.5s20.333 -38 25 -62s5 -50 1 -78c-5.33301 -39.333 -15.666 -73.833 -30.999 -103.5
s-34 -54.334 -56 -74.001s-46.5 -34.5 -73.5 -44.5s-55.5 -15 -85.5 -15c-29.333 0 -56.166 5 -80.499 15s-44.5 25.5 -60.5 46.5s-27.167 48 -33.5 81s-6.5 72.5 -0.5 118.5c8.66699 58.667 24.5 111 47.5 157s50.667 86.333 83 121s68.5 64.167 108.5 88.5
s81.333 44.5 124 60.5zM291.998 330.001c-14.667 0 -28.499 -2.83203 -41.499 -8.49902s-24.167 -13.167 -33.5 -22.5c-4.66699 -12.667 -8.5 -26.334 -11.5 -41.001s-5.83301 -30 -8.5 -46c-3.33301 -37.333 0 -67.333 10 -90s26.667 -34 50 -34s42.833 11.167 58.5 33.5
s26.5 54.5 32.5 96.5c5.33301 37.333 2.66602 65.333 -8.00098 84s-26.667 28 -48 28z" />
    <glyph glyph-name="seven" unicode="7" horiz-adv-x="418" 
d="M481 574l-61.001 -112.5l-72.5 -139l-79 -156.5l-80.5 -166h-146c12.667 26.667 28.167 57.667 46.5 93l57.5 109.5l61 112.5l57 104l45 83c12.667 23.333 21.334 40 26.001 50l-246 -8l16 114h388z" />
    <glyph glyph-name="eight" unicode="8" horiz-adv-x="486" 
d="M342 670c60 0 104.662 -14.002 133.995 -42.002s40 -69 32 -123c-5.33301 -39.333 -19.166 -71.666 -41.499 -96.999s-47.166 -45 -74.499 -59c33.333 -9.33301 58.666 -26.5 75.999 -51.5s22.666 -60.167 15.999 -105.5c-5.33301 -36 -15 -67 -29 -93
s-31.667 -47.333 -53 -64s-45.666 -28.834 -72.999 -36.501s-56.666 -11.5 -87.999 -11.5s-59.666 3.83301 -84.999 11.5s-46.333 19.834 -63 36.501s-28.667 38 -36 64s-8.33301 57 -3 93c6.66699 45.333 22.334 80.5 47.001 105.5s55 42.167 91 51.5
c-24.667 14 -44.5 33.5 -59.5 58.5s-19.833 57.5 -14.5 97.5c4 26.667 12.333 50.334 25 71.001s28.834 38 48.501 52s42.167 24.5 67.5 31.5s53 10.5 83 10.5zM199.995 187.998c-4.66699 -32.667 -2.00098 -57.167 7.99902 -73.5s25.667 -24.5 47 -24.5
s39.333 8.16699 54 24.5s24.334 40.833 29.001 73.5c4 30 -0.666992 53.167 -14 69.5s-34 24.5 -62 24.5c-16 0 -29.333 -8.16699 -40 -24.5s-18 -39.5 -22 -69.5zM260.994 492.998c-1.33301 -10 -2.66797 -21.168 -4.00098 -33.501s-0.5 -23.833 2.5 -34.5
s8.83301 -19.667 17.5 -27s22 -11 40 -11c8 0 14.5 3.33301 19.5 10s9.16699 15.334 12.5 26.001s6 22.167 8 34.5l6 35.5c3.33301 22.667 1.33301 40.667 -6 54s-19 20 -35 20c-16.667 0 -30.167 -6.66699 -40.5 -20s-17.166 -31.333 -20.499 -54z" />
    <glyph glyph-name="nine" unicode="9" horiz-adv-x="480" 
d="M116 77c40 15.333 77.6719 37.332 113.005 65.999s65 66.334 89 113.001c-11.333 -4.66699 -24.5 -9 -39.5 -13s-31.167 -6 -48.5 -6c-26 0 -48.833 4.66699 -68.5 14s-35.834 22.666 -48.501 39.999s-21.334 38 -26.001 62s-5 50.667 -1 80
c5.33301 38.667 15.666 72.834 30.999 102.501s34 54.5 56 74.5s46.5 35 73.5 45s55.5 15 85.5 15c29.333 0 56.166 -5 80.499 -15s44.5 -25.667 60.5 -47s27.167 -48.333 33.5 -81s6.16602 -72 -0.500977 -118c-8 -59.333 -23.5 -112 -46.5 -158s-50.667 -86.333 -83 -121
s-68.5 -64.167 -108.5 -88.5s-81.333 -44.5 -124 -60.5zM278.005 326.999c30 0 54.998 10.667 74.998 32c4 12 7.83301 25.5 11.5 40.5s6.5 31.167 8.5 48.5c4 38 0.833008 67.667 -9.5 89s-27.166 32 -50.499 32s-42.833 -11.167 -58.5 -33.5s-26.5 -54.5 -32.5 -96.5
c-5.33301 -38 -2.66602 -66.167 8.00098 -84.5s26.667 -27.5 48 -27.5z" />
    <glyph glyph-name="colon" unicode=":" horiz-adv-x="249" 
d="M254 401c-3.33301 -25.333 -13.1699 -45.5 -29.5029 -60.5s-35.166 -22.5 -56.499 -22.5c-20.667 0 -37 7.5 -49 22.5s-16.333 35.167 -13 60.5s13.333 45.666 30 60.999s35.334 23 56.001 23c21.333 0 37.833 -7.66699 49.5 -23s15.834 -35.666 12.501 -60.999z
M210.996 93c-3.33301 -25.333 -13.167 -45.5 -29.5 -60.5s-35.166 -22.5 -56.499 -22.5c-20.667 0 -37 7.5 -49 22.5s-16.333 35.167 -13 60.5c3.33301 24.667 13.166 44.834 29.499 60.501s34.833 23.5 55.5 23.5c21.333 0 38 -7.83301 50 -23.5s16.333 -35.834 13 -60.501
z" />
    <glyph glyph-name="semicolon" unicode=";" horiz-adv-x="249" 
d="M72 76c3.33301 21.333 12.168 38.9971 26.501 52.9971s28.833 21 43.5 21c47.333 0 66.666 -29.333 57.999 -88c-3.33301 -17.333 -9.5 -35.166 -18.5 -53.499s-19.5 -36.666 -31.5 -54.999s-25 -36.333 -39 -54l-40 -50.5c-19.333 11.333 -38 21.666 -56 30.999
c6 8.66699 12 17.834 18 27.501s11.667 19.334 17 29.001s9.83301 19.167 13.5 28.5s6.16699 18 7.5 26c2 12.667 2 25.167 0 37.5s-2 26.5 0 42.5zM254.002 400.997c-3.33301 -25.333 -13.1699 -45.5 -29.5029 -60.5s-35.166 -22.5 -56.499 -22.5
c-20.667 0 -37 7.5 -49 22.5s-16.333 35.167 -13 60.5s13.333 45.666 30 60.999s35.334 23 56.001 23c21.333 0 37.833 -7.66699 49.5 -23s15.834 -35.666 12.501 -60.999z" />
    <glyph glyph-name="less" unicode="&#x3c;" horiz-adv-x="441" 
d="M96 353l352 198l-15 -105l-196 -116l163 -118l-14 -103l-296 198z" />
    <glyph glyph-name="equal" unicode="=" horiz-adv-x="477" 
d="M483 351h-392l14 104h392zM455 152h-392l14 104h392z" />
    <glyph glyph-name="greater" unicode="&#x3e;" horiz-adv-x="441" 
d="M437 307l-352 -198l14 103l197 118l-164 116l15 105l296 -198z" />
    <glyph glyph-name="question" unicode="?" horiz-adv-x="376" 
d="M101 676l19.002 10.0039c8.66699 4.66699 19.667 9.16699 33 13.5s29 8.33301 47 12s38.667 5.5 62 5.5c26 0 50.167 -3.33301 72.5 -10s41.166 -16.834 56.499 -30.501s26.333 -31.167 33 -52.5s8 -47 4 -77c-4 -28.667 -11.167 -53 -21.5 -73s-22.333 -37.333 -36 -52
s-28 -27.834 -43 -39.501s-29.167 -23.834 -42.5 -36.501s-24.833 -26.834 -34.5 -42.501s-16.167 -34.834 -19.5 -57.501c-6 0 -14 -0.5 -24 -1.5l-30.5 -3c-10.333 -1 -20.333 -1.83301 -30 -2.5s-17.5 -1 -23.5 -1v12c0 4 0.333008 7.66699 1 11
c5.33301 36 16 65.333 32 88s32.833 42.834 50.5 60.501s34 35.5 49 53.5s24.5 40.667 28.5 68c3.33301 25.333 -0.666992 43.333 -12 54s-30.666 16 -57.999 16c-11.333 0 -22.5 -1 -33.5 -3s-21.333 -4.33301 -31 -7s-17.834 -5.5 -24.501 -8.5
s-11.334 -5.16699 -14.001 -6.5zM228.002 73.0039c-3.33301 -25.333 -13.1699 -45.333 -29.5029 -60s-35.166 -22 -56.499 -22c-20.667 0 -37 7.33301 -49 22s-16.333 34.667 -13 60s13.333 45.666 30 60.999s35.334 23 56.001 23c21.333 0 37.833 -7.66699 49.5 -23
s15.834 -35.666 12.501 -60.999z" />
    <glyph glyph-name="at" unicode="@" horiz-adv-x="797" 
d="M574 -17c-22 0 -42.1689 5.66504 -60.502 16.998s-29.5 29 -33.5 53c-5.33301 -6.66699 -11.833 -14.167 -19.5 -22.5s-16.5 -16 -26.5 -23s-21.167 -12.833 -33.5 -17.5s-25.5 -7 -39.5 -7c-17.333 0 -33.666 4 -48.999 12s-28.166 20.5 -38.499 37.5
s-17.666 39.167 -21.999 66.5s-3.83301 60.333 1.5 99s14 72.334 26 101.001s26 52.334 42 71.001s33 32.667 51 42s35.667 14 53 14c20.667 0 38.5 -3.83301 53.5 -11.5l41.5 -20.5c1.33301 4 2.83301 9.83301 4.5 17.5s3.16699 13.5 4.5 17.5l83 -12l-41 -291
c-2.66699 -17.333 -2.66699 -32.333 0 -45s10.667 -19 24 -19c20 0 38.167 15.667 54.5 47s28.166 75.333 35.499 132c14 100 5.33301 177 -26 231s-86.666 81 -165.999 81c-40 0 -77.5 -7.16699 -112.5 -21.5s-66.167 -36 -93.5 -65s-50.333 -65.167 -69 -108.5
s-32 -93.666 -40 -150.999c-15.333 -107.333 -4.66602 -190.166 32.001 -248.499s98.667 -87.5 186 -87.5c21.333 0 40.5 1.33301 57.5 4s30.833 4.66699 41.5 6l6 -86l-54.5 -9c-24.333 -4 -50.833 -6 -79.5 -6c-56 0 -104.5 10.167 -145.5 30.5s-73.833 49 -98.5 86
s-41.334 81.667 -50.001 134s-8.33398 110.166 0.999023 173.499c9.33301 67.333 26.5 128.166 51.5 182.499s56.167 100.5 93.5 138.5s80.333 67.333 129 88s101.667 31 159 31c52 0 97.5 -8.66699 136.5 -26s70.833 -42.5 95.5 -75.5s41.5 -73.333 50.5 -121
s9.16699 -102.167 0.5 -163.5c-8 -57.333 -20.833 -104 -38.5 -140s-37 -64 -58 -84s-42.167 -33.5 -63.5 -40.5s-40 -10.5 -56 -10.5zM400.998 68.998c15.333 0 28.998 5.83203 40.998 17.499s21.667 22.5 29 32.5l28 201c-5.33301 5.33301 -12.166 11.5 -20.499 18.5
s-18.833 10.5 -31.5 10.5c-23.333 0 -42.166 -13.167 -56.499 -39.5s-24.5 -61.166 -30.5 -104.499c-12 -90.667 1.66699 -136 41 -136z" />
    <glyph glyph-name="A" unicode="A" horiz-adv-x="553" 
d="M286 658h168l88 -658h-147l-14 114h-184l-46 -114h-140zM348 531l-22.5 -64.5l-29.5 -80l-32.5 -88l-32.5 -88.5h142c-2 28.667 -4.33301 58.167 -7 88.5l-7.5 88l-6.5 80c-2 25 -3.33301 46.5 -4 64.5z" />
    <glyph glyph-name="B" unicode="B" horiz-adv-x="512" 
d="M154 658c16.667 0 40.833 1.00098 72.5 3.00098s63.834 3 96.501 3c79.333 0 135.666 -12.5 168.999 -37.5s45.333 -68.833 36 -131.5c-2.66699 -18.667 -7.33398 -36 -14.001 -52s-14.5 -30.333 -23.5 -43s-18.833 -23.834 -29.5 -33.501s-21.334 -17.5 -32.001 -23.5
c13.333 -4.66699 25.5 -10.834 36.5 -18.501s20.167 -17.5 27.5 -29.5s12.5 -26.667 15.5 -44s2.83301 -37.666 -0.5 -60.999c-9.33301 -66.667 -35.833 -116.167 -79.5 -148.5s-108.167 -48.5 -193.5 -48.5c-35.333 0 -68.666 1.16699 -99.999 3.5s-55.666 3.5 -72.999 3.5
zM274.999 289.001c-7.33301 0 -14.4961 -0.166992 -21.4961 -0.5s-13.167 -0.833008 -18.5 -1.5l-27 -191c5.33301 0 10.666 -0.166992 15.999 -0.5s10.666 -0.5 15.999 -0.5c39.333 0 69.666 7.33301 90.999 22s34.666 41.667 39.999 81
c4.66699 30.667 -1.33301 53.5 -18 68.5s-42.667 22.5 -78 22.5zM314.003 563.001c-7.33301 0 -14.668 -0.166992 -22.001 -0.5s-13.666 -0.833008 -18.999 -1.5l-26 -191c5.33301 0 10.5 -0.166992 15.5 -0.5s10.167 -0.5 15.5 -0.5c19.333 0 35.833 2.83301 49.5 8.5
s25 13.334 34 23.001s16 20.5 21 32.5s8.16699 24.667 9.5 38c1.33301 15.333 1.33301 28.666 0 39.999s-4.83301 20.833 -10.5 28.5s-14 13.5 -25 17.5s-25.167 6 -42.5 6z" />
    <glyph glyph-name="C" unicode="C" horiz-adv-x="477" 
d="M224 328c-5.33301 -39.333 -7.83398 -73.5 -7.50098 -102.5s4.83301 -53 13.5 -72s21.667 -33.333 39 -43s40.333 -14.5 69 -14.5c24 0 46.333 3.16699 67 9.5s36.334 11.5 47.001 15.5c0.666992 -17.333 1.16699 -34.833 1.5 -52.5s1.16602 -35.167 2.49902 -52.5
c-4.66699 -1.33301 -11.5 -3.66602 -20.5 -6.99902s-20.333 -6.83301 -34 -10.5s-29.167 -6.83398 -46.5 -9.50098s-36.333 -4 -57 -4c-89.333 0 -152.333 28.167 -189 84.5s-46.667 142.5 -30 258.5c16 116 50.333 202.167 103 258.5s123.667 84.5 213 84.5
c20.667 0 39.334 -1.33301 56.001 -4s31.167 -5.83398 43.5 -9.50098s22.5 -7.16699 30.5 -10.5s14 -5.66602 18 -6.99902l-33 -105c-9.33301 4 -23.5 9.16699 -42.5 15.5s-40.5 9.5 -64.5 9.5c-28.667 0 -53 -4.83301 -73 -14.5s-37 -24 -51 -43s-25.333 -43.167 -34 -72.5
s-15.667 -63.333 -21 -102z" />
    <glyph glyph-name="D" unicode="D" horiz-adv-x="556" 
d="M154 658c16 0 39.333 1 70 3s65.667 3 105 3c46 0 86.167 -4.83301 120.5 -14.5s62 -27 83 -52s34.667 -59.167 41 -102.5s4.83301 -99 -4.5 -167c-9.33301 -66.667 -23.333 -121.5 -42 -164.5s-42 -77.167 -70 -102.5s-60.5 -43 -97.5 -53s-78.5 -15 -124.5 -15
c-38.667 0 -73.167 1.16699 -103.5 3.5s-53.5 3.5 -69.5 3.5zM263 102c46 0 82.001 18.833 108.001 56.5s44.333 94.167 55 169.5c11.333 78.667 9.16602 136.167 -6.50098 172.5s-46.834 54.5 -93.501 54.5c-7.33301 0 -15.166 -0.166992 -23.499 -0.5
s-16.5 -0.833008 -24.5 -1.5l-63 -450c7.33301 -0.666992 15 -1 23 -1h25z" />
    <glyph glyph-name="E" unicode="E" horiz-adv-x="450" 
d="M62 0l92 658h356l-16 -113h-216l-21 -152h164l-15 -106h-164l-25 -174h216l-15 -113h-356z" />
    <glyph glyph-name="F" unicode="F" horiz-adv-x="424" 
d="M408 259h-170l-36 -259h-140l92 658h344l-16 -113h-204l-25 -180h170z" />
    <glyph glyph-name="G" unicode="G" horiz-adv-x="520" 
d="M494 16c-5.33301 -1.33301 -13.999 -3.66504 -25.999 -6.99805s-26.833 -6.83301 -44.5 -10.5s-37.167 -6.83398 -58.5 -9.50098s-43.666 -4 -66.999 -4c-89.333 0 -152.333 28.167 -189 84.5s-46.667 142.5 -30 258.5c16 116 50.333 202.167 103 258.5
s123.667 84.5 213 84.5c20.667 0 40.167 -1.33301 58.5 -4s34.833 -5.83398 49.5 -9.50098s27 -7.16699 37 -10.5l21 -7l-33 -105c-4.66699 2 -11.5 4.5 -20.5 7.5s-19.333 5.66699 -31 8s-23.834 4.5 -36.501 6.5s-25 3 -37 3c-28.667 0 -53 -4.83301 -73 -14.5
s-37 -24 -51 -43s-25.333 -43.167 -34 -72.5s-15.667 -63.333 -21 -102c-5.33301 -39.333 -7.83301 -73.5 -7.5 -102.5s4.83301 -53 13.5 -72s21.667 -33.333 39 -43s40.333 -14.5 69 -14.5h13.5c4.33301 0 9.16602 0.333008 14.499 1l25 175h-69l15 111h208z" />
    <glyph glyph-name="H" unicode="H" horiz-adv-x="581" 
d="M518 0h-138l38 272h-179l-38 -272h-139l92 658h139l-39 -275h179l39 275h138z" />
    <glyph glyph-name="I" unicode="I" horiz-adv-x="264" 
d="M201 0h-139l92 658h139z" />
    <glyph glyph-name="J" unicode="J" horiz-adv-x="271" 
d="M229 130c-8.66699 -62 -20.002 -112.331 -34.002 -150.998s-31 -68.834 -51 -90.501s-43 -36.334 -69 -44.001s-55 -11.5 -87 -11.5c-5.33301 0 -10.666 0.166992 -15.999 0.5s-10.666 0.833008 -15.999 1.5c4 17.333 7.66699 34.5 11 51.5s7 34.167 11 51.5
c20.667 2 38.667 13 54 33c14.667 9.33301 26 23.5 34 42.5s14.667 47.5 20 85.5l79 559h138z" />
    <glyph glyph-name="K" unicode="K" horiz-adv-x="539" 
d="M154 658h139l-40 -288l201 288h155l-228 -298l77.5 -180l78.5 -180h-165l-126 321l-45 -321h-139z" />
    <glyph glyph-name="L" unicode="L" horiz-adv-x="412" 
d="M62 0l92 658h139l-77 -545h195l-24 -113h-325z" />
    <glyph glyph-name="M" unicode="M" horiz-adv-x="692" 
d="M667 0l-139.999 0.000976562c0.666992 11.333 1.66699 27.5 3 48.5l4.5 71l5.5 83.5l6 84.5l5.5 75.5c1.66699 23.333 3.16699 42 4.5 56l-19.5 -46l-28 -66l-33 -75.5l-32.5 -74l-27 -62c-8 -18.333 -14 -31.5 -18 -39.5h-95l-6.5 39l-10.5 61.5c-4 23 -8 47.5 -12 73.5
l-11.5 75l-10 66.5c-3 20.333 -5.16699 36.166 -6.5 47.499l-86 -419h-135l155 658h135c2 -9.33301 4.83301 -24.166 8.5 -44.499l12 -70l13.5 -84l13 -86l11 -76.5c3.33301 -23.333 5.66602 -41.333 6.99902 -54c4.66699 12.667 12 30.5 22 53.5l33 76l37.5 86l37.5 84.5
l32 70.5c9.33301 20.333 16.333 35.166 21 44.499h136z" />
    <glyph glyph-name="N" unicode="N" horiz-adv-x="578" 
d="M516 0l-123.999 0.000976562l-152 415h-1c-1.33301 -6.66699 -2.33301 -16.834 -3 -30.501s-2.33398 -28.167 -5.00098 -43.5l-47 -341h-122l92 658h125l75 -206.5l75 -206.5h2c1.33301 6.66699 2.33301 17 3 31s2 28 4 42l48 340h122z" />
    <glyph glyph-name="O" unicode="O" horiz-adv-x="570" 
d="M582 329c-16.667 -116.667 -50.667 -202.834 -102 -258.501s-117.333 -83.5 -198 -83.5s-138.834 27.833 -174.501 83.5s-45.167 141.834 -28.5 258.501c16 116.667 49.667 202.667 101 258s117.333 83 198 83s138.834 -27.667 174.501 -83s45.5 -141.333 29.5 -258z
M440 329c10 73.333 9.16699 130 -2.5 170s-36.834 60 -75.501 60c-38 0 -68.333 -20 -91 -60s-39 -96.667 -49 -170c-10.667 -73.333 -10.5 -130.166 0.5 -170.499s35.833 -60.5 74.5 -60.5c39.333 0 70.333 20.167 93 60.5s39.334 97.166 50.001 170.499z" />
    <glyph glyph-name="P" unicode="P" horiz-adv-x="496" 
d="M154 658c8.66699 0 19.5029 0.333984 32.5029 1.00098s27.333 1.33398 43 2.00098l48.5 2c16.667 0.666992 33 1 49 1c85.333 0 143.5 -19 174.5 -57s41.167 -94 30.5 -168c-6 -41.333 -16.833 -76.333 -32.5 -105s-34.834 -51.834 -57.501 -69.501
s-48.334 -30.334 -77.001 -38.001s-59 -11.5 -91 -11.5c-8.66699 0 -16.834 0.166992 -24.501 0.5s-15.167 0.833008 -22.5 1.5l-30 -217h-135zM317.003 558.001l-20.502 0.000976562c-7 0 -14.167 -0.333008 -21.5 -1l-34 -238h37c28.667 0 53.334 8.66699 74.001 26
s34 48.666 40 93.999c6 40.667 2.33301 70.667 -11 90s-34.666 29 -63.999 29z" />
    <glyph glyph-name="Q" unicode="Q" horiz-adv-x="570" 
d="M282 -13c-80.667 0 -138.834 27.834 -174.501 83.501s-45.167 141.834 -28.5 258.501c16 116.667 49.667 202.667 101 258s117.333 83 198 83s138.834 -27.667 174.501 -83s45.5 -141.333 29.5 -258c-11.333 -80 -30.833 -145.333 -58.5 -196s-62.834 -88 -105.501 -112
c17.333 -17.333 35.5 -31.5 54.5 -42.5s34.167 -19.167 45.5 -24.5l-74 -92c-4.66699 1.33301 -12.667 4.16602 -24 8.49902s-24.666 11.333 -39.999 21s-31.5 22.167 -48.5 37.5s-33.5 34.666 -49.5 57.999zM440 329.001c10 73.333 9.16699 130 -2.5 170
s-36.834 60 -75.501 60c-38 0 -68.333 -20 -91 -60s-39 -96.667 -49 -170c-10.667 -73.333 -10.5 -130.166 0.5 -170.499s35.833 -60.5 74.5 -60.5c39.333 0 70.333 20.167 93 60.5s39.334 97.166 50.001 170.499z" />
    <glyph glyph-name="R" unicode="R" horiz-adv-x="517" 
d="M154 658c8.66699 0 19.502 0.332031 32.502 0.999023s27.5 1.33398 43.5 2.00098l50 2c17.333 0.666992 34.666 1 51.999 1c80.667 0 138.5 -16 173.5 -48s47.167 -87 36.5 -165c-4 -26.667 -10.5 -50.167 -19.5 -70.5s-19.667 -38 -32 -53s-25.833 -27.333 -40.5 -37
s-29.334 -17.167 -44.001 -22.5l91 -268h-147l-70 250c-12.667 0 -23.5 0.333008 -32.5 1s-15.167 1 -18.5 1l-35 -252h-132zM305.002 349.999c54.667 0 87 34.334 97 103.001c5.33301 35.333 2.16602 61.666 -9.50098 78.999s-33.5 26 -65.5 26
c-8.66699 0 -17.5 -0.166992 -26.5 -0.5s-18.5 -0.833008 -28.5 -1.5l-29 -203c5.33301 0 13.833 -0.5 25.5 -1.5s23.834 -1.5 36.501 -1.5z" />
    <glyph glyph-name="S" unicode="S" horiz-adv-x="448" 
d="M339 670c24.667 0 46.4951 -1.83008 65.4951 -5.49707s35.333 -8 49 -13s25 -9.83301 34 -14.5s16.167 -8 21.5 -10l-47 -101c-4.66699 2 -11.167 5.16699 -19.5 9.5s-18 8.66602 -29 12.999s-22.833 8.33301 -35.5 12s-25.667 5.5 -39 5.5
c-15.333 0 -28.666 -2.5 -39.999 -7.5s-21 -11.167 -29 -18.5s-14.167 -15.333 -18.5 -24s-6.83301 -16.334 -7.5 -23.001c-2.66699 -20 1 -37.333 11 -52s23.333 -28.167 40 -40.5s34.834 -24.833 54.501 -37.5s37.667 -27 54 -43s29 -34.833 38 -56.5
s11.5 -47.834 7.5 -78.501c-9.33301 -62.667 -34.666 -111.334 -75.999 -146.001s-98.333 -52 -171 -52c-25.333 0 -47.666 2.16699 -66.999 6.5s-36 9.33301 -50 15s-25.833 11.167 -35.5 16.5s-16.834 9 -21.501 11l46 101c4.66699 -2 11.167 -5.16699 19.5 -9.5
s18 -8.66602 29 -12.999s22.833 -8.33301 35.5 -12s25.667 -5.5 39 -5.5c12 0 24 1.5 36 4.5s23.167 7.5 33.5 13.5s19 13.667 26 23s11.5 20.666 13.5 33.999c2.66699 18.667 -1.16602 34.667 -11.499 48s-24 26 -41 38l-54.5 37
c-19.333 12.667 -37.166 27.334 -53.499 44.001s-29 36.167 -38 58.5s-11.167 49.833 -6.5 82.5c8 58.667 33 105 75 139s96.333 51 163 51z" />
    <glyph glyph-name="T" unicode="T" horiz-adv-x="441" 
d="M501 545h-135l-76 -545h-139l76 545h-136l16 113h411z" />
    <glyph glyph-name="U" unicode="U" horiz-adv-x="554" 
d="M146 658h138.999l-49 -349c-5.33301 -36.667 -9.16602 -68.167 -11.499 -94.5s-1.83301 -48.166 1.5 -65.499s10 -30.166 20 -38.499s24.667 -12.5 44 -12.5s35.166 4.16699 47.499 12.5s22.5 21.166 30.5 38.499s14.5 39.166 19.5 65.499s10.167 57.833 15.5 94.5
l49 349h137l-49 -349c-8 -58 -18.833 -107.5 -32.5 -148.5s-31 -74.333 -52 -100s-46.167 -44.334 -75.5 -56.001s-64.333 -17.5 -105 -17.5c-40 0 -73.333 5.83301 -100 17.5s-47.167 30.334 -61.5 56.001s-22.666 59 -24.999 100s0.5 90.5 8.5 148.5z" />
    <glyph glyph-name="V" unicode="V" horiz-adv-x="529" 
d="M196 0l-92 658h143l36 -453l-2 -99l26 99l164 453h143l-276 -658h-142z" />
    <glyph glyph-name="W" unicode="W" horiz-adv-x="739" 
d="M820 658l-229 -658h-131l-32 419l-152 -419h-129l-45 658h140l18 -445l142 393h108l30 -393l145 445h135z" />
    <glyph glyph-name="X" unicode="X" horiz-adv-x="538" 
d="M234 331l-131 327.001h160l13 -44.5l19.5 -66l20 -68c6.33301 -21.667 10.833 -37.834 13.5 -48.501c5.33301 11.333 14.333 27.833 27 49.5l39.5 67.5l39 65.5l26.5 44.5h158l-223 -328l69.5 -165l69.5 -165h-164c-3.33301 9.33301 -8.33301 24.333 -15 45l-21 66
l-20.5 68c-6.33301 22 -10.833 39.333 -13.5 52l-29.5 -51l-40.5 -68.5l-39.5 -66.5l-27.5 -45h-161z" />
    <glyph glyph-name="Y" unicode="Y" horiz-adv-x="528" 
d="M334 0l-139 -0.00195312l30 217l-12 40l-62 200l-61 201h149l22 -93.5l21 -90c6.66699 -28.333 12.5 -54.166 17.5 -77.499s9.16699 -41.666 12.5 -54.999l27.5 55l39 77.5l46 90l48.5 93.5h149l-118 -201l-117 -200l-23 -40z" />
    <glyph glyph-name="Z" unicode="Z" horiz-adv-x="465" 
d="M508 568l-309 -456h249l-15 -112h-405l12 90l310 456h-239l16 112h394z" />
    <glyph glyph-name="bracketleft" unicode="[" horiz-adv-x="311" 
d="M280 -144h-223l127 905h223l-12 -92h-110l-102 -721h110z" />
    <glyph glyph-name="backslash" unicode="\" horiz-adv-x="391" 
d="M216 718l45.5 -271l44 -248.5l37.5 -202c11.333 -58.333 20.666 -102.166 27.999 -131.499h-121c-7.33301 29.333 -16.666 73.166 -27.999 131.499l-38 202l-44 248.5l-45 271h121z" />
    <glyph glyph-name="bracketright" unicode="]" horiz-adv-x="311" 
d="M213 -144h-222l12 92h110l102 721h-110l12 91h223z" />
    <glyph glyph-name="asciicircum" unicode="^" horiz-adv-x="433" 
d="M330 676l129 -152l-65 -59l-48 51.5l-50 51.5l-63 -51.5l-63 -51.5l-49 59l173 152h36z" />
    <glyph glyph-name="underscore" unicode="_" horiz-adv-x="479" 
d="M443 -177h-456l13 100h457z" />
    <glyph glyph-name="grave" unicode="`" horiz-adv-x="359" 
d="M237 794l116 -167l-66 -54l-135 148z" />
    <glyph glyph-name="a" unicode="a" 
d="M460 0l-113.999 -0.00195312v60c-9.33301 -8.66699 -19.666 -17.167 -30.999 -25.5s-23.833 -16 -37.5 -23s-28.167 -12.667 -43.5 -17s-31.333 -6.5 -48 -6.5c-22 0 -42.167 4.83301 -60.5 14.5s-33.333 24.834 -45 45.501s-19.5 47.334 -23.5 80.001s-2.66699 72 4 118
c7.33301 51.333 19.166 94.666 35.499 129.999s35.666 63.833 57.999 85.5s46.833 37.334 73.5 47.001s54 14.5 82 14.5c34 0 70.667 -2 110 -6s76 -9.33301 110 -16zM259.001 100.998c17.333 0 33.8311 5.16699 49.498 15.5s28.167 21.166 37.5 32.499l38 268
c-9.33301 0.666992 -19.166 1.33398 -29.499 2.00098s-21.166 1 -32.499 1c-32.667 0 -58.5 -12 -77.5 -36s-32.833 -66 -41.5 -126c-4 -30 -5.83301 -55 -5.5 -75s3 -36.167 8 -48.5s12 -21 21 -26s19.833 -7.5 32.5 -7.5z" />
    <glyph glyph-name="b" unicode="b" 
d="M150 719l136.999 19.999l-40 -284l27.5 22.5c10.333 8.33301 21.666 16 33.999 23s25.666 12.833 39.999 17.5s29.166 7 44.499 7c22 0 42.167 -5 60.5 -15s33.333 -25.667 45 -47s19.5 -48.333 23.5 -81s3 -72 -3 -118c-6.66699 -44.667 -17.167 -84 -31.5 -118
s-31.166 -62.333 -50.499 -85s-40.666 -39.667 -63.999 -51s-47.333 -17 -72 -17c-17.333 0 -32.166 2.16699 -44.499 6.5s-23.166 9.83301 -32.499 16.5s-17.333 13.834 -24 21.501l-18 21.5l-19 -59h-114zM320.999 410.999c-9.33301 0 -18.332 -1.66699 -26.999 -5
s-16.834 -7.5 -24.501 -12.5s-14.5 -10.167 -20.5 -15.5s-10.667 -10 -14 -14l-32 -228c9.33301 -7.33301 18.666 -14 27.999 -20s19.666 -9 30.999 -9c32.667 0 58.334 11.333 77.001 34s31.667 60 39 112c8.66699 59.333 7.83398 100.5 -2.49902 123.5
s-28.5 34.5 -54.5 34.5z" />
    <glyph glyph-name="c" unicode="c" horiz-adv-x="385" 
d="M387 34c-5.33301 -2 -12.501 -5.49707 -21.501 -10.4971s-20 -10.167 -33 -15.5s-27.833 -10 -44.5 -14s-34.667 -6 -54 -6c-67.333 0 -115.833 21.167 -145.5 63.5s-38.5 108.166 -26.5 197.499c13.333 93.333 41.666 162.666 84.999 207.999s100.333 68 171 68
c28 0 52.333 -2.66699 73 -8s35.334 -9.66602 44.001 -12.999l-30 -99c-6 2.66699 -16.667 6 -32 10s-32 6 -50 6c-33.333 0 -59.666 -13.167 -78.999 -39.5s-33.333 -68.833 -42 -127.5c-4 -29.333 -5.33301 -54.333 -4 -75s5.16602 -37.334 11.499 -50.001
s14.833 -21.834 25.5 -27.501s23.334 -8.5 38.001 -8.5c10 0 20 1.16699 30 3.5s19.167 5 27.5 8s15.833 6 22.5 9s11.667 5.16699 15 6.5z" />
    <glyph glyph-name="d" unicode="d" 
d="M460 0l-113.999 -0.00195312v60c-9.33301 -8.66699 -19.666 -17.167 -30.999 -25.5s-23.833 -16 -37.5 -23s-28.167 -12.667 -43.5 -17s-31.333 -6.5 -48 -6.5c-22 0 -42.167 4.83301 -60.5 14.5s-33.333 24.834 -45 45.501s-19.5 47.334 -23.5 80.001s-2.66699 72 4 118
c7.33301 51.333 19.166 94.666 35.499 129.999s35.666 63.833 57.999 85.5s46.833 37.334 73.5 47.001s54 14.5 82 14.5c14 0 28.333 -2 43 -6s29 -9.33301 43 -16l31 218l136 20zM259.001 100.998c17.333 0 33.833 5.16895 49.5 15.502s28.167 21.166 37.5 32.499l36 253
c-9.33301 5.33301 -18.833 9.66602 -28.5 12.999s-20.167 5 -31.5 5c-32.667 0 -58.5 -12 -77.5 -36s-32.833 -66 -41.5 -126c-4 -30 -5.83301 -55 -5.5 -75s3 -36.167 8 -48.5s12 -21 21 -26s19.833 -7.5 32.5 -7.5z" />
    <glyph glyph-name="e" unicode="e" horiz-adv-x="457" 
d="M419 37c-4 -2.66699 -11.1689 -6.66602 -21.502 -11.999s-23.333 -10.833 -39 -16.5s-33.834 -10.5 -54.501 -14.5s-43.334 -6 -68.001 -6c-29.333 0 -56 4.83301 -80 14.5s-44 24.834 -60 45.501s-27.333 47 -34 79s-6.66699 70.667 0 116
c6.66699 48 17.834 89.667 33.501 125s34.5 64.666 56.5 87.999s46.333 40.666 73 51.999s54.334 17 83.001 17s54.167 -4.5 76.5 -13.5s40.833 -23.333 55.5 -43s24.667 -44.5 30 -74.5s5 -66 -1 -108c-2.66699 -18 -5.66699 -33.5 -9 -46.5
s-5.66602 -20.833 -6.99902 -23.5h-261c-6 -44.667 -0.666992 -76.834 16 -96.501s39.334 -29.5 68.001 -29.5c13.333 0 26.333 1.33301 39 4s24.5 5.83398 35.5 9.50098s21.167 7.5 30.5 11.5l23 10zM293.998 429.001c-8.66699 0 -17.6689 -2.16797 -27.002 -6.50098
s-18 -11.5 -26 -21.5s-15.333 -23.333 -22 -40s-11.667 -37 -15 -61h137c3.33301 25.333 4.5 46.333 3.5 63s-3.66699 29.834 -8 39.501s-10.166 16.5 -17.499 20.5s-15.666 6 -24.999 6z" />
    <glyph glyph-name="f" unicode="f" horiz-adv-x="309" 
d="M352 415l-92 0.000976562l-91 -644h-135l91 644h-55l14 99h55l8 60c8.66699 61.333 25.667 106 51 134s61 42 107 42c32 0 56.167 -2.66699 72.5 -8s27.5 -9.33301 33.5 -12c-2.66699 -16 -5.5 -32 -8.5 -48s-6.16699 -32 -9.5 -48
c-4 1.33301 -11.167 3.16602 -21.5 5.49902s-22.166 3.5 -35.499 3.5c-17.333 0 -29.833 -6.33301 -37.5 -19s-13.834 -35.667 -18.501 -69l-6 -41h92z" />
    <glyph glyph-name="g" unicode="g" 
d="M279 520c28.667 0 51.8311 -6.99805 69.498 -20.998s34.167 -32.333 49.5 -55l10 35l10 35h114l-78 -556c-9.33301 -66.667 -31.666 -116.5 -66.999 -149.5s-86.333 -49.5 -153 -49.5c-36 0 -68.5 3.83301 -97.5 11.5s-50.833 14.167 -65.5 19.5l28 92
c13.333 -4.66699 31.333 -9.5 54 -14.5s46.334 -7.5 71.001 -7.5c12 0 23.167 1 33.5 3s19.666 6.33301 27.999 13s15.5 16.167 21.5 28.5s10.333 28.833 13 49.5l15 103h-1c-8 -8 -17.167 -16 -27.5 -24s-21.833 -15.333 -34.5 -22s-26.167 -12.167 -40.5 -16.5
s-29.5 -6.5 -45.5 -6.5c-22.667 0 -43 5 -61 15s-32.833 25.333 -44.5 46s-19.5 46.667 -23.5 78s-3 68.666 3 111.999c6.66699 46.667 17.334 87.667 32.001 123s32 64.666 52 87.999s41.5 40.833 64.5 52.5s46.5 17.5 70.5 17.5zM253.997 102.002c20 0 38.168 6 54.501 18
s29.166 23.667 38.499 35l29 204c-15.333 19.333 -28.5 32.5 -39.5 39.5s-23.833 10.5 -38.5 10.5c-31.333 0 -53.5 -13.333 -66.5 -40s-22.833 -65.667 -29.5 -117c-4 -28 -5.66699 -51.667 -5 -71s3.33398 -34.833 8.00098 -46.5s11.167 -20 19.5 -25
s18.166 -7.5 29.499 -7.5z" />
    <glyph glyph-name="h" unicode="h" horiz-adv-x="506" 
d="M150 719l137 20.001l-41 -291h2c4 3.33301 10.333 9.16602 19 17.499s19.5 17 32.5 26s28 16.833 45 23.5s35.833 10 56.5 10c47.333 0 79 -14.667 95 -44s19.667 -74.333 11 -135l-48 -346h-135l43 313c5.33301 36.667 5.33301 61.667 0 75s-18.333 20 -39 20
c-10 0 -20 -2.33301 -30 -7s-19.167 -10 -27.5 -16s-15.833 -12.167 -22.5 -18.5l-15 -14.5l-49 -352h-135z" />
    <glyph glyph-name="i" unicode="i" horiz-adv-x="239" 
d="M187 0h-135l70 504l138 20zM291 671c-3.33301 -24 -13.502 -43.5 -30.502 -58.5s-36.167 -22.5 -57.5 -22.5s-38.166 7.5 -50.499 22.5s-16.833 34.5 -13.5 58.5s13.333 43.667 30 59s35.667 23 57 23s38.333 -7.66699 51 -23s17.334 -35 14.001 -59z" />
    <glyph glyph-name="j" unicode="j" horiz-adv-x="244" 
d="M127 504l136.999 20l-78 -559c-5.33301 -36.667 -13.166 -67.834 -23.499 -93.501s-23.5 -46.5 -39.5 -62.5s-34.5 -27.667 -55.5 -35s-44.833 -11 -71.5 -11c-9.33301 0 -18 0.666992 -26 2l-24 4l20 99c13.333 1.33301 24.833 4 34.5 8s18 10 25 18
s12.667 18.833 17 32.5s7.83301 30.834 10.5 51.501zM292.999 671c-3.33301 -24 -13.501 -43.5 -30.501 -58.5s-35.833 -22.5 -56.5 -22.5c-21.333 0 -38.333 7.5 -51 22.5s-17.334 34.5 -14.001 58.5s13.5 43.667 30.5 59s36.167 23 57.5 23
c20.667 0 37.334 -7.66699 50.001 -23s17.334 -35 14.001 -59z" />
    <glyph glyph-name="k" unicode="k" horiz-adv-x="476" 
d="M151 719l136 20l-63 -448l162 223h151l-197 -229l143 -285h-161l-104 245l-34 -245h-134z" />
    <glyph glyph-name="l" unicode="l" horiz-adv-x="233" 
d="M184 0h-135l101 719l137 20z" />
    <glyph glyph-name="m" unicode="m" horiz-adv-x="717" 
d="M124 514l119.002 -0.00390625l-4 -69c4.66699 4.66699 11 11.334 19 20.001s17.833 17.5 29.5 26.5s25 16.833 40 23.5s32.167 10 51.5 10c29.333 0 52.166 -5.66699 68.499 -17s26.166 -32 29.499 -62c4.66699 6 11.334 13.333 20.001 22s19 17.334 31 26.001
s25.667 16 41 22s32 9 50 9c44 0 73.833 -13.5 89.5 -40.5s18.834 -72.833 9.50098 -137.5l-48 -347h-134l47 336c3.33301 22.667 3.16602 40.334 -0.500977 53.001s-14.167 19 -31.5 19c-8.66699 0 -17.167 -2.16699 -25.5 -6.5s-16 -9.5 -23 -15.5s-13 -12.167 -18 -18.5
s-8.5 -11.5 -10.5 -15.5l-49 -352h-129l47 336c3.33301 22.667 3.16602 40.334 -0.500977 53.001s-14.167 19 -31.5 19c-8.66699 0 -17.167 -2.16699 -25.5 -6.5s-15.833 -9.5 -22.5 -15.5s-12.5 -12.167 -17.5 -18.5s-8.83301 -11.5 -11.5 -15.5l-49 -352h-133z" />
    <glyph glyph-name="n" unicode="n" horiz-adv-x="508" 
d="M124 514h119l-4 -66h2l20 17.5c9.33301 8.33301 21 17 35 26s30 16.833 48 23.5s37.667 10 59 10c47.333 0 79 -14.667 95 -44s19.667 -74.333 11 -135l-48 -346h-135l43 313c5.33301 36.667 5.33301 61.667 0 75s-18.333 20 -39 20c-10 0 -20 -2.33301 -30 -7
s-19.167 -10 -27.5 -16s-15.833 -12.167 -22.5 -18.5l-15 -14.5l-49 -352h-134z" />
    <glyph glyph-name="o" unicode="o" horiz-adv-x="497" 
d="M505 257c-7.33301 -48.667 -18.6709 -90 -34.0039 -124s-34.166 -61.833 -56.499 -83.5s-47.666 -37.334 -75.999 -47.001s-59.166 -14.5 -92.499 -14.5s-63 4.83301 -89 14.5s-47 25.334 -63 47.001s-26.833 49.5 -32.5 83.5s-4.83398 75.333 2.49902 124
c6.66699 48 17.5 89 32.5 123s33.5 61.833 55.5 83.5s47.333 37.334 76 47.001s59.667 14.5 93 14.5s62.833 -4.83301 88.5 -14.5s46.834 -25.334 63.501 -47.001s27.834 -49.5 33.501 -83.5s5.16699 -75 -1.5 -123zM364.995 257c8 60 7.33301 103.167 -2 129.5
s-28 39.5 -56 39.5s-50.333 -13.167 -67 -39.5s-29 -69.5 -37 -129.5c-8.66699 -60.667 -8.33398 -104.167 0.999023 -130.5s28 -39.5 56 -39.5s50.333 13.333 67 40s29.334 70 38.001 130z" />
    <glyph glyph-name="p" unicode="p" 
d="M121 514h124.998l-4 -68h2c5.33301 6.66699 12.833 14.5 22.5 23.5s20.834 17.667 33.501 26s26.834 15.333 42.501 21s32.167 8.5 49.5 8.5c22.667 0 43.167 -5.16699 61.5 -15.5s33.333 -26.166 45 -47.499s19.5 -48.5 23.5 -81.5s3 -71.833 -3 -116.5
c-6.66699 -47.333 -17.5 -88.333 -32.5 -123s-33 -63.334 -54 -86.001s-44.167 -39.5 -69.5 -50.5s-52 -16.5 -80 -16.5c-36 0 -69 6.66699 -99 20l-34 -237h-134zM320.998 411c-8.66699 0 -17.502 -2 -26.502 -6s-17.5 -9 -25.5 -15s-15.167 -12.333 -21.5 -19
s-11.166 -12.334 -14.499 -17.001l-36 -256c17.333 -8.66699 36.333 -13 57 -13c34 0 61 12.833 81 38.5s34.333 68.834 43 129.501c8.66699 59.333 7.83398 100.5 -2.49902 123.5s-28.5 34.5 -54.5 34.5z" />
    <glyph glyph-name="q" unicode="q" 
d="M427 -229l-133.002 -0.000976562l41 286h-1c-7.33301 -7.33301 -16.166 -15 -26.499 -23s-21.833 -15.5 -34.5 -22.5s-26.167 -12.667 -40.5 -17s-29.5 -6.5 -45.5 -6.5c-22.667 0 -43.167 4.83301 -61.5 14.5s-33.333 25 -45 46s-19.5 47.833 -23.5 80.5
s-2.66699 72 4 118c6.66699 44.667 17.167 84.167 31.5 118.5s31.5 62.833 51.5 85.5s41.833 39.834 65.5 51.501s47.834 17.5 72.501 17.5c25.333 0.666992 46.833 -6.83301 64.5 -22.5s32.167 -33.5 43.5 -53.5c3.33301 12 6.33301 23.667 9 35s5.66699 23 9 35h124z
M256.998 101.999c8.66699 0 17.501 1.83301 26.501 5.5s17.5 8.16699 25.5 13.5s15.333 11 22 17s12 11.667 16 17l29 204c-11.333 16 -23.5 29.167 -36.5 39.5s-27.5 15.5 -43.5 15.5c-24 0 -43.5 -11.833 -58.5 -35.5s-26.5 -63.5 -34.5 -119.5
c-4 -30 -5.83301 -55.167 -5.5 -75.5s2.66602 -36.5 6.99902 -48.5s11 -20.5 20 -25.5s19.833 -7.5 32.5 -7.5z" />
    <glyph glyph-name="r" unicode="r" horiz-adv-x="336" 
d="M186 0l-134.002 0.000976562l72 514h119l-3 -69h1c14.667 23.333 33 42.666 55 57.999s44.333 23 67 23c10 0 18 -1.16699 24 -3.5l14 -5.5l-27 -119c-5.33301 1.33301 -12.833 3.5 -22.5 6.5s-19.5 4.5 -29.5 4.5c-13.333 0 -26.166 -3.83301 -38.499 -11.5
s-28.166 -20.5 -47.499 -38.5z" />
    <glyph glyph-name="s" unicode="s" horiz-adv-x="376" 
d="M57 118c3.33301 -1.33301 9.00684 -3.82812 17.0068 -7.49512s17 -7.33398 27 -11.001s20.667 -6.83398 32 -9.50098s22.666 -4 33.999 -4c19.333 0 34.666 3 45.999 9s18.333 18.667 21 38c2 14 -0.833008 26.5 -8.5 37.5s-17.5 21.667 -29.5 32
s-25.333 21.166 -40 32.499s-27.834 23.833 -39.501 37.5s-20.834 29 -27.501 46s-8.33398 37.167 -5.00098 60.5c6.66699 46 26.667 81.833 60 107.5s77.666 38.5 132.999 38.5c34 0 61.5 -2.66699 82.5 -8s36.167 -9.66602 45.5 -12.999
c-3.33301 -16.667 -6.83301 -33.167 -10.5 -49.5l-10.5 -48.5l-40 11c-19.333 5.33301 -39.333 8 -60 8c-42 0 -65 -13.333 -69 -40c-2 -12.667 1.16699 -24.167 9.5 -34.5s18.833 -20.5 31.5 -30.5s26.667 -20.5 42 -31.5s29.166 -23.333 41.499 -37s22 -29.5 29 -47.5
s8.83301 -39 5.5 -63c-3.33301 -21.333 -9.5 -41.333 -18.5 -60s-21.5 -34.834 -37.5 -48.501s-35.833 -24.5 -59.5 -32.5s-51.167 -12 -82.5 -12c-21.333 0 -40.5 1.66699 -57.5 5s-31.833 7.16602 -44.5 11.499s-23.5 8.66602 -32.5 12.999s-15.833 7.83301 -20.5 10.5z
" />
    <glyph glyph-name="t" unicode="t" horiz-adv-x="331" 
d="M383 514l-13.9961 -99.001h-110l-35 -247c-3.33301 -22 -3 -38.333 1 -49s13.667 -16 29 -16s29.166 2.33301 41.499 7s20.166 7.33398 23.499 8.00098v-96c-4 -1.33301 -9.83301 -3.83301 -17.5 -7.5s-16.834 -7.5 -27.501 -11.5s-22.834 -7.5 -36.501 -10.5
s-28.5 -4.5 -44.5 -4.5c-46.667 0 -78 12.167 -94 36.5s-20 65.833 -12 124.5l38 266h-55l14 99h55l17 124l137 20l-20 -144h110z" />
    <glyph glyph-name="u" unicode="u" horiz-adv-x="507" 
d="M457 0l-117.004 -0.000976562l1 69l-31 -25c-4.66699 -3.33301 -11 -8.16602 -19 -14.499s-17.667 -12.5 -29 -18.5s-24.166 -11.333 -38.499 -16s-29.833 -7 -46.5 -7c-47.333 0 -79.166 14.667 -95.499 44s-20.166 74.333 -11.499 135l49 347h135l-40 -280
c-3.33301 -24.667 -5.66602 -45.167 -6.99902 -61.5s-0.666016 -29.5 2.00098 -39.5s7.33398 -17 14.001 -21s16 -6 28 -6c9.33301 0 18.666 2.16699 27.999 6.5s18.166 9.5 26.499 15.5s15.833 12.333 22.5 19l16 16l50 351h135z" />
    <glyph glyph-name="v" unicode="v" horiz-adv-x="468" 
d="M160 0l-79 514h138l19 -213l7 -214l67 214l79 213h138l-223 -514h-146z" />
    <glyph glyph-name="w" unicode="w" horiz-adv-x="701" 
d="M762 514l-208 -514h-128l-32 334l-130 -334h-123l-58 514h133l26 -348l127 348h112l33 -348l120 348h128z" />
    <glyph glyph-name="x" unicode="x" horiz-adv-x="457" 
d="M514 514l-86.001 -125.999l-87 -126l110 -262h-144c-3.33301 7.33301 -7.5 19 -12.5 35l-16 52.5l-16 56c-5 18.333 -8.83301 33.166 -11.5 44.499l-23.5 -44.5l-30.5 -56l-29.5 -52.5c-9 -16 -15.833 -27.667 -20.5 -35h-142l183 266l-101 248h145
c2 -6.66699 5.16699 -18 9.5 -34l13.5 -51l13.5 -53c4.33301 -17.333 7.5 -31 9.5 -41l7.5 13c5 8.66699 10.833 19.5 17.5 32.5l22 42l22.5 42.5l17.5 34c4.66699 9.33301 7.33398 14.333 8.00098 15h141v0z" />
    <glyph glyph-name="y" unicode="y" horiz-adv-x="506" 
d="M333 66l-2 -0.000976562c-4 -3.33301 -10.333 -9.16602 -19 -17.499s-19.5 -17 -32.5 -26s-28 -16.833 -45 -23.5s-35.833 -10 -56.5 -10c-47.333 0 -79 14.667 -95 44s-19.667 74.333 -11 135l49 346h135l-44 -313c-2.66699 -18.667 -4.16699 -34 -4.5 -46
s1 -21.667 4 -29s7.83301 -12.5 14.5 -15.5s15 -4.5 25 -4.5s20 2.33301 30 7s19.167 10 27.5 16s15.833 12.167 22.5 18.5l15 14.5l50 352h135l-78 -556c-9.33301 -66.667 -31.833 -116.5 -67.5 -149.5s-86.834 -49.5 -153.501 -49.5c-36 0 -68.5 3.83301 -97.5 11.5
s-50.833 14.167 -65.5 19.5l28 92c13.333 -4.66699 31.333 -9.5 54 -14.5s46.334 -7.5 71.001 -7.5c12 0 23 1 33 3s19 6.33301 27 13s14.833 16.167 20.5 28.5s10.167 28.833 13.5 49.5z" />
    <glyph glyph-name="z" unicode="z" horiz-adv-x="383" 
d="M416 430l-231 -327h188l-14 -103h-337l12 87l228 324h-171l15 103h322z" />
    <glyph glyph-name="braceleft" unicode="{" horiz-adv-x="330" 
d="M197 577c6 45.333 14.332 81.6689 24.999 109.002s24.834 48.166 42.501 62.499s39.5 23.833 65.5 28.5s57.333 7 94 7l-12 -86c-22.667 0 -40.167 -2.16699 -52.5 -6.5s-21.833 -11.5 -28.5 -21.5s-11.334 -22.667 -14.001 -38s-5.66699 -34 -9 -56l-22 -157
c-8 -58 -37.333 -97 -88 -117c44.667 -22 63 -62 55 -120l-22 -160c-3.33301 -24 -5.83301 -43.833 -7.5 -59.5s-0.5 -28.167 3.5 -37.5s11.5 -15.833 22.5 -19.5s27.5 -5.5 49.5 -5.5l-12 -86c-39.333 0 -71.166 2.83301 -95.499 8.5s-43 16.167 -56 31.5
s-20.5 36.5 -22.5 63.5s0 61.833 6 104.5l17 123c6 41.333 4.5 69.5 -4.5 84.5s-26.833 23.167 -53.5 24.5l14 95c9.33301 0.666992 18.5 2.16699 27.5 4.5s17.333 6.33301 25 12s14.167 13.167 19.5 22.5s9 21.666 11 36.999z" />
    <glyph glyph-name="bar" unicode="|" horiz-adv-x="267" 
d="M155 -229h-108l141 1001h108z" />
    <glyph glyph-name="braceright" unicode="}" horiz-adv-x="330" 
d="M322 252c-12.667 -0.666992 -23.833 -2.5 -33.5 -5.5s-18 -8.16699 -25 -15.5s-12.833 -17.333 -17.5 -30s-8.33398 -29.334 -11.001 -50.001l-19 -135c-6.66699 -45.333 -15.5 -81.333 -26.5 -108s-25.5 -47 -43.5 -61s-39.833 -23 -65.5 -27s-56.167 -6 -91.5 -6l11 86
c22 0 39.167 2 51.5 6s22 10.667 29 20s11.833 21.333 14.5 36s5.66699 32.667 9 54l23 166c8 56 37.667 95 89 117c-45.333 22 -64 62 -56 120l22 157c3.33301 24 5.83301 43.833 7.5 59.5s0.5 28.167 -3.5 37.5s-11.667 15.833 -23 19.5s-28 5.5 -50 5.5l12 86
c38 0 69.5 -2.5 94.5 -7.5s44 -14.833 57 -29.5s20.833 -35 23.5 -61s1 -60.333 -5 -103l-18 -133c-3.33301 -20.667 -4.5 -37.5 -3.5 -50.5s4 -23.167 9 -30.5s11.833 -12.666 20.5 -15.999s19.334 -5.33301 32.001 -6z" />
    <glyph glyph-name="asciitilde" unicode="~" horiz-adv-x="525" 
d="M405 368c10.667 0 20.666 1.66699 29.999 5s18 7.16602 26 11.499s14.833 9 20.5 14s10.167 9.16699 13.5 12.5l40 -61l-26.5 -28.5c-10.333 -11 -21.833 -21.333 -34.5 -31s-26.5 -18 -41.5 -25s-31.5 -10.5 -49.5 -10.5c-19.333 0 -35.666 4 -48.999 12
s-25.833 16.667 -37.5 26s-23.167 18 -34.5 26s-24 12 -38 12c-10.667 0 -21.167 -1.83301 -31.5 -5.5s-19.833 -8 -28.5 -13s-16.334 -10.167 -23.001 -15.5s-11.667 -9.66602 -15 -12.999l-18.5 33.5c-6.33301 11 -13.166 22.167 -20.499 33.5
c7.33301 8 16.5 17.5 27.5 28.5s23.5 21.333 37.5 31s29 18 45 25s32.333 10.5 49 10.5c20 0 36.833 -4 50.5 -12s26.167 -17 37.5 -27s22.5 -19 33.5 -27s23.5 -12 37.5 -12z" />
    <glyph glyph-name="nonbreakingspace" unicode="&#xa0;" horiz-adv-x="255" 
 />
    <glyph glyph-name="exclamdown" unicode="&#xa1;" horiz-adv-x="280" 
d="M117 251h120c-7.33301 -74.667 -15 -148.5 -23 -221.5s-15.667 -146.833 -23 -221.5h-153zM274 436c-3.33301 -25.333 -13.3301 -45.666 -29.9971 -60.999s-35.667 -23 -57 -23s-37.833 7.66699 -49.5 23s-15.834 35.666 -12.501 60.999
c3.33301 24.667 13.166 44.834 29.499 60.501s35.166 23.5 56.499 23.5s38 -7.83301 50 -23.5s16.333 -35.834 13 -60.501z" />
    <glyph glyph-name="cent" unicode="&#xa2;" horiz-adv-x="395" 
d="M402 115c-4 -1.33301 -9.66211 -4.00293 -16.9951 -8.00293s-16 -8.33301 -26 -13s-21.167 -9 -33.5 -13s-25.833 -7 -40.5 -9l-6 -48.5l-6 -48.5h-100c2.66699 16.667 5.16699 33.167 7.5 49.5s5.16602 32.833 8.49902 49.5c-46 10.667 -79.333 36 -100 76
s-26 96.667 -16 170c10.667 74.667 32.167 133 64.5 175s73.166 69.333 122.499 82l6 53l6 53h100c-2 -16.667 -4.33301 -33.167 -7 -49.5s-5.66699 -33.166 -9 -50.499c21.333 -1.33301 40.166 -4.16602 56.499 -8.49902s28.166 -8.16602 35.499 -11.499l-15.5 -48
l-15.5 -48c-6 2.66699 -17 6 -33 10s-33.333 6 -52 6c-32.667 0 -58.667 -12.5 -78 -37.5s-33 -65.167 -41 -120.5c-7.33301 -53.333 -4.83301 -92 7.5 -116s33.5 -36 63.5 -36c10.667 0 21.167 1 31.5 3s19.666 4.5 27.999 7.5s15.833 6 22.5 9s12 5.16699 16 6.5z" />
    <glyph glyph-name="sterling" unicode="&#xa3;" horiz-adv-x="492" 
d="M422 302l-131.999 0.00195312c-1.33301 -10.667 -2.66602 -22.334 -3.99902 -35.001l-4 -38c-3.33301 -23.333 -7.83301 -45.5 -13.5 -66.5s-12.834 -40.5 -21.501 -58.5h234l-14 -104h-418l12 88c17.333 9.33301 31.5 19.666 42.5 30.999s20.167 25.666 27.5 42.999
l9 64c2 14.667 3.66699 28.167 5 40.5l4 35.5h-67l11 80h60l4.5 50c1.66699 18.667 3.5 35.334 5.5 50.001c9.33301 62.667 32.166 109.667 68.499 141s84.833 47 145.5 47c38.667 0 70.5 -3.83301 95.5 -11.5s42.5 -13.834 52.5 -18.501l-30 -96
c-8 3.33301 -21.167 7.66602 -39.5 12.999s-38.833 8 -61.5 8c-27.333 0 -48 -7.16699 -62 -21.5s-23.333 -37.166 -28 -68.499c-2 -15.333 -3.83301 -31.166 -5.5 -47.499l-4.5 -45.5h139z" />
    <glyph glyph-name="yen" unicode="&#xa5;" horiz-adv-x="503" 
d="M463 162h-125l-22 -162h-136l22 162h-129l11 74h126l-5 62h-113l11 74h84l-37.5 143l-37.5 143h150l48 -270c26.667 51.333 50 98.5 70 141.5l60 128.5h137l-80.5 -141.5l-86.5 -144.5h83l-11 -74h-109c-4 -10.667 -7.66699 -21 -11 -31l-10 -31h122z" />
    <glyph glyph-name="brokenbar" unicode="&#xa6;" horiz-adv-x="267" 
d="M155 -229h-110l52 368h110zM244 405h-110l52 367h110z" />
    <glyph glyph-name="section" unicode="&#xa7;" horiz-adv-x="448" 
d="M474 644c-6 -30 -12.9941 -60.0039 -20.9941 -90.0039c-2 0.666992 -6.66699 2 -14 4s-16 4 -26 6s-20.833 3.83301 -32.5 5.5s-22.834 2.5 -33.501 2.5c-25.333 0 -44.5 -4.83301 -57.5 -14.5s-20.5 -21.5 -22.5 -35.5c-2 -13.333 1.83301 -24.333 11.5 -33
s22.167 -17 37.5 -25s31.833 -16.167 49.5 -24.5s33.834 -18.666 48.501 -30.999s26.167 -27.666 34.5 -45.999s10.5 -40.833 6.5 -67.5c-2 -14.667 -6.16699 -28.667 -12.5 -42s-13.666 -25.666 -21.999 -36.999s-17 -21.333 -26 -30s-17.5 -16 -25.5 -22
c13.333 -10.667 23.666 -24.667 30.999 -42s9.33301 -37.333 6 -60c-6.66699 -48 -26.834 -86.167 -60.501 -114.5s-82.834 -42.5 -147.501 -42.5c-22.667 0 -42.834 1.83301 -60.501 5.5s-33.167 8 -46.5 13s-24.5 10 -33.5 15l-20.5 11.5l36 84
c3.33301 -1.33301 8.5 -3.83301 15.5 -7.5s15.5 -7.5 25.5 -11.5s21.333 -7.5 34 -10.5s26.334 -4.5 41.001 -4.5c21.333 0 39.666 5.33301 54.999 16s24 23.667 26 39c2 14 -0.5 26.333 -7.5 37s-21.167 19.667 -42.5 27l-51.5 23c-17.667 8 -33.5 18.167 -47.5 30.5
s-24.667 27.333 -32 45s-9 40.167 -5 67.5c2 14.667 6.16699 28.667 12.5 42s13.833 25.5 22.5 36.5s17.5 20.833 26.5 29.5s17.5 16 25.5 22c-14.667 12.667 -25.334 27.834 -32.001 45.501s-8.33398 37.5 -5.00098 59.5c6.66699 48 26.667 85 60 111s78.666 39 135.999 39
c38 0 69.5 -3.66699 94.5 -11s41.5 -12.333 49.5 -15zM248.006 371.996c-17.333 -3.33301 -29.999 -11.5 -37.999 -24.5s-13 -26.167 -15 -39.5c-2 -15.333 -1.33301 -27.333 2 -36s9.5 -16.167 18.5 -22.5s21 -12.666 36 -18.999s32.5 -14.833 52.5 -25.5
c7.33301 7.33301 14.833 16.166 22.5 26.499s12.5 22.5 14.5 36.5c3.33301 24.667 -2.83398 45 -18.501 61s-40.5 30.333 -74.5 43z" />
    <glyph glyph-name="dieresis" unicode="&#xa8;" horiz-adv-x="427" 
d="M453 672c-3.33301 -22.667 -12.499 -41 -27.499 -55s-32.167 -21 -51.5 -21s-34.333 7 -45 21s-14.334 32.333 -11.001 55s12.333 41 27 55s31.667 21 51 21s34.5 -7 45.5 -21s14.833 -32.333 11.5 -55zM261.001 672c-3.33301 -22.667 -12.167 -41 -26.5 -55
s-31.166 -21 -50.499 -21s-34.5 7 -45.5 21s-14.833 32.333 -11.5 55s12.5 41 27.5 55s32.167 21 51.5 21s34.166 -7 44.499 -21s13.833 -32.333 10.5 -55z" />
    <glyph glyph-name="copyright" unicode="&#xa9;" horiz-adv-x="688" 
d="M686 328c-7.33301 -52 -21.499 -99 -42.499 -141s-46.667 -77.833 -77 -107.5s-64.833 -52.667 -103.5 -69s-79 -24.5 -121 -24.5s-80 8.16699 -114 24.5s-62.167 39.333 -84.5 69s-38 65.5 -47 107.5s-9.83301 89 -2.5 141s21.5 99.167 42.5 141.5
s46.833 78.5 77.5 108.5s65.167 53.167 103.5 69.5s78.5 24.5 120.5 24.5s79.833 -8.16699 113.5 -24.5s61.667 -39.5 84 -69.5s38.166 -66.167 47.499 -108.5s10.333 -89.5 3 -141.5zM607.001 328c5.33301 40.667 4.66895 77.334 -1.99805 110.001s-18.167 60.667 -34.5 84
s-36.833 41.333 -61.5 54s-52.334 19 -83.001 19c-30 0 -59.167 -6.33301 -87.5 -19s-53.833 -30.667 -76.5 -54s-41.834 -51.333 -57.501 -84s-26.167 -69.334 -31.5 -110.001c-6 -40.667 -5.66699 -77.334 1 -110.001s18 -60.5 34 -83.5s36.333 -40.833 61 -53.5
s52 -19 82 -19c30.667 0 60.167 6.33301 88.5 19s54 30.5 77 53.5s42.333 50.833 58 83.5s26.5 69.334 32.5 110.001zM345.004 326c-5.33301 -42 -3.5 -71.332 5.5 -87.999s25.167 -25 48.5 -25c11.333 0 22.833 1.16699 34.5 3.5s20.167 4.5 25.5 6.5
c1.33301 -11.333 2.16602 -22.333 2.49902 -33s0.833008 -21.334 1.5 -32.001c-7.33301 -2.66699 -17.666 -6.16699 -30.999 -10.5s-32 -6.5 -56 -6.5c-46 0 -78.833 15.167 -98.5 45.5s-25.167 76.833 -16.5 139.5c9.33301 62.667 28 109.167 56 139.5s65 45.5 111 45.5
c24 0 42.167 -2.16699 54.5 -6.5s21.5 -7.83301 27.5 -10.5l-10.5 -32l-11.5 -33c-4.66699 2 -12.5 4.16699 -23.5 6.5s-22.167 3.5 -33.5 3.5c-23.333 0 -42 -8.33301 -56 -25s-24 -46 -30 -88z" />
    <glyph glyph-name="ordfeminine" unicode="&#xaa;" horiz-adv-x="390" 
d="M279 250l-1.00293 41.0029c-9.33301 -10.667 -23.166 -21.834 -41.499 -33.501s-41.166 -17.5 -68.499 -17.5c-15.333 0 -29.166 2.5 -41.499 7.5s-22.666 12.833 -30.999 23.5s-14.166 24.167 -17.499 40.5s-3.33301 36.166 0 59.499c4 28 11.833 51 23.5 69
s26.5 32.333 44.5 43s38.167 18.167 60.5 22.5s45.833 6.5 70.5 6.5c3.33301 -0.666992 7 -1.16699 11 -1.5s8 -0.5 12 -0.5l3 17c3.33301 24.667 0.166016 41 -9.50098 49s-23.167 12 -40.5 12c-20.667 0 -40.334 -1.83301 -59.001 -5.5s-34.667 -7.83398 -48 -12.501l2 78
c15.333 5.33301 35.333 10.833 60 16.5s50 8.5 76 8.5c52 0 87 -13.167 105 -39.5s23.333 -64.5 16 -114.5l-37 -269h-89zM213.997 316.003c14 0 26.502 3.99902 37.502 11.999s19.833 15.667 26.5 23l13 97h-43c-20.667 -1.33301 -36.334 -8.83301 -47.001 -22.5
s-17.334 -29.167 -20.001 -46.5s-1.16699 -32.166 4.5 -44.499s15.167 -18.5 28.5 -18.5z" />
    <glyph glyph-name="guillemotleft" unicode="&#xab;" horiz-adv-x="478" 
d="M310 403l-58.5 -67l-58.5 -67l80 -134l-71 -59l-123 192l177 189zM379 269l39.5 -67l39.5 -66l-35.5 -30l-35.5 -29l-60.5 95.5l-61.5 95.5l176 188l53 -54z" />
    <glyph glyph-name="logicalnot" unicode="&#xac;" horiz-adv-x="485" 
d="M443 102h-110l24 169h-271l14 106h381z" />
    <glyph glyph-name="registered" unicode="&#xae;" horiz-adv-x="592" 
d="M610 478c-6.66699 -45.333 -18.8311 -86 -36.498 -122s-39.334 -66.667 -65.001 -92s-54.5 -44.833 -86.5 -58.5s-65.333 -20.5 -100 -20.5c-35.333 0 -67.333 6.83301 -96 20.5s-52.167 33.167 -70.5 58.5s-31.333 56 -39 92s-8.16699 76.667 -1.5 122
c6 45.333 18 86 36 122s40 66.667 66 92s55 44.666 87 57.999s65.333 20 100 20s66.167 -6.66699 94.5 -20s51.666 -32.666 69.999 -57.999s31.333 -56 39 -92s8.5 -76.667 2.5 -122zM545.003 478c4.66699 36 4.33398 68.167 -0.999023 96.5s-14.833 52.166 -28.5 71.499
s-30.834 34.166 -51.501 44.499s-44 15.5 -70 15.5s-50.833 -5.16699 -74.5 -15.5s-45 -25.166 -64 -44.499s-35.167 -43.166 -48.5 -71.499s-22.333 -60.5 -27 -96.5c-5.33301 -36 -5.33301 -68.167 0 -96.5s14.833 -52.166 28.5 -71.499s30.834 -34 51.501 -44
s44 -15 70 -15s50.833 5 74.5 15s45 24.667 64 44s35.167 43.166 48.5 71.499s22.666 60.5 27.999 96.5zM297.003 625c6.66699 0 16.168 0.666016 28.501 1.99902s29.166 2 50.499 2c34 0 59.333 -6.66699 76 -20s22.667 -37.333 18 -72
c-3.33301 -23.333 -11.333 -42 -24 -56s-28.667 -24.333 -48 -31l52 -120h-68l-32 90c-7.33301 2.66699 -15.333 6.33398 -24 11.001l-14 -101h-56zM347.004 578.999l-14 -99c16.667 0 33 4.16699 49 12.5s25.333 21.833 28 40.5c2.66699 17.333 1.16699 29.333 -4.5 36
s-16.167 10 -31.5 10h-27z" />
    <glyph glyph-name="macron" unicode="&#xaf;" horiz-adv-x="431" 
d="M427 626h-255l12 80h255z" />
    <glyph glyph-name="degree" unicode="&#xb0;" horiz-adv-x="418" 
d="M439 531c-4 -28 -11.3311 -53.166 -21.998 -75.499s-24 -41.333 -40 -57s-34.167 -27.834 -54.5 -36.501s-41.833 -13 -64.5 -13c-46 0 -81.5 16.333 -106.5 49s-33.833 77 -26.5 133c4 28 11.667 53 23 75s25.166 40.833 41.499 56.5s34.666 27.667 54.999 36
s41.5 12.5 63.5 12.5s42 -4.16699 60 -12.5s32.833 -20.333 44.5 -36s20 -34.5 25 -56.5s5.5 -47 1.5 -75zM351.002 531.001c4 28 0.500977 49.5 -10.499 64.5s-26.167 22.5 -45.5 22.5s-36.5 -7.5 -51.5 -22.5s-24.5 -36.5 -28.5 -64.5
c-3.33301 -27.333 0.333984 -48.833 11.001 -64.5s25.667 -23.5 45 -23.5s36.666 7.83301 51.999 23.5s24.666 37.167 27.999 64.5z" />
    <glyph glyph-name="plusminus" unicode="&#xb1;" horiz-adv-x="496" 
d="M365 441h130l-14 -105h-130l-20 -143h-110l20 143h-131l14 105h131l20 142h110zM446 7h-397l15 105h397z" />
    <glyph glyph-name="twosuperior" unicode="&#xb2;" horiz-adv-x="312" 
d="M321 215l-275 -0.000976562l11 77l45.5 42.5c20.333 19 41 40.167 62 63.5s39.833 47.5 56.5 72.5s26.667 48.167 30 69.5s0.5 36.5 -8.5 45.5s-23.833 13.5 -44.5 13.5c-16.667 0 -33 -2.16699 -49 -6.5s-26.667 -7.83301 -32 -10.5l-6 76c8.66699 4 24 9.5 46 16.5
s47.667 10.5 77 10.5c47.333 0 82 -11.167 104 -33.5s30 -54.833 24 -97.5c-3.33301 -24 -10.833 -47.167 -22.5 -69.5s-26 -43.833 -43 -64.5s-35.5 -40.667 -55.5 -60s-40 -37.666 -60 -54.999h152z" />
    <glyph glyph-name="threesuperior" unicode="&#xb3;" horiz-adv-x="318" 
d="M117 657c7.33301 2.66699 21.502 7.00098 42.502 13.001s47.167 9 78.5 9c46 0 80.667 -9.66699 104 -29s32.333 -48 27 -86c-4 -28 -13.833 -50.833 -29.5 -68.5s-33.167 -31.5 -52.5 -41.5c23.333 -6 41.333 -17.833 54 -35.5s16.667 -42.5 12 -74.5
c-7.33301 -50.667 -27.833 -87.167 -61.5 -109.5s-74.834 -33.5 -123.501 -33.5c-18.667 0 -35.334 1.66699 -50.001 5s-27.5 7.16602 -38.5 11.499s-19.833 8.33301 -26.5 12s-11.334 6.16699 -14.001 7.5l35 68c4.66699 -2 15.334 -6.83301 32.001 -14.5
s36.334 -11.5 59.001 -11.5c23.333 0 42.5 5.33301 57.5 16s24.5 28.667 28.5 54c2.66699 21.333 -1.83301 36.5 -13.5 45.5s-29.167 13.5 -52.5 13.5c-10.667 0 -20.834 -0.166992 -30.501 -0.5s-16.5 -0.5 -20.5 -0.5l10 71h24c10.667 0 20.834 0.5 30.501 1.5
s18.167 3.16699 25.5 6.5c5.33301 2 13 8.16699 23 18.5s16.667 24.833 20 43.5c2.66699 18.667 -1.5 32.167 -12.5 40.5s-26.833 12.5 -47.5 12.5c-19.333 0 -37.333 -2.33301 -54 -7s-26.334 -7.66699 -29.001 -9z" />
    <glyph glyph-name="acute" unicode="&#xb4;" horiz-adv-x="359" 
d="M417 721l-89 -74l-89 -74l-50 54l162 167z" />
    <glyph glyph-name="mu" unicode="&#xb5;" 
d="M458 0l-121 -0.000976562l3 58c-1.33301 0 -4.83301 -3.66699 -10.5 -11s-13.334 -15.333 -23.001 -24s-21.334 -16.667 -35.001 -24s-28.834 -11 -45.501 -11c-11.333 0 -20.166 2.33301 -26.499 7s-12.166 10.334 -17.499 17.001l-34 -241h-132l105 743h135l-40 -280
c-7.33301 -50.667 -7.66602 -85.667 -0.999023 -105s22.334 -29 47.001 -29c10.667 0 21 2.5 31 7.5s18.667 11.5 26 19.5s13.666 17.333 18.999 28s9 21.667 11 33l46 326h135z" />
    <glyph glyph-name="periodcentered" unicode="&#xb7;" horiz-adv-x="267" 
d="M255 335c-3.33301 -25.333 -13.166 -45.666 -29.499 -60.999s-35.166 -23 -56.499 -23s-38 7.66699 -50 23s-16.333 35.666 -13 60.999c3.33301 24.667 13.166 44.834 29.499 60.501s35.166 23.5 56.499 23.5s38 -7.83301 50 -23.5s16.333 -35.834 13 -60.501z" />
    <glyph glyph-name="cedilla" unicode="&#xb8;" horiz-adv-x="354" 
d="M213 2c-1.33301 -4 -3.99707 -9.33105 -7.99707 -15.998s-5.33301 -13.667 -4 -21c0 -2 4 -4.66699 12 -8c7.33301 -4 14.833 -8.5 22.5 -13.5s14.5 -11.5 20.5 -19.5s10.5 -17.333 13.5 -28s3.5 -23.334 1.5 -38.001c-4.66699 -32 -19.167 -56.333 -43.5 -73
s-53.5 -25 -87.5 -25c-12 0 -22.833 1.5 -32.5 4.5s-18.167 6.5 -25.5 10.5s-13.333 7.83301 -18 11.5s-8 6.16699 -10 7.5l34 52c3.33301 -1.33301 9 -5 17 -11s17.667 -9 29 -9c12.667 0 23.334 3 32.001 9s13.667 15 15 27c1.33301 8.66699 -1.83398 15.667 -9.50098 21
s-15.834 10.166 -24.501 14.499s-16.334 8.5 -23.001 12.5s-8.33398 9.66699 -5.00098 17l34 75h60z" />
    <glyph glyph-name="onesuperior" unicode="&#xb9;" horiz-adv-x="250" 
d="M307 678l-65.999 -465h-103l50 354l-40.5 -33c-13.667 -10.667 -27.167 -20.667 -40.5 -30l-31 66l83.5 64.5c26.333 19.667 47.166 34.167 62.499 43.5h85z" />
    <glyph glyph-name="ordmasculine" unicode="&#xba;" horiz-adv-x="394" 
d="M428 457c-10.667 -75.333 -33.502 -129.83 -68.502 -163.497s-77.833 -50.5 -128.5 -50.5c-25.333 0 -47.666 4.16699 -66.999 12.5s-35 21.166 -47 38.499s-20.167 39.5 -24.5 66.5s-3.83301 59.167 1.5 96.5c10.667 75.333 33.5 129.666 68.5 162.999
s77.833 50 128.5 50s88.834 -16.833 114.501 -50.5s33.167 -87.834 22.5 -162.501zM325.998 457.003c12 84.667 -3.66699 127 -47 127s-71 -42 -83 -126c-12 -86 3.66699 -129 47 -129s71 42.667 83 128z" />
    <glyph glyph-name="guillemotright" unicode="&#xbb;" horiz-adv-x="478" 
d="M164 456l122 -190l-176 -189l-53 54l115 134l-79 133zM349 457l124 -191l-89 -95l-89 -95l-53 54l57.5 67.5l58.5 67.5l-40 67l-39 67z" />
    <glyph glyph-name="onequarter" unicode="&#xbc;" horiz-adv-x="790" 
d="M722 361l-150 -263h78l12 81l98 14l-14 -95h37l-11 -78h-37l-17 -120h-96l17 120h-187l9 63l161 278h100zM307 678l-65.999 -465h-103l50 354l-40.5 -33c-13.667 -10.667 -27.167 -20.667 -40.5 -30l-31 66l83.5 64.5c26.333 19.667 47.166 34.167 62.499 43.5h85z
M281.001 11c-16.667 2 -33 4.16699 -49 6.5l-49 7.5l402 605l97 -13z" />
    <glyph glyph-name="onehalf" unicode="&#xbd;" horiz-adv-x="790" 
d="M307 678l-65.999 -465h-103l50 354l-40.5 -33c-13.667 -10.667 -27.167 -20.667 -40.5 -30l-31 66l83.5 64.5c26.333 19.667 47.166 34.167 62.499 43.5h85zM281.001 11c-16.667 2 -33 4.16699 -49 6.5l-49 7.5l402 605l97 -13zM754.001 -100h-274.998l11 77l45.5 42
c20.333 18.667 41.166 39.667 62.499 63s40.333 47.5 57 72.5s26.667 48.167 30 69.5s0.333008 36.5 -9 45.5s-24.333 13.5 -45 13.5c-16.667 0 -32.834 -2.16699 -48.501 -6.5s-26.167 -7.83301 -31.5 -10.5l-6 76c8.66699 4 23.834 9.5 45.501 16.5s47.167 10.5 76.5 10.5
c47.333 0 82.166 -11.167 104.499 -33.5s30.5 -54.833 24.5 -97.5c-3.33301 -24 -10.833 -47.167 -22.5 -69.5s-26 -43.833 -43 -64.5s-35.5 -40.5 -55.5 -59.5l-60 -54.5h152z" />
    <glyph glyph-name="threequarters" unicode="&#xbe;" horiz-adv-x="879" 
d="M132 658c7.33301 2.66699 21.5078 7 42.5078 13s47.167 9 78.5 9c46 0 80.667 -9.66699 104 -29s32.333 -48 27 -86c-4 -28 -13.833 -50.833 -29.5 -68.5s-33.167 -31.5 -52.5 -41.5c23.333 -6 41.333 -17.833 54 -35.5s16.667 -42.5 12 -74.5
c-7.33301 -50.667 -27.833 -87.167 -61.5 -109.5s-74.834 -33.5 -123.501 -33.5c-18.667 0 -35.334 1.66699 -50.001 5s-27.5 7.16602 -38.5 11.499s-19.833 8.33301 -26.5 12s-11.334 6.16699 -14.001 7.5l36 68c2 -1.33301 5.66699 -3.33301 11 -6s12 -5.5 20 -8.5
s17 -5.66699 27 -8s20.667 -3.5 32 -3.5c23.333 0 42.666 5.33301 57.999 16s24.666 28.667 27.999 54c3.33301 21.333 -1 36.5 -13 45.5s-29.667 13.5 -53 13.5c-10.667 0 -20.834 -0.166992 -30.501 -0.5s-16.5 -0.5 -20.5 -0.5l10 71h24c10.667 0 20.667 0.5 30 1.5
s18 3.16699 26 6.5c4.66699 1.33301 12.167 7.33301 22.5 18s17.166 25.334 20.499 44.001c2.66699 18.667 -1.5 32.167 -12.5 40.5s-26.833 12.5 -47.5 12.5c-19.333 0 -37.333 -2.33301 -54 -7s-26.334 -7.66699 -29.001 -9zM811.008 361l-150 -263h78l12 81l98 14
l-14 -95h37l-11 -78h-37l-17 -120h-96l17 120h-187l9 63l161 278h100zM370.008 11c-16.667 2 -33 4.16699 -49 6.5l-49 7.5l402 605l97 -13z" />
    <glyph glyph-name="questiondown" unicode="&#xbf;" horiz-adv-x="366" 
d="M330 -167l-20.001 -11.001c-8.66699 -4.66699 -19.667 -9.33398 -33 -14.001s-29.166 -8.66699 -47.499 -12s-38.833 -5 -61.5 -5c-26 0 -50 3.33301 -72 10s-40.667 16.834 -56 30.501s-26.5 31.167 -33.5 52.5s-8.5 47 -4.5 77c4 28 11.167 51.667 21.5 71
s22.166 36.333 35.499 51s27.5 27.834 42.5 39.501s29.167 23.834 42.5 36.501s24.833 26.5 34.5 41.5s16.167 33.167 19.5 54.5l1 6c6 0 14 0.333008 24 1s20.167 1.5 30.5 2.5l30.5 3c10 1 18 1.5 24 1.5c-0.666992 -3.33301 -1 -6.5 -1 -9.5v-9.5
c-3.33301 -24.667 -9.33301 -45.834 -18 -63.501s-18.5 -33.5 -29.5 -47.5s-22.5 -26.833 -34.5 -38.5s-23.333 -23.5 -34 -35.5s-20 -25 -28 -39s-13.333 -30.333 -16 -49c-3.33301 -23.333 0 -41 10 -53s28.333 -18 55 -18c12 0 23.833 1 35.5 3s22.334 4.5 32.001 7.5
s18 6 25 9l15.5 6.5zM350.999 435.999c-3.33301 -25.333 -13.3291 -45.5 -29.9961 -60.5s-35.334 -22.5 -56.001 -22.5c-21.333 0 -37.833 7.5 -49.5 22.5s-15.834 35.167 -12.501 60.5c3.33301 24.667 13.166 44.834 29.499 60.501s35.166 23.5 56.499 23.5
c20.667 0 37 -7.83301 49 -23.5s16.333 -35.834 13 -60.501z" />
    <glyph glyph-name="Agrave" unicode="&#xc0;" horiz-adv-x="553" 
d="M286 658h168l88 -658h-147l-14 114h-184l-46 -114h-140zM348 531l-22.5 -64.5l-29.5 -80l-32.5 -88l-32.5 -88.5h142c-2 28.667 -4.33301 58.167 -7 88.5l-7.5 88l-6.5 80c-2 25 -3.33301 46.5 -4 64.5zM375 938l116 -167l-66 -54l-135 148z" />
    <glyph glyph-name="Aacute" unicode="&#xc1;" horiz-adv-x="553" 
d="M286 658h168l88 -658h-147l-14 114h-184l-46 -114h-140zM348 531l-22.5 -64.5l-29.5 -80l-32.5 -88l-32.5 -88.5h142c-2 28.667 -4.33301 58.167 -7 88.5l-7.5 88l-6.5 80c-2 25 -3.33301 46.5 -4 64.5zM505 865l-89 -74l-89 -74l-50 54l162 167z" />
    <glyph glyph-name="Acircumflex" unicode="&#xc2;" horiz-adv-x="553" 
d="M286 658h168l88 -658h-147l-14 114h-184l-46 -114h-140zM348 531l-22.5 -64.5l-29.5 -80l-32.5 -88l-32.5 -88.5h142c-2 28.667 -4.33301 58.167 -7 88.5l-7.5 88l-6.5 80c-2 25 -3.33301 46.5 -4 64.5zM545 816l-59 -71l-95 77l-118 -77l-38 70l135 113h65z" />
    <glyph glyph-name="Atilde" unicode="&#xc3;" horiz-adv-x="553" 
d="M286 658h168l88 -658h-147l-14 114h-184l-46 -114h-140zM348 531l-22.5 -64.5l-29.5 -80l-32.5 -88l-32.5 -88.5h142c-2 28.667 -4.33301 58.167 -7 88.5l-7.5 88l-6.5 80c-2 25 -3.33301 46.5 -4 64.5zM579 842c-6.66699 -7.33301 -14.1689 -16.1699 -22.502 -26.5029
s-18 -20.5 -29 -30.5s-23.167 -18.5 -36.5 -25.5s-28.333 -10.5 -45 -10.5c-14 0 -26.167 2 -36.5 6s-20.333 8.5 -30 13.5l-28 14c-9 4.33301 -18.833 6.5 -29.5 6.5c-8 0 -16 -1.33301 -24 -4s-15.333 -6 -22 -10s-12.667 -8 -18 -12s-9 -7.33301 -11 -10l-44 45
c6.66699 6.66699 14.5 15.334 23.5 26.001s19 20.667 30 30s23.333 17.5 37 24.5s28.834 10.5 45.501 10.5c14 0 26.333 -2.16699 37 -6.5s20.5 -9.16602 29.5 -14.499s18 -10.166 27 -14.499s18.833 -6.5 29.5 -6.5c8 0 15.833 1.5 23.5 4.5s14.834 6.5 21.501 10.5
s12.167 7.83301 16.5 11.5s7.5 6.5 9.5 8.5z" />
    <glyph glyph-name="Adieresis" unicode="&#xc4;" horiz-adv-x="553" 
d="M286 658h168l88 -658h-147l-14 114h-184l-46 -114h-140zM348 531l-22.5 -64.5l-29.5 -80l-32.5 -88l-32.5 -88.5h142c-2 28.667 -4.33301 58.167 -7 88.5l-7.5 88l-6.5 80c-2 25 -3.33301 46.5 -4 64.5zM553 816c-3.33301 -22.667 -12.499 -41 -27.499 -55
s-32.167 -21 -51.5 -21s-34.333 7 -45 21s-14.334 32.333 -11.001 55s12.333 41 27 55s31.667 21 51 21s34.5 -7 45.5 -21s14.833 -32.333 11.5 -55zM361.001 816c-3.33301 -22.667 -12.167 -41 -26.5 -55s-31.166 -21 -50.499 -21s-34.5 7 -45.5 21
s-14.833 32.333 -11.5 55s12.5 41 27.5 55s32.167 21 51.5 21s34.166 -7 44.499 -21s13.833 -32.333 10.5 -55z" />
    <glyph glyph-name="Aring" unicode="&#xc5;" horiz-adv-x="553" 
d="M286 658h168l88 -658h-147l-14 114h-184l-46 -114h-140zM348 531l-22.5 -64.5l-29.5 -80l-32.5 -88l-32.5 -88.5h142c-2 28.667 -4.33301 58.167 -7 88.5l-7.5 88l-6.5 80c-2 25 -3.33301 46.5 -4 64.5zM501 854c-2 -16.667 -6.66602 -32 -13.999 -46
s-16.5 -26.167 -27.5 -36.5s-23.333 -18.333 -37 -24s-28.167 -8.5 -43.5 -8.5c-31.333 0 -55.333 10.833 -72 32.5s-22.667 49.167 -18 82.5c4.66699 32.667 18.5 59.667 41.5 81s49.833 32 80.5 32c14.667 0 28 -2.83301 40 -8.5s22.167 -13.5 30.5 -23.5
s14.166 -22 17.499 -36s4 -29 2 -45zM439.001 854c2.66699 15.333 0.668945 27.833 -5.99805 37.5s-16.667 14.5 -30 14.5s-24.833 -4.83301 -34.5 -14.5s-15.834 -22.167 -18.501 -37.5c-2 -15.333 0.5 -28 7.5 -38s17.167 -15 30.5 -15s24.666 5 33.999 15
s15 22.667 17 38z" />
    <glyph glyph-name="AE" unicode="&#xc6;" horiz-adv-x="687" 
d="M292 0l16 114h-111l-46 -114h-140l275 658h454l-16 -113h-216l-21 -152h164l-15 -106h-164l-25 -174h216l-15 -113h-356zM348 531l-22.5 -64.5l-29.5 -80l-32.5 -88l-32.5 -88.5h90l45 321h-18z" />
    <glyph glyph-name="Ccedilla" unicode="&#xc7;" horiz-adv-x="477" 
d="M224 328c-5.33301 -39.333 -7.83398 -73.5 -7.50098 -102.5s4.83301 -53 13.5 -72s21.667 -33.333 39 -43s40.333 -14.5 69 -14.5c24 0 46.333 3.16699 67 9.5s36.334 11.5 47.001 15.5c0.666992 -17.333 1.16699 -34.833 1.5 -52.5s1.16602 -35.167 2.49902 -52.5
c-4.66699 -1.33301 -11.5 -3.66602 -20.5 -6.99902s-20.333 -6.83301 -34 -10.5s-29.167 -6.83398 -46.5 -9.50098s-36.333 -4 -57 -4c-89.333 0 -152.333 28.167 -189 84.5s-46.667 142.5 -30 258.5c16 116 50.333 202.167 103 258.5s123.667 84.5 213 84.5
c20.667 0 39.334 -1.33301 56.001 -4s31.167 -5.83398 43.5 -9.50098s22.5 -7.16699 30.5 -10.5s14 -5.66602 18 -6.99902l-33 -105c-9.33301 4 -23.5 9.16699 -42.5 15.5s-40.5 9.5 -64.5 9.5c-28.667 0 -53 -4.83301 -73 -14.5s-37 -24 -51 -43s-25.333 -43.167 -34 -72.5
s-15.667 -63.333 -21 -102zM297.999 2c-1.33301 -4 -3.99707 -9.33105 -7.99707 -15.998s-5.33301 -13.667 -4 -21c0 -2 4 -4.66699 12 -8c7.33301 -4 14.833 -8.5 22.5 -13.5s14.5 -11.5 20.5 -19.5s10.5 -17.333 13.5 -28s3.5 -23.334 1.5 -38.001
c-4.66699 -32 -19.167 -56.333 -43.5 -73s-53.5 -25 -87.5 -25c-12 0 -22.833 1.5 -32.5 4.5s-18.167 6.5 -25.5 10.5s-13.333 7.83301 -18 11.5s-8 6.16699 -10 7.5l34 52c3.33301 -1.33301 9 -5 17 -11s17.667 -9 29 -9c12.667 0 23.334 3 32.001 9s13.667 15 15 27
c1.33301 8.66699 -1.83398 15.667 -9.50098 21s-15.834 10.166 -24.501 14.499s-16.334 8.5 -23.001 12.5s-8.33398 9.66699 -5.00098 17l34 75h60z" />
    <glyph glyph-name="Egrave" unicode="&#xc8;" horiz-adv-x="450" 
d="M62 0l92 658h356l-16 -113h-216l-21 -152h164l-15 -106h-164l-25 -174h216l-15 -113h-356zM324 938l116 -167l-66 -54l-135 148z" />
    <glyph glyph-name="Eacute" unicode="&#xc9;" horiz-adv-x="450" 
d="M62 0l92 658h356l-16 -113h-216l-21 -152h164l-15 -106h-164l-25 -174h216l-15 -113h-356zM495 865l-89 -74l-89 -74l-50 54l162 167z" />
    <glyph glyph-name="Ecircumflex" unicode="&#xca;" horiz-adv-x="450" 
d="M62 0l92 658h356l-16 -113h-216l-21 -152h164l-15 -106h-164l-25 -174h216l-15 -113h-356zM494 816l-59 -71l-95 77l-118 -77l-38 70l135 113h65z" />
    <glyph glyph-name="Edieresis" unicode="&#xcb;" horiz-adv-x="450" 
d="M62 0l92 658h356l-16 -113h-216l-21 -152h164l-15 -106h-164l-25 -174h216l-15 -113h-356zM502 816c-3.33301 -22.667 -12.499 -41 -27.499 -55s-32.167 -21 -51.5 -21s-34.333 7 -45 21s-14.334 32.333 -11.001 55s12.333 41 27 55s31.667 21 51 21s34.5 -7 45.5 -21
s14.833 -32.333 11.5 -55zM310.001 816c-3.33301 -22.667 -12.167 -41 -26.5 -55s-31.166 -21 -50.499 -21s-34.5 7 -45.5 21s-14.833 32.333 -11.5 55s12.5 41 27.5 55s32.167 21 51.5 21s34.166 -7 44.499 -21s13.833 -32.333 10.5 -55z" />
    <glyph glyph-name="Igrave" unicode="&#xcc;" horiz-adv-x="264" 
d="M201 0h-139l92 658h139zM233 938l116 -167l-66 -54l-135 148z" />
    <glyph glyph-name="Iacute" unicode="&#xcd;" horiz-adv-x="264" 
d="M201 0h-139l92 658h139zM363 865l-89 -74l-89 -74l-50 54l162 167z" />
    <glyph glyph-name="Icircumflex" unicode="&#xce;" horiz-adv-x="264" 
d="M201 0h-139l92 658h139zM403 816l-59 -71l-95 77l-118 -77l-38 70l135 113h65z" />
    <glyph glyph-name="Idieresis" unicode="&#xcf;" horiz-adv-x="264" 
d="M201 0h-139l92 658h139zM411 816c-3.33301 -22.667 -12.499 -41 -27.499 -55s-32.167 -21 -51.5 -21s-34.333 7 -45 21s-14.334 32.333 -11.001 55s12.333 41 27 55s31.667 21 51 21s34.5 -7 45.5 -21s14.833 -32.333 11.5 -55zM219.001 816
c-3.33301 -22.667 -12.167 -41 -26.5 -55s-31.166 -21 -50.499 -21s-34.5 7 -45.5 21s-14.833 32.333 -11.5 55s12.5 41 27.5 55s32.167 21 51.5 21s34.166 -7 44.499 -21s13.833 -32.333 10.5 -55z" />
    <glyph glyph-name="Eth" unicode="&#xd0;" horiz-adv-x="556" 
d="M154 658c16 0 39.333 1 70 3s65.667 3 105 3c46 0 86.167 -4.83301 120.5 -14.5s62 -27 83 -52s34.667 -59.167 41 -102.5s4.83301 -99 -4.5 -167c-9.33301 -66.667 -23.333 -121.5 -42 -164.5s-42 -77.167 -70 -102.5s-60.5 -43 -97.5 -53s-78.5 -15 -124.5 -15
c-38.667 0 -73.167 1.16699 -103.5 3.5s-53.5 3.5 -69.5 3.5zM263 102c46 0 82.001 18.833 108.001 56.5s44.333 94.167 55 169.5c11.333 78.667 9.16602 136.167 -6.50098 172.5s-46.834 54.5 -93.501 54.5c-7.33301 0 -15.166 -0.166992 -23.499 -0.5
s-16.5 -0.833008 -24.5 -1.5l-63 -450c7.33301 -0.666992 15 -1 23 -1h25zM284.001 270h-247l16 108h247z" />
    <glyph glyph-name="Ntilde" unicode="&#xd1;" horiz-adv-x="578" 
d="M516 0l-123.999 0.000976562l-152 415h-1c-1.33301 -6.66699 -2.33301 -16.834 -3 -30.501s-2.33398 -28.167 -5.00098 -43.5l-47 -341h-122l92 658h125l75 -206.5l75 -206.5h2c1.33301 6.66699 2.33301 17 3 31s2 28 4 42l48 340h122zM591.001 842.001
c-6.66699 -7.33301 -14.1689 -16.1699 -22.502 -26.5029s-18 -20.5 -29 -30.5s-23.167 -18.5 -36.5 -25.5s-28.333 -10.5 -45 -10.5c-14 0 -26.167 2 -36.5 6s-20.333 8.5 -30 13.5l-28 14c-9 4.33301 -18.833 6.5 -29.5 6.5c-8 0 -16 -1.33301 -24 -4s-15.333 -6 -22 -10
s-12.667 -8 -18 -12s-9 -7.33301 -11 -10l-44 45c6.66699 6.66699 14.5 15.334 23.5 26.001s19 20.667 30 30s23.333 17.5 37 24.5s28.834 10.5 45.501 10.5c14 0 26.333 -2.16699 37 -6.5s20.5 -9.16602 29.5 -14.499s18 -10.166 27 -14.499s18.833 -6.5 29.5 -6.5
c8 0 15.833 1.5 23.5 4.5s14.834 6.5 21.501 10.5s12.167 7.83301 16.5 11.5s7.5 6.5 9.5 8.5z" />
    <glyph glyph-name="Ograve" unicode="&#xd2;" horiz-adv-x="570" 
d="M582 329c-16.667 -116.667 -50.667 -202.834 -102 -258.501s-117.333 -83.5 -198 -83.5s-138.834 27.833 -174.501 83.5s-45.167 141.834 -28.5 258.501c16 116.667 49.667 202.667 101 258s117.333 83 198 83s138.834 -27.667 174.501 -83s45.5 -141.333 29.5 -258z
M440 329c10 73.333 9.16699 130 -2.5 170s-36.834 60 -75.501 60c-38 0 -68.333 -20 -91 -60s-39 -96.667 -49 -170c-10.667 -73.333 -10.5 -130.166 0.5 -170.499s35.833 -60.5 74.5 -60.5c39.333 0 70.333 20.167 93 60.5s39.334 97.166 50.001 170.499zM341 938l116 -167
l-66 -54l-135 148z" />
    <glyph glyph-name="Oacute" unicode="&#xd3;" horiz-adv-x="570" 
d="M582 329c-16.667 -116.667 -50.667 -202.834 -102 -258.501s-117.333 -83.5 -198 -83.5s-138.834 27.833 -174.501 83.5s-45.167 141.834 -28.5 258.501c16 116.667 49.667 202.667 101 258s117.333 83 198 83s138.834 -27.667 174.501 -83s45.5 -141.333 29.5 -258z
M440 329c10 73.333 9.16699 130 -2.5 170s-36.834 60 -75.501 60c-38 0 -68.333 -20 -91 -60s-39 -96.667 -49 -170c-10.667 -73.333 -10.5 -130.166 0.5 -170.499s35.833 -60.5 74.5 -60.5c39.333 0 70.333 20.167 93 60.5s39.334 97.166 50.001 170.499zM554 865l-89 -74
l-89 -74l-50 54l162 167z" />
    <glyph glyph-name="Ocircumflex" unicode="&#xd4;" horiz-adv-x="570" 
d="M582 329c-16.667 -116.667 -50.667 -202.834 -102 -258.501s-117.333 -83.5 -198 -83.5s-138.834 27.833 -174.501 83.5s-45.167 141.834 -28.5 258.501c16 116.667 49.667 202.667 101 258s117.333 83 198 83s138.834 -27.667 174.501 -83s45.5 -141.333 29.5 -258z
M440 329c10 73.333 9.16699 130 -2.5 170s-36.834 60 -75.501 60c-38 0 -68.333 -20 -91 -60s-39 -96.667 -49 -170c-10.667 -73.333 -10.5 -130.166 0.5 -170.499s35.833 -60.5 74.5 -60.5c39.333 0 70.333 20.167 93 60.5s39.334 97.166 50.001 170.499zM554 816l-59 -71
l-95 77l-118 -77l-38 70l135 113h65z" />
    <glyph glyph-name="Otilde" unicode="&#xd5;" horiz-adv-x="570" 
d="M582 329c-16.667 -116.667 -50.667 -202.834 -102 -258.501s-117.333 -83.5 -198 -83.5s-138.834 27.833 -174.501 83.5s-45.167 141.834 -28.5 258.501c16 116.667 49.667 202.667 101 258s117.333 83 198 83s138.834 -27.667 174.501 -83s45.5 -141.333 29.5 -258z
M440 329c10 73.333 9.16699 130 -2.5 170s-36.834 60 -75.501 60c-38 0 -68.333 -20 -91 -60s-39 -96.667 -49 -170c-10.667 -73.333 -10.5 -130.166 0.5 -170.499s35.833 -60.5 74.5 -60.5c39.333 0 70.333 20.167 93 60.5s39.334 97.166 50.001 170.499zM587 842
c-6.66699 -7.33301 -14.1689 -16.1699 -22.502 -26.5029s-18 -20.5 -29 -30.5s-23.167 -18.5 -36.5 -25.5s-28.333 -10.5 -45 -10.5c-14 0 -26.167 2 -36.5 6s-20.333 8.5 -30 13.5l-28 14c-9 4.33301 -18.833 6.5 -29.5 6.5c-8 0 -16 -1.33301 -24 -4s-15.333 -6 -22 -10
s-12.667 -8 -18 -12s-9 -7.33301 -11 -10l-44 45c6.66699 6.66699 14.5 15.334 23.5 26.001s19 20.667 30 30s23.333 17.5 37 24.5s28.834 10.5 45.501 10.5c14 0 26.333 -2.16699 37 -6.5s20.5 -9.16602 29.5 -14.499s18 -10.166 27 -14.499s18.833 -6.5 29.5 -6.5
c8 0 15.833 1.5 23.5 4.5s14.834 6.5 21.501 10.5s12.167 7.83301 16.5 11.5s7.5 6.5 9.5 8.5z" />
    <glyph glyph-name="Odieresis" unicode="&#xd6;" horiz-adv-x="570" 
d="M582 329c-16.667 -116.667 -50.667 -202.834 -102 -258.501s-117.333 -83.5 -198 -83.5s-138.834 27.833 -174.501 83.5s-45.167 141.834 -28.5 258.501c16 116.667 49.667 202.667 101 258s117.333 83 198 83s138.834 -27.667 174.501 -83s45.5 -141.333 29.5 -258z
M440 329c10 73.333 9.16699 130 -2.5 170s-36.834 60 -75.501 60c-38 0 -68.333 -20 -91 -60s-39 -96.667 -49 -170c-10.667 -73.333 -10.5 -130.166 0.5 -170.499s35.833 -60.5 74.5 -60.5c39.333 0 70.333 20.167 93 60.5s39.334 97.166 50.001 170.499zM562 816
c-3.33301 -22.667 -12.499 -41 -27.499 -55s-32.167 -21 -51.5 -21s-34.333 7 -45 21s-14.334 32.333 -11.001 55s12.333 41 27 55s31.667 21 51 21s34.5 -7 45.5 -21s14.833 -32.333 11.5 -55zM370.001 816c-3.33301 -22.667 -12.167 -41 -26.5 -55
s-31.166 -21 -50.499 -21s-34.5 7 -45.5 21s-14.833 32.333 -11.5 55s12.5 41 27.5 55s32.167 21 51.5 21s34.166 -7 44.499 -21s13.833 -32.333 10.5 -55z" />
    <glyph glyph-name="Oslash" unicode="&#xd8;" horiz-adv-x="570" 
d="M574 538c17.333 -53.333 20.001 -122.999 8.00098 -208.999c-16.667 -116.667 -50.667 -202.834 -102 -258.501s-117.333 -83.5 -198 -83.5c-56.667 0 -102.334 13.333 -137.001 40l-50 -60l-80 62l72 86c-18 54.667 -20.667 126 -8 214
c16 116.667 49.667 202.667 101 258s117.333 83 198 83c58.667 0 105 -14 139 -42l49 58l80 -62zM222.001 329.001c-1.33301 -11.333 -2.66699 -22 -4 -32s-2.33301 -19.667 -3 -29l213 253c-15.333 25.333 -37.333 38 -66 38c-38 0 -68.333 -20 -91 -60
s-39 -96.667 -49 -170zM440 329.001c1.33301 10 2.33203 19.668 2.99902 29.001s1.66699 18.333 3 27l-213 -252c14 -23.333 35.333 -35 64 -35c39.333 0 70.333 20.167 93 60.5s39.334 97.166 50.001 170.499z" />
    <glyph glyph-name="Ugrave" unicode="&#xd9;" horiz-adv-x="554" 
d="M146 658h138.999l-49 -349c-5.33301 -36.667 -9.16602 -68.167 -11.499 -94.5s-1.83301 -48.166 1.5 -65.499s10 -30.166 20 -38.499s24.667 -12.5 44 -12.5s35.166 4.16699 47.499 12.5s22.5 21.166 30.5 38.499s14.5 39.166 19.5 65.499s10.167 57.833 15.5 94.5
l49 349h137l-49 -349c-8 -58 -18.833 -107.5 -32.5 -148.5s-31 -74.333 -52 -100s-46.167 -44.334 -75.5 -56.001s-64.333 -17.5 -105 -17.5c-40 0 -73.333 5.83301 -100 17.5s-47.167 30.334 -61.5 56.001s-22.666 59 -24.999 100s0.5 90.5 8.5 148.5zM330.999 938
l116 -167l-66 -54l-135 148z" />
    <glyph glyph-name="Uacute" unicode="&#xda;" horiz-adv-x="554" 
d="M146 658h138.999l-49 -349c-5.33301 -36.667 -9.16602 -68.167 -11.499 -94.5s-1.83301 -48.166 1.5 -65.499s10 -30.166 20 -38.499s24.667 -12.5 44 -12.5s35.166 4.16699 47.499 12.5s22.5 21.166 30.5 38.499s14.5 39.166 19.5 65.499s10.167 57.833 15.5 94.5
l49 349h137l-49 -349c-8 -58 -18.833 -107.5 -32.5 -148.5s-31 -74.333 -52 -100s-46.167 -44.334 -75.5 -56.001s-64.333 -17.5 -105 -17.5c-40 0 -73.333 5.83301 -100 17.5s-47.167 30.334 -61.5 56.001s-22.666 59 -24.999 100s0.5 90.5 8.5 148.5zM556.999 865l-89 -74
l-89 -74l-50 54l162 167z" />
    <glyph glyph-name="Ucircumflex" unicode="&#xdb;" horiz-adv-x="554" 
d="M146 658h138.999l-49 -349c-5.33301 -36.667 -9.16602 -68.167 -11.499 -94.5s-1.83301 -48.166 1.5 -65.499s10 -30.166 20 -38.499s24.667 -12.5 44 -12.5s35.166 4.16699 47.499 12.5s22.5 21.166 30.5 38.499s14.5 39.166 19.5 65.499s10.167 57.833 15.5 94.5
l49 349h137l-49 -349c-8 -58 -18.833 -107.5 -32.5 -148.5s-31 -74.333 -52 -100s-46.167 -44.334 -75.5 -56.001s-64.333 -17.5 -105 -17.5c-40 0 -73.333 5.83301 -100 17.5s-47.167 30.334 -61.5 56.001s-22.666 59 -24.999 100s0.5 90.5 8.5 148.5zM545.999 816l-59 -71
l-95 77l-118 -77l-38 70l135 113h65z" />
    <glyph glyph-name="Udieresis" unicode="&#xdc;" horiz-adv-x="554" 
d="M146 658h138.999l-49 -349c-5.33301 -36.667 -9.16602 -68.167 -11.499 -94.5s-1.83301 -48.166 1.5 -65.499s10 -30.166 20 -38.499s24.667 -12.5 44 -12.5s35.166 4.16699 47.499 12.5s22.5 21.166 30.5 38.499s14.5 39.166 19.5 65.499s10.167 57.833 15.5 94.5
l49 349h137l-49 -349c-8 -58 -18.833 -107.5 -32.5 -148.5s-31 -74.333 -52 -100s-46.167 -44.334 -75.5 -56.001s-64.333 -17.5 -105 -17.5c-40 0 -73.333 5.83301 -100 17.5s-47.167 30.334 -61.5 56.001s-22.666 59 -24.999 100s0.5 90.5 8.5 148.5zM553.999 816
c-3.33301 -22.667 -12.499 -41 -27.499 -55s-32.167 -21 -51.5 -21s-34.333 7 -45 21s-14.334 32.333 -11.001 55s12.333 41 27 55s31.667 21 51 21s34.5 -7 45.5 -21s14.833 -32.333 11.5 -55zM362 816c-3.33301 -22.667 -12.167 -41 -26.5 -55s-31.166 -21 -50.499 -21
s-34.5 7 -45.5 21s-14.833 32.333 -11.5 55s12.5 41 27.5 55s32.167 21 51.5 21s34.166 -7 44.499 -21s13.833 -32.333 10.5 -55z" />
    <glyph glyph-name="Yacute" unicode="&#xdd;" horiz-adv-x="528" 
d="M334 0l-139 -0.00195312l30 217l-12 40l-62 200l-61 201h149l22 -93.5l21 -90c6.66699 -28.333 12.5 -54.166 17.5 -77.499s9.16699 -41.666 12.5 -54.999l27.5 55l39 77.5l46 90l48.5 93.5h149l-118 -201l-117 -200l-23 -40zM492 864.998l-89 -74l-89 -74l-50 54
l162 167z" />
    <glyph glyph-name="Thorn" unicode="&#xde;" horiz-adv-x="496" 
d="M276 559c6 0.666992 11.999 1.00195 17.999 1.00195h18c42.667 0 78.334 -4.83301 107.001 -14.5s51.167 -24 67.5 -43s26.833 -42.5 31.5 -70.5s4.66699 -60.333 0 -97c-6 -42 -16.833 -77.333 -32.5 -106s-35 -51.834 -58 -69.501s-48.833 -30.334 -77.5 -38.001
s-59 -11.5 -91 -11.5c-16.667 0 -32 1 -46 3l-15 -113h-136l92 658h136zM301.999 453.002l-19.501 0.000976562c-7 0 -14.167 -0.333008 -21.5 -1l-33 -237c5.33301 -0.666992 11 -1 17 -1h19c28.667 0 53.167 8.66699 73.5 26s33.5 48.666 39.5 93.999
c6 40.667 2.33301 70.667 -11 90s-34.666 29 -63.999 29z" />
    <glyph glyph-name="germandbls" unicode="&#xdf;" horiz-adv-x="536" 
d="M184 0l-134.997 0.00292969l75 535c5.33301 38.667 14.833 71.667 28.5 99s30.834 49.666 51.501 66.999s44 29.833 70 37.5s54.333 11.5 85 11.5c59.333 0 102.833 -13.333 130.5 -40s37.167 -70 28.5 -130c-3.33301 -22.667 -9.33301 -42.167 -18 -58.5
s-18.167 -30.833 -28.5 -43.5s-20.666 -24.334 -30.999 -35.001s-18.5 -22 -24.5 -34c8 -12 19.667 -24.5 35 -37.5s30.166 -28 44.499 -45s26 -36.833 35 -59.5s11.5 -50 7.5 -82c-9.33301 -62.667 -31.833 -111.167 -67.5 -145.5s-81.5 -51.5 -137.5 -51.5
c-30.667 0 -54.667 3.83301 -72 11.5l-40 17.5l30 88c4.66699 -1.33301 12.5 -4.5 23.5 -9.5s25.167 -7.5 42.5 -7.5c19.333 0 35.333 5.5 48 16.5s20.667 29.5 24 55.5c2 14 2.66699 28.167 2 42.5s-3.83398 27.666 -9.50098 39.999s-14.167 23 -25.5 32
s-26.333 14.833 -45 17.5c-8.66699 16 -15.834 33.167 -21.501 51.5s-6.83398 39.833 -3.50098 64.5c1.33301 12 6.66602 22.667 15.999 32l31 30.5c11.333 11 22 23.833 32 38.5s16.667 33.667 20 57c3.33301 25.333 1.5 45 -5.5 59s-20.167 21 -39.5 21
c-23.333 0 -41.333 -8.5 -54 -25.5s-22 -46.167 -28 -87.5z" />
    <glyph glyph-name="agrave" unicode="&#xe0;" 
d="M460 0l-113.999 -0.00195312v60c-9.33301 -8.66699 -19.666 -17.167 -30.999 -25.5s-23.833 -16 -37.5 -23s-28.167 -12.667 -43.5 -17s-31.333 -6.5 -48 -6.5c-22 0 -42.167 4.83301 -60.5 14.5s-33.333 24.834 -45 45.501s-19.5 47.334 -23.5 80.001s-2.66699 72 4 118
c7.33301 51.333 19.166 94.666 35.499 129.999s35.666 63.833 57.999 85.5s46.833 37.334 73.5 47.001s54 14.5 82 14.5c34 0 70.667 -2 110 -6s76 -9.33301 110 -16zM259.001 100.998c17.333 0 33.8311 5.16699 49.498 15.5s28.167 21.166 37.5 32.499l38 268
c-9.33301 0.666992 -19.166 1.33398 -29.499 2.00098s-21.166 1 -32.499 1c-32.667 0 -58.5 -12 -77.5 -36s-32.833 -66 -41.5 -126c-4 -30 -5.83301 -55 -5.5 -75s3 -36.167 8 -48.5s12 -21 21 -26s19.833 -7.5 32.5 -7.5zM304.999 793.998l116 -167l-66 -54l-135 148z" />
    <glyph glyph-name="aacute" unicode="&#xe1;" 
d="M460 0l-113.999 -0.00195312v60c-9.33301 -8.66699 -19.666 -17.167 -30.999 -25.5s-23.833 -16 -37.5 -23s-28.167 -12.667 -43.5 -17s-31.333 -6.5 -48 -6.5c-22 0 -42.167 4.83301 -60.5 14.5s-33.333 24.834 -45 45.501s-19.5 47.334 -23.5 80.001s-2.66699 72 4 118
c7.33301 51.333 19.166 94.666 35.499 129.999s35.666 63.833 57.999 85.5s46.833 37.334 73.5 47.001s54 14.5 82 14.5c34 0 70.667 -2 110 -6s76 -9.33301 110 -16zM259.001 100.998c17.333 0 33.8311 5.16699 49.498 15.5s28.167 21.166 37.5 32.499l38 268
c-9.33301 0.666992 -19.166 1.33398 -29.499 2.00098s-21.166 1 -32.499 1c-32.667 0 -58.5 -12 -77.5 -36s-32.833 -66 -41.5 -126c-4 -30 -5.83301 -55 -5.5 -75s3 -36.167 8 -48.5s12 -21 21 -26s19.833 -7.5 32.5 -7.5zM492.999 720.998l-89 -74l-89 -74l-50 54l162 167
z" />
    <glyph glyph-name="acircumflex" unicode="&#xe2;" 
d="M460 0l-113.999 -0.00195312v60c-9.33301 -8.66699 -19.666 -17.167 -30.999 -25.5s-23.833 -16 -37.5 -23s-28.167 -12.667 -43.5 -17s-31.333 -6.5 -48 -6.5c-22 0 -42.167 4.83301 -60.5 14.5s-33.333 24.834 -45 45.501s-19.5 47.334 -23.5 80.001s-2.66699 72 4 118
c7.33301 51.333 19.166 94.666 35.499 129.999s35.666 63.833 57.999 85.5s46.833 37.334 73.5 47.001s54 14.5 82 14.5c34 0 70.667 -2 110 -6s76 -9.33301 110 -16zM259.001 100.998c17.333 0 33.8311 5.16699 49.498 15.5s28.167 21.166 37.5 32.499l38 268
c-9.33301 0.666992 -19.166 1.33398 -29.499 2.00098s-21.166 1 -32.499 1c-32.667 0 -58.5 -12 -77.5 -36s-32.833 -66 -41.5 -126c-4 -30 -5.83301 -55 -5.5 -75s3 -36.167 8 -48.5s12 -21 21 -26s19.833 -7.5 32.5 -7.5zM503.999 671.998l-59 -71l-95 77l-118 -77l-38 70
l135 113h65z" />
    <glyph glyph-name="atilde" unicode="&#xe3;" 
d="M460 0l-113.999 -0.00195312v60c-9.33301 -8.66699 -19.666 -17.167 -30.999 -25.5s-23.833 -16 -37.5 -23s-28.167 -12.667 -43.5 -17s-31.333 -6.5 -48 -6.5c-22 0 -42.167 4.83301 -60.5 14.5s-33.333 24.834 -45 45.501s-19.5 47.334 -23.5 80.001s-2.66699 72 4 118
c7.33301 51.333 19.166 94.666 35.499 129.999s35.666 63.833 57.999 85.5s46.833 37.334 73.5 47.001s54 14.5 82 14.5c34 0 70.667 -2 110 -6s76 -9.33301 110 -16zM259.001 100.998c17.333 0 33.8311 5.16699 49.498 15.5s28.167 21.166 37.5 32.499l38 268
c-9.33301 0.666992 -19.166 1.33398 -29.499 2.00098s-21.166 1 -32.499 1c-32.667 0 -58.5 -12 -77.5 -36s-32.833 -66 -41.5 -126c-4 -30 -5.83301 -55 -5.5 -75s3 -36.167 8 -48.5s12 -21 21 -26s19.833 -7.5 32.5 -7.5zM537.999 697.998
c-6.66699 -7.33301 -14.1689 -16.1699 -22.502 -26.5029s-18 -20.5 -29 -30.5s-23.167 -18.5 -36.5 -25.5s-28.333 -10.5 -45 -10.5c-14 0 -26.167 2 -36.5 6s-20.333 8.5 -30 13.5l-28 14c-9 4.33301 -18.833 6.5 -29.5 6.5c-8 0 -16 -1.33301 -24 -4s-15.333 -6 -22 -10
s-12.667 -8 -18 -12s-9 -7.33301 -11 -10l-44 45c6.66699 6.66699 14.5 15.334 23.5 26.001s19 20.667 30 30s23.333 17.5 37 24.5s28.834 10.5 45.501 10.5c14 0 26.333 -2.16699 37 -6.5s20.5 -9.16602 29.5 -14.499s18 -10.166 27 -14.499s18.833 -6.5 29.5 -6.5
c8 0 15.833 1.5 23.5 4.5s14.834 6.5 21.501 10.5s12.167 7.83301 16.5 11.5s7.5 6.5 9.5 8.5z" />
    <glyph glyph-name="adieresis" unicode="&#xe4;" 
d="M460 0l-113.999 -0.00195312v60c-9.33301 -8.66699 -19.666 -17.167 -30.999 -25.5s-23.833 -16 -37.5 -23s-28.167 -12.667 -43.5 -17s-31.333 -6.5 -48 -6.5c-22 0 -42.167 4.83301 -60.5 14.5s-33.333 24.834 -45 45.501s-19.5 47.334 -23.5 80.001s-2.66699 72 4 118
c7.33301 51.333 19.166 94.666 35.499 129.999s35.666 63.833 57.999 85.5s46.833 37.334 73.5 47.001s54 14.5 82 14.5c34 0 70.667 -2 110 -6s76 -9.33301 110 -16zM259.001 100.998c17.333 0 33.8311 5.16699 49.498 15.5s28.167 21.166 37.5 32.499l38 268
c-9.33301 0.666992 -19.166 1.33398 -29.499 2.00098s-21.166 1 -32.499 1c-32.667 0 -58.5 -12 -77.5 -36s-32.833 -66 -41.5 -126c-4 -30 -5.83301 -55 -5.5 -75s3 -36.167 8 -48.5s12 -21 21 -26s19.833 -7.5 32.5 -7.5zM511.999 671.998
c-3.33301 -22.667 -12.499 -41 -27.499 -55s-32.167 -21 -51.5 -21s-34.333 7 -45 21s-14.334 32.333 -11.001 55s12.333 41 27 55s31.667 21 51 21s34.5 -7 45.5 -21s14.833 -32.333 11.5 -55zM320 671.998c-3.33301 -22.667 -12.167 -41 -26.5 -55
s-31.166 -21 -50.499 -21s-34.5 7 -45.5 21s-14.833 32.333 -11.5 55s12.5 41 27.5 55s32.167 21 51.5 21s34.166 -7 44.499 -21s13.833 -32.333 10.5 -55z" />
    <glyph glyph-name="aring" unicode="&#xe5;" 
d="M460 0l-113.999 -0.00195312v60c-9.33301 -8.66699 -19.666 -17.167 -30.999 -25.5s-23.833 -16 -37.5 -23s-28.167 -12.667 -43.5 -17s-31.333 -6.5 -48 -6.5c-22 0 -42.167 4.83301 -60.5 14.5s-33.333 24.834 -45 45.501s-19.5 47.334 -23.5 80.001s-2.66699 72 4 118
c7.33301 51.333 19.166 94.666 35.499 129.999s35.666 63.833 57.999 85.5s46.833 37.334 73.5 47.001s54 14.5 82 14.5c34 0 70.667 -2 110 -6s76 -9.33301 110 -16zM259.001 100.998c17.333 0 33.8311 5.16699 49.498 15.5s28.167 21.166 37.5 32.499l38 268
c-9.33301 0.666992 -19.166 1.33398 -29.499 2.00098s-21.166 1 -32.499 1c-32.667 0 -58.5 -12 -77.5 -36s-32.833 -66 -41.5 -126c-4 -30 -5.83301 -55 -5.5 -75s3 -36.167 8 -48.5s12 -21 21 -26s19.833 -7.5 32.5 -7.5zM459.999 709.998
c-2 -16.667 -6.66602 -32 -13.999 -46s-16.5 -26.167 -27.5 -36.5s-23.333 -18.333 -37 -24s-28.167 -8.5 -43.5 -8.5c-31.333 0 -55.333 10.833 -72 32.5s-22.667 49.167 -18 82.5c4.66699 32.667 18.5 59.667 41.5 81s49.833 32 80.5 32c14.667 0 28 -2.83301 40 -8.5
s22.167 -13.5 30.5 -23.5s14.166 -22 17.499 -36s4 -29 2 -45zM398 709.998c2.66699 15.333 0.668945 27.833 -5.99805 37.5s-16.667 14.5 -30 14.5s-24.833 -4.83301 -34.5 -14.5s-15.834 -22.167 -18.501 -37.5c-2 -15.333 0.5 -28 7.5 -38s17.167 -15 30.5 -15
s24.666 5 33.999 15s15 22.667 17 38z" />
    <glyph glyph-name="ae" unicode="&#xe6;" horiz-adv-x="714" 
d="M676 37c-4 -2.66699 -11.167 -6.66699 -21.5 -12s-23.333 -10.833 -39 -16.5s-33.834 -10.5 -54.501 -14.5s-43.334 -6 -68.001 -6c-30 0 -56.5 6.66699 -79.5 20s-40.5 35 -52.5 65c-27.333 -30 -58.5 -51.667 -93.5 -65s-71.5 -20 -109.5 -20c-18.667 0 -36 3 -52 9
s-29.333 15.333 -40 28s-18.167 28.667 -22.5 48s-4.5 42.666 -0.5 69.999c8.66699 64 34.667 109.5 78 136.5s105 40.5 185 40.5l23 -2l2 12c2.66699 20.667 2.83398 37.167 0.500977 49.5s-6.83301 21.833 -13.5 28.5s-15.167 11 -25.5 13s-21.833 3 -34.5 3
c-22.667 0 -46.167 -2.5 -70.5 -7.5s-43.5 -9.83301 -57.5 -14.5l-2 92c8 2.66699 18.167 5.83398 30.5 9.50098s25.833 7 40.5 10s30.167 5.66699 46.5 8s32.833 3.5 49.5 3.5c70 0 116 -22.333 138 -67c19.333 22.667 40.166 39.5 62.499 50.5s45.5 16.5 69.5 16.5
c28.667 0 54.167 -4.5 76.5 -13.5s40.833 -23.333 55.5 -43s24.667 -44.5 30 -74.5s5 -66 -1 -108c-2.66699 -18 -5.66699 -33.5 -9 -46.5s-5.66602 -20.833 -6.99902 -23.5h-261c-6 -44.667 -0.666992 -76.834 16 -96.501s39.334 -29.5 68.001 -29.5
c13.333 0 26.333 1.33301 39 4s24.5 5.83398 35.5 9.50098s21.167 7.5 30.5 11.5l23 10zM223 86c10.667 0 20.166 1.5 28.499 4.5s15.833 6.83301 22.5 11.5s12.334 9.5 17.001 14.5l12 12.5l16 113h-13.5c-4.33301 0 -8.83301 0.333008 -13.5 1c-38 0 -65.833 -6 -83.5 -18
s-28.834 -34 -33.501 -66c-3.33301 -23.333 -1.16602 -41.333 6.50098 -54s21.5 -19 41.5 -19zM550.999 429c-8.66699 0 -17.6689 -2.16797 -27.002 -6.50098s-18 -11.5 -26 -21.5s-15.333 -23.333 -22 -40s-11.667 -37 -15 -61h137c3.33301 25.333 4.5 46.333 3.5 63
s-3.66699 29.834 -8 39.501s-10.166 16.5 -17.499 20.5s-15.666 6 -24.999 6z" />
    <glyph glyph-name="ccedilla" unicode="&#xe7;" horiz-adv-x="385" 
d="M387 34c-5.33301 -2 -12.501 -5.49707 -21.501 -10.4971s-20 -10.167 -33 -15.5s-27.833 -10 -44.5 -14s-34.667 -6 -54 -6c-67.333 0 -115.833 21.167 -145.5 63.5s-38.5 108.166 -26.5 197.499c13.333 93.333 41.666 162.666 84.999 207.999s100.333 68 171 68
c28 0 52.333 -2.66699 73 -8s35.334 -9.66602 44.001 -12.999l-30 -99c-6 2.66699 -16.667 6 -32 10s-32 6 -50 6c-33.333 0 -59.666 -13.167 -78.999 -39.5s-33.333 -68.833 -42 -127.5c-4 -29.333 -5.33301 -54.333 -4 -75s5.16602 -37.334 11.499 -50.001
s14.833 -21.834 25.5 -27.501s23.334 -8.5 38.001 -8.5c10 0 20 1.16699 30 3.5s19.167 5 27.5 8s15.833 6 22.5 9s11.667 5.16699 15 6.5zM244.999 2.00293c-1.33301 -4 -3.99707 -9.33105 -7.99707 -15.998s-5.33301 -13.667 -4 -21c0 -2 4 -4.66699 12 -8
c7.33301 -4 14.833 -8.5 22.5 -13.5s14.5 -11.5 20.5 -19.5s10.5 -17.333 13.5 -28s3.5 -23.334 1.5 -38.001c-4.66699 -32 -19.167 -56.333 -43.5 -73s-53.5 -25 -87.5 -25c-12 0 -22.833 1.5 -32.5 4.5s-18.167 6.5 -25.5 10.5s-13.333 7.83301 -18 11.5
s-8 6.16699 -10 7.5l34 52c3.33301 -1.33301 9 -5 17 -11s17.667 -9 29 -9c12.667 0 23.334 3 32.001 9s13.667 15 15 27c1.33301 8.66699 -1.83398 15.667 -9.50098 21s-15.834 10.166 -24.501 14.499s-16.334 8.5 -23.001 12.5s-8.33398 9.66699 -5.00098 17l34 75h60z
" />
    <glyph glyph-name="egrave" unicode="&#xe8;" horiz-adv-x="457" 
d="M419 37c-4 -2.66699 -11.1689 -6.66602 -21.502 -11.999s-23.333 -10.833 -39 -16.5s-33.834 -10.5 -54.501 -14.5s-43.334 -6 -68.001 -6c-29.333 0 -56 4.83301 -80 14.5s-44 24.834 -60 45.501s-27.333 47 -34 79s-6.66699 70.667 0 116
c6.66699 48 17.834 89.667 33.501 125s34.5 64.666 56.5 87.999s46.333 40.666 73 51.999s54.334 17 83.001 17s54.167 -4.5 76.5 -13.5s40.833 -23.333 55.5 -43s24.667 -44.5 30 -74.5s5 -66 -1 -108c-2.66699 -18 -5.66699 -33.5 -9 -46.5
s-5.66602 -20.833 -6.99902 -23.5h-261c-6 -44.667 -0.666992 -76.834 16 -96.501s39.334 -29.5 68.001 -29.5c13.333 0 26.333 1.33301 39 4s24.5 5.83398 35.5 9.50098s21.167 7.5 30.5 11.5l23 10zM293.998 429.001c-8.66699 0 -17.6689 -2.16797 -27.002 -6.50098
s-18 -11.5 -26 -21.5s-15.333 -23.333 -22 -40s-11.667 -37 -15 -61h137c3.33301 25.333 4.5 46.333 3.5 63s-3.66699 29.834 -8 39.501s-10.166 16.5 -17.499 20.5s-15.666 6 -24.999 6zM306.996 794l116 -167l-66 -54l-135 148z" />
    <glyph glyph-name="eacute" unicode="&#xe9;" horiz-adv-x="457" 
d="M419 37c-4 -2.66699 -11.1689 -6.66602 -21.502 -11.999s-23.333 -10.833 -39 -16.5s-33.834 -10.5 -54.501 -14.5s-43.334 -6 -68.001 -6c-29.333 0 -56 4.83301 -80 14.5s-44 24.834 -60 45.501s-27.333 47 -34 79s-6.66699 70.667 0 116
c6.66699 48 17.834 89.667 33.501 125s34.5 64.666 56.5 87.999s46.333 40.666 73 51.999s54.334 17 83.001 17s54.167 -4.5 76.5 -13.5s40.833 -23.333 55.5 -43s24.667 -44.5 30 -74.5s5 -66 -1 -108c-2.66699 -18 -5.66699 -33.5 -9 -46.5
s-5.66602 -20.833 -6.99902 -23.5h-261c-6 -44.667 -0.666992 -76.834 16 -96.501s39.334 -29.5 68.001 -29.5c13.333 0 26.333 1.33301 39 4s24.5 5.83398 35.5 9.50098s21.167 7.5 30.5 11.5l23 10zM293.998 429.001c-8.66699 0 -17.6689 -2.16797 -27.002 -6.50098
s-18 -11.5 -26 -21.5s-15.333 -23.333 -22 -40s-11.667 -37 -15 -61h137c3.33301 25.333 4.5 46.333 3.5 63s-3.66699 29.834 -8 39.501s-10.166 16.5 -17.499 20.5s-15.666 6 -24.999 6zM492.996 721l-89 -74l-89 -74l-50 54l162 167z" />
    <glyph glyph-name="ecircumflex" unicode="&#xea;" horiz-adv-x="457" 
d="M419 37c-4 -2.66699 -11.1689 -6.66602 -21.502 -11.999s-23.333 -10.833 -39 -16.5s-33.834 -10.5 -54.501 -14.5s-43.334 -6 -68.001 -6c-29.333 0 -56 4.83301 -80 14.5s-44 24.834 -60 45.501s-27.333 47 -34 79s-6.66699 70.667 0 116
c6.66699 48 17.834 89.667 33.501 125s34.5 64.666 56.5 87.999s46.333 40.666 73 51.999s54.334 17 83.001 17s54.167 -4.5 76.5 -13.5s40.833 -23.333 55.5 -43s24.667 -44.5 30 -74.5s5 -66 -1 -108c-2.66699 -18 -5.66699 -33.5 -9 -46.5
s-5.66602 -20.833 -6.99902 -23.5h-261c-6 -44.667 -0.666992 -76.834 16 -96.501s39.334 -29.5 68.001 -29.5c13.333 0 26.333 1.33301 39 4s24.5 5.83398 35.5 9.50098s21.167 7.5 30.5 11.5l23 10zM293.998 429.001c-8.66699 0 -17.6689 -2.16797 -27.002 -6.50098
s-18 -11.5 -26 -21.5s-15.333 -23.333 -22 -40s-11.667 -37 -15 -61h137c3.33301 25.333 4.5 46.333 3.5 63s-3.66699 29.834 -8 39.501s-10.166 16.5 -17.499 20.5s-15.666 6 -24.999 6zM476.996 672l-59 -71l-95 77l-118 -77l-38 70l135 113h65z" />
    <glyph glyph-name="edieresis" unicode="&#xeb;" horiz-adv-x="457" 
d="M419 37c-4 -2.66699 -11.1689 -6.66602 -21.502 -11.999s-23.333 -10.833 -39 -16.5s-33.834 -10.5 -54.501 -14.5s-43.334 -6 -68.001 -6c-29.333 0 -56 4.83301 -80 14.5s-44 24.834 -60 45.501s-27.333 47 -34 79s-6.66699 70.667 0 116
c6.66699 48 17.834 89.667 33.501 125s34.5 64.666 56.5 87.999s46.333 40.666 73 51.999s54.334 17 83.001 17s54.167 -4.5 76.5 -13.5s40.833 -23.333 55.5 -43s24.667 -44.5 30 -74.5s5 -66 -1 -108c-2.66699 -18 -5.66699 -33.5 -9 -46.5
s-5.66602 -20.833 -6.99902 -23.5h-261c-6 -44.667 -0.666992 -76.834 16 -96.501s39.334 -29.5 68.001 -29.5c13.333 0 26.333 1.33301 39 4s24.5 5.83398 35.5 9.50098s21.167 7.5 30.5 11.5l23 10zM293.998 429.001c-8.66699 0 -17.6689 -2.16797 -27.002 -6.50098
s-18 -11.5 -26 -21.5s-15.333 -23.333 -22 -40s-11.667 -37 -15 -61h137c3.33301 25.333 4.5 46.333 3.5 63s-3.66699 29.834 -8 39.501s-10.166 16.5 -17.499 20.5s-15.666 6 -24.999 6zM484.996 672c-3.33301 -22.667 -12.499 -41 -27.499 -55s-32.167 -21 -51.5 -21
s-34.333 7 -45 21s-14.334 32.333 -11.001 55s12.333 41 27 55s31.667 21 51 21s34.5 -7 45.5 -21s14.833 -32.333 11.5 -55zM292.997 672c-3.33301 -22.667 -12.167 -41 -26.5 -55s-31.166 -21 -50.499 -21s-34.5 7 -45.5 21s-14.833 32.333 -11.5 55s12.5 41 27.5 55
s32.167 21 51.5 21s34.166 -7 44.499 -21s13.833 -32.333 10.5 -55z" />
    <glyph glyph-name="igrave" unicode="&#xec;" horiz-adv-x="239" 
d="M187 0h-135l72 514h135zM160 794l116 -167l-66 -54l-135 148z" />
    <glyph glyph-name="iacute" unicode="&#xed;" horiz-adv-x="239" 
d="M187 0h-135l72 514h135zM372 721l-89 -74l-89 -74l-50 54l162 167z" />
    <glyph glyph-name="icircumflex" unicode="&#xee;" horiz-adv-x="239" 
d="M187 0h-135l72 514h135zM370 672l-59 -71l-95 77l-118 -77l-38 70l135 113h65z" />
    <glyph glyph-name="idieresis" unicode="&#xef;" horiz-adv-x="239" 
d="M187 0h-135l72 514h135zM378 672c-3.33301 -22.667 -12.499 -41 -27.499 -55s-32.167 -21 -51.5 -21s-34.333 7 -45 21s-14.334 32.333 -11.001 55s12.333 41 27 55s31.667 21 51 21s34.5 -7 45.5 -21s14.833 -32.333 11.5 -55zM186.001 672
c-3.33301 -22.667 -12.167 -41 -26.5 -55s-31.166 -21 -50.499 -21s-34.5 7 -45.5 21s-14.833 32.333 -11.5 55s12.5 41 27.5 55s32.167 21 51.5 21s34.166 -7 44.499 -21s13.833 -32.333 10.5 -55z" />
    <glyph glyph-name="eth" unicode="&#xf0;" horiz-adv-x="480" 
d="M409 755l-49 -62.999c28 -20 52.333 -41.667 73 -65s37 -51 49 -83s19.167 -69.333 21.5 -112s-0.5 -93 -8.5 -151s-19.667 -106 -35 -144s-33.666 -68 -54.999 -90s-45.5 -37.5 -72.5 -46.5s-56.5 -13.5 -88.5 -13.5c-32.667 0 -61.667 5.16699 -87 15.5
s-46 26.333 -62 48s-26.833 48.834 -32.5 81.501s-5.5 71.667 0.5 117c11.333 78.667 36 136.667 74 174s84.667 56 140 56c14.667 0 28 -1.83301 40 -5.5s22.167 -8.16699 30.5 -13.5s15.333 -11 21 -17s9.83398 -11.333 12.501 -16
c-0.666992 21.333 -2.83398 40.166 -6.50098 56.499s-9.33398 31.166 -17.001 44.499s-17.167 25.5 -28.5 36.5s-25 22.167 -41 33.5l-53 -67l-61 47l47 61l-68 41l65 95l76 -42l53 69zM295 386.001c-27.333 0 -48.1719 -11.667 -62.5049 -35s-25.166 -60 -32.499 -110
s-7 -87.667 1 -113s26 -38 54 -38c27.333 0 48.5 12.333 63.5 37s26.5 65.667 34.5 123c2.66699 20 4.83398 38.333 6.50098 55s0.833984 31 -2.49902 43s-9.66602 21.333 -18.999 28s-23.666 10 -42.999 10z" />
    <glyph glyph-name="ntilde" unicode="&#xf1;" horiz-adv-x="508" 
d="M124 514h119l-4 -66h2l20 17.5c9.33301 8.33301 21 17 35 26s30 16.833 48 23.5s37.667 10 59 10c47.333 0 79 -14.667 95 -44s19.667 -74.333 11 -135l-48 -346h-135l43 313c5.33301 36.667 5.33301 61.667 0 75s-18.333 20 -39 20c-10 0 -20 -2.33301 -30 -7
s-19.167 -10 -27.5 -16s-15.833 -12.167 -22.5 -18.5l-15 -14.5l-49 -352h-134zM536 698c-6.66699 -7.33301 -14.1689 -16.1699 -22.502 -26.5029s-18 -20.5 -29 -30.5s-23.167 -18.5 -36.5 -25.5s-28.333 -10.5 -45 -10.5c-14 0 -26.167 2 -36.5 6s-20.333 8.5 -30 13.5
l-28 14c-9 4.33301 -18.833 6.5 -29.5 6.5c-8 0 -16 -1.33301 -24 -4s-15.333 -6 -22 -10s-12.667 -8 -18 -12s-9 -7.33301 -11 -10l-44 45c6.66699 6.66699 14.5 15.334 23.5 26.001s19 20.667 30 30s23.333 17.5 37 24.5s28.834 10.5 45.501 10.5
c14 0 26.333 -2.16699 37 -6.5s20.5 -9.16602 29.5 -14.499s18 -10.166 27 -14.499s18.833 -6.5 29.5 -6.5c8 0 15.833 1.5 23.5 4.5s14.834 6.5 21.501 10.5s12.167 7.83301 16.5 11.5s7.5 6.5 9.5 8.5z" />
    <glyph glyph-name="ograve" unicode="&#xf2;" horiz-adv-x="497" 
d="M505 257c-7.33301 -48.667 -18.6709 -90 -34.0039 -124s-34.166 -61.833 -56.499 -83.5s-47.666 -37.334 -75.999 -47.001s-59.166 -14.5 -92.499 -14.5s-63 4.83301 -89 14.5s-47 25.334 -63 47.001s-26.833 49.5 -32.5 83.5s-4.83398 75.333 2.49902 124
c6.66699 48 17.5 89 32.5 123s33.5 61.833 55.5 83.5s47.333 37.334 76 47.001s59.667 14.5 93 14.5s62.833 -4.83301 88.5 -14.5s46.834 -25.334 63.501 -47.001s27.834 -49.5 33.501 -83.5s5.16699 -75 -1.5 -123zM364.995 257c8 60 7.33301 103.167 -2 129.5
s-28 39.5 -56 39.5s-50.333 -13.167 -67 -39.5s-29 -69.5 -37 -129.5c-8.66699 -60.667 -8.33398 -104.167 0.999023 -130.5s28 -39.5 56 -39.5s50.333 13.333 67 40s29.334 70 38.001 130zM291.995 794l116 -167l-66 -54l-135 148z" />
    <glyph glyph-name="oacute" unicode="&#xf3;" horiz-adv-x="497" 
d="M505 257c-7.33301 -48.667 -18.6709 -90 -34.0039 -124s-34.166 -61.833 -56.499 -83.5s-47.666 -37.334 -75.999 -47.001s-59.166 -14.5 -92.499 -14.5s-63 4.83301 -89 14.5s-47 25.334 -63 47.001s-26.833 49.5 -32.5 83.5s-4.83398 75.333 2.49902 124
c6.66699 48 17.5 89 32.5 123s33.5 61.833 55.5 83.5s47.333 37.334 76 47.001s59.667 14.5 93 14.5s62.833 -4.83301 88.5 -14.5s46.834 -25.334 63.501 -47.001s27.834 -49.5 33.501 -83.5s5.16699 -75 -1.5 -123zM364.995 257c8 60 7.33301 103.167 -2 129.5
s-28 39.5 -56 39.5s-50.333 -13.167 -67 -39.5s-29 -69.5 -37 -129.5c-8.66699 -60.667 -8.33398 -104.167 0.999023 -130.5s28 -39.5 56 -39.5s50.333 13.333 67 40s29.334 70 38.001 130zM490.995 721l-89 -74l-89 -74l-50 54l162 167z" />
    <glyph glyph-name="ocircumflex" unicode="&#xf4;" horiz-adv-x="497" 
d="M505 257c-7.33301 -48.667 -18.6709 -90 -34.0039 -124s-34.166 -61.833 -56.499 -83.5s-47.666 -37.334 -75.999 -47.001s-59.166 -14.5 -92.499 -14.5s-63 4.83301 -89 14.5s-47 25.334 -63 47.001s-26.833 49.5 -32.5 83.5s-4.83398 75.333 2.49902 124
c6.66699 48 17.5 89 32.5 123s33.5 61.833 55.5 83.5s47.333 37.334 76 47.001s59.667 14.5 93 14.5s62.833 -4.83301 88.5 -14.5s46.834 -25.334 63.501 -47.001s27.834 -49.5 33.501 -83.5s5.16699 -75 -1.5 -123zM364.995 257c8 60 7.33301 103.167 -2 129.5
s-28 39.5 -56 39.5s-50.333 -13.167 -67 -39.5s-29 -69.5 -37 -129.5c-8.66699 -60.667 -8.33398 -104.167 0.999023 -130.5s28 -39.5 56 -39.5s50.333 13.333 67 40s29.334 70 38.001 130zM496.995 672l-59 -71l-95 77l-118 -77l-38 70l135 113h65z" />
    <glyph glyph-name="otilde" unicode="&#xf5;" horiz-adv-x="497" 
d="M505 257c-7.33301 -48.667 -18.6709 -90 -34.0039 -124s-34.166 -61.833 -56.499 -83.5s-47.666 -37.334 -75.999 -47.001s-59.166 -14.5 -92.499 -14.5s-63 4.83301 -89 14.5s-47 25.334 -63 47.001s-26.833 49.5 -32.5 83.5s-4.83398 75.333 2.49902 124
c6.66699 48 17.5 89 32.5 123s33.5 61.833 55.5 83.5s47.333 37.334 76 47.001s59.667 14.5 93 14.5s62.833 -4.83301 88.5 -14.5s46.834 -25.334 63.501 -47.001s27.834 -49.5 33.501 -83.5s5.16699 -75 -1.5 -123zM364.995 257c8 60 7.33301 103.167 -2 129.5
s-28 39.5 -56 39.5s-50.333 -13.167 -67 -39.5s-29 -69.5 -37 -129.5c-8.66699 -60.667 -8.33398 -104.167 0.999023 -130.5s28 -39.5 56 -39.5s50.333 13.333 67 40s29.334 70 38.001 130zM530.995 698c-6.66699 -7.33301 -14.1689 -16.1699 -22.502 -26.5029
s-18 -20.5 -29 -30.5s-23.167 -18.5 -36.5 -25.5s-28.333 -10.5 -45 -10.5c-14 0 -26.167 2 -36.5 6s-20.333 8.5 -30 13.5l-28 14c-9 4.33301 -18.833 6.5 -29.5 6.5c-8 0 -16 -1.33301 -24 -4s-15.333 -6 -22 -10s-12.667 -8 -18 -12s-9 -7.33301 -11 -10l-44 45
c6.66699 6.66699 14.5 15.334 23.5 26.001s19 20.667 30 30s23.333 17.5 37 24.5s28.834 10.5 45.501 10.5c14 0 26.333 -2.16699 37 -6.5s20.5 -9.16602 29.5 -14.499s18 -10.166 27 -14.499s18.833 -6.5 29.5 -6.5c8 0 15.833 1.5 23.5 4.5s14.834 6.5 21.501 10.5
s12.167 7.83301 16.5 11.5s7.5 6.5 9.5 8.5z" />
    <glyph glyph-name="odieresis" unicode="&#xf6;" horiz-adv-x="497" 
d="M505 257c-7.33301 -48.667 -18.6709 -90 -34.0039 -124s-34.166 -61.833 -56.499 -83.5s-47.666 -37.334 -75.999 -47.001s-59.166 -14.5 -92.499 -14.5s-63 4.83301 -89 14.5s-47 25.334 -63 47.001s-26.833 49.5 -32.5 83.5s-4.83398 75.333 2.49902 124
c6.66699 48 17.5 89 32.5 123s33.5 61.833 55.5 83.5s47.333 37.334 76 47.001s59.667 14.5 93 14.5s62.833 -4.83301 88.5 -14.5s46.834 -25.334 63.501 -47.001s27.834 -49.5 33.501 -83.5s5.16699 -75 -1.5 -123zM364.995 257c8 60 7.33301 103.167 -2 129.5
s-28 39.5 -56 39.5s-50.333 -13.167 -67 -39.5s-29 -69.5 -37 -129.5c-8.66699 -60.667 -8.33398 -104.167 0.999023 -130.5s28 -39.5 56 -39.5s50.333 13.333 67 40s29.334 70 38.001 130zM504.995 672c-3.33301 -22.667 -12.499 -41 -27.499 -55s-32.167 -21 -51.5 -21
s-34.333 7 -45 21s-14.334 32.333 -11.001 55s12.333 41 27 55s31.667 21 51 21s34.5 -7 45.5 -21s14.833 -32.333 11.5 -55zM312.996 672c-3.33301 -22.667 -12.167 -41 -26.5 -55s-31.166 -21 -50.499 -21s-34.5 7 -45.5 21s-14.833 32.333 -11.5 55s12.5 41 27.5 55
s32.167 21 51.5 21s34.166 -7 44.499 -21s13.833 -32.333 10.5 -55z" />
    <glyph glyph-name="divide" unicode="&#xf7;" horiz-adv-x="496" 
d="M393 520c-3.33301 -24.667 -13.165 -44.5 -29.498 -59.5s-34.833 -22.5 -55.5 -22.5s-36.834 7.5 -48.501 22.5s-15.834 34.833 -12.501 59.5s13 44.667 29 60s34.333 23 55 23s37 -7.66699 49 -23s16.333 -35.333 13 -60zM337.001 115
c-3.33301 -25.333 -13.166 -45.5 -29.499 -60.5s-34.833 -22.5 -55.5 -22.5s-37 7.5 -49 22.5s-16.333 35.167 -13 60.5c3.33301 24.667 13.166 44.5 29.499 59.5s34.833 22.5 55.5 22.5s37 -7.5 49 -22.5s16.333 -34.833 13 -59.5zM485.001 248h-407l15 105h407z" />
    <glyph glyph-name="oslash" unicode="&#xf8;" horiz-adv-x="497" 
d="M505 257c-7.33301 -48.667 -18.668 -89.998 -34.001 -123.998s-34.166 -61.833 -56.499 -83.5s-47.666 -37.334 -75.999 -47.001s-59.166 -14.5 -92.499 -14.5c-40.667 0 -75 7 -103 21l-39 -46l-79 62l49 59c-8.66699 21.333 -13.834 46.166 -15.501 74.499
s0.166016 61.166 5.49902 98.499c6.66699 48 17.5 89 32.5 123s33.5 61.833 55.5 83.5s47.333 37.334 76 47.001s59.667 14.5 93 14.5c41.333 0 76.333 -7.33301 105 -22l36 43l80 -62l-49 -58c8.66699 -20.667 14.167 -45 16.5 -73s0.833008 -60 -4.5 -96zM198.998 233.002
l149 178c-9.33301 10 -23 15 -41 15c-28 0 -50.333 -13.167 -67 -39.5s-29 -69.5 -37 -129.5zM366.998 276.002l-147.001 -175c8.66699 -9.33301 22 -14 40 -14c28 0 50.333 13.333 67 40s29.334 70 38.001 130z" />
    <glyph glyph-name="ugrave" unicode="&#xf9;" horiz-adv-x="507" 
d="M457 0l-117.004 -0.000976562l1 69l-31 -25c-4.66699 -3.33301 -11 -8.16602 -19 -14.499s-17.667 -12.5 -29 -18.5s-24.166 -11.333 -38.499 -16s-29.833 -7 -46.5 -7c-47.333 0 -79.166 14.667 -95.499 44s-20.166 74.333 -11.499 135l49 347h135l-40 -280
c-3.33301 -24.667 -5.66602 -45.167 -6.99902 -61.5s-0.666016 -29.5 2.00098 -39.5s7.33398 -17 14.001 -21s16 -6 28 -6c9.33301 0 18.666 2.16699 27.999 6.5s18.166 9.5 26.499 15.5s15.833 12.333 22.5 19l16 16l50 351h135zM279.996 793.999l116 -167l-66 -54
l-135 148z" />
    <glyph glyph-name="uacute" unicode="&#xfa;" horiz-adv-x="507" 
d="M457 0l-117.004 -0.000976562l1 69l-31 -25c-4.66699 -3.33301 -11 -8.16602 -19 -14.499s-17.667 -12.5 -29 -18.5s-24.166 -11.333 -38.499 -16s-29.833 -7 -46.5 -7c-47.333 0 -79.166 14.667 -95.499 44s-20.166 74.333 -11.499 135l49 347h135l-40 -280
c-3.33301 -24.667 -5.66602 -45.167 -6.99902 -61.5s-0.666016 -29.5 2.00098 -39.5s7.33398 -17 14.001 -21s16 -6 28 -6c9.33301 0 18.666 2.16699 27.999 6.5s18.166 9.5 26.499 15.5s15.833 12.333 22.5 19l16 16l50 351h135zM499.996 720.999l-89 -74l-89 -74l-50 54
l162 167z" />
    <glyph glyph-name="ucircumflex" unicode="&#xfb;" horiz-adv-x="507" 
d="M457 0l-117.004 -0.000976562l1 69l-31 -25c-4.66699 -3.33301 -11 -8.16602 -19 -14.499s-17.667 -12.5 -29 -18.5s-24.166 -11.333 -38.499 -16s-29.833 -7 -46.5 -7c-47.333 0 -79.166 14.667 -95.499 44s-20.166 74.333 -11.499 135l49 347h135l-40 -280
c-3.33301 -24.667 -5.66602 -45.167 -6.99902 -61.5s-0.666016 -29.5 2.00098 -39.5s7.33398 -17 14.001 -21s16 -6 28 -6c9.33301 0 18.666 2.16699 27.999 6.5s18.166 9.5 26.499 15.5s15.833 12.333 22.5 19l16 16l50 351h135zM501.996 671.999l-59 -71l-95 77l-118 -77
l-38 70l135 113h65z" />
    <glyph glyph-name="udieresis" unicode="&#xfc;" horiz-adv-x="507" 
d="M457 0l-117.004 -0.000976562l1 69l-31 -25c-4.66699 -3.33301 -11 -8.16602 -19 -14.499s-17.667 -12.5 -29 -18.5s-24.166 -11.333 -38.499 -16s-29.833 -7 -46.5 -7c-47.333 0 -79.166 14.667 -95.499 44s-20.166 74.333 -11.499 135l49 347h135l-40 -280
c-3.33301 -24.667 -5.66602 -45.167 -6.99902 -61.5s-0.666016 -29.5 2.00098 -39.5s7.33398 -17 14.001 -21s16 -6 28 -6c9.33301 0 18.666 2.16699 27.999 6.5s18.166 9.5 26.499 15.5s15.833 12.333 22.5 19l16 16l50 351h135zM509.996 671.999
c-3.33301 -22.667 -12.499 -41 -27.499 -55s-32.167 -21 -51.5 -21s-34.333 7 -45 21s-14.334 32.333 -11.001 55s12.333 41 27 55s31.667 21 51 21s34.5 -7 45.5 -21s14.833 -32.333 11.5 -55zM317.997 671.999c-3.33301 -22.667 -12.167 -41 -26.5 -55
s-31.166 -21 -50.499 -21s-34.5 7 -45.5 21s-14.833 32.333 -11.5 55s12.5 41 27.5 55s32.167 21 51.5 21s34.166 -7 44.499 -21s13.833 -32.333 10.5 -55z" />
    <glyph glyph-name="yacute" unicode="&#xfd;" horiz-adv-x="506" 
d="M333 66l-2 -0.000976562c-4 -3.33301 -10.333 -9.16602 -19 -17.499s-19.5 -17 -32.5 -26s-28 -16.833 -45 -23.5s-35.833 -10 -56.5 -10c-47.333 0 -79 14.667 -95 44s-19.667 74.333 -11 135l49 346h135l-44 -313c-2.66699 -18.667 -4.16699 -34 -4.5 -46
s1 -21.667 4 -29s7.83301 -12.5 14.5 -15.5s15 -4.5 25 -4.5s20 2.33301 30 7s19.167 10 27.5 16s15.833 12.167 22.5 18.5l15 14.5l50 352h135l-78 -556c-9.33301 -66.667 -31.833 -116.5 -67.5 -149.5s-86.834 -49.5 -153.501 -49.5c-36 0 -68.5 3.83301 -97.5 11.5
s-50.833 14.167 -65.5 19.5l28 92c13.333 -4.66699 31.333 -9.5 54 -14.5s46.334 -7.5 71.001 -7.5c12 0 23 1 33 3s19 6.33301 27 13s14.833 16.167 20.5 28.5s10.167 28.833 13.5 49.5zM489 720.999l-89 -74l-89 -74l-50 54l162 167z" />
    <glyph glyph-name="thorn" unicode="&#xfe;" 
d="M150 719l136.002 20.001l-40 -287h2c8 8 17.167 16.333 27.5 25s21.666 16.5 33.999 23.5s25.5 12.833 39.5 17.5s28.667 7 44 7c22 0 42.167 -5 60.5 -15s33.333 -25.667 45 -47s19.5 -48.5 23.5 -81.5s2.66699 -72.5 -4 -118.5
c-7.33301 -52 -19.166 -95.333 -35.499 -130s-35.5 -62.5 -57.5 -83.5s-46 -35.833 -72 -44.5s-52 -13 -78 -13c-16.667 0 -32.834 1.66699 -48.501 5s-29.834 8.66602 -42.501 15.999l-34 -242h-134zM321.002 414.001c-8 0 -16.335 -1.66797 -25.002 -5.00098
s-17 -7.5 -25 -12.5s-15.167 -10.167 -21.5 -15.5s-11.5 -10.333 -15.5 -15l-37 -266c18 -12 38.333 -18 61 -18c32 0 57.833 13.333 77.5 40s33.834 70.334 42.501 131.001c8.66699 58.667 7.83398 100.167 -2.49902 124.5s-28.5 36.5 -54.5 36.5z" />
    <glyph glyph-name="ydieresis" unicode="&#xff;" horiz-adv-x="506" 
d="M333 66l-2 -0.000976562c-4 -3.33301 -10.333 -9.16602 -19 -17.499s-19.5 -17 -32.5 -26s-28 -16.833 -45 -23.5s-35.833 -10 -56.5 -10c-47.333 0 -79 14.667 -95 44s-19.667 74.333 -11 135l49 346h135l-44 -313c-2.66699 -18.667 -4.16699 -34 -4.5 -46
s1 -21.667 4 -29s7.83301 -12.5 14.5 -15.5s15 -4.5 25 -4.5s20 2.33301 30 7s19.167 10 27.5 16s15.833 12.167 22.5 18.5l15 14.5l50 352h135l-78 -556c-9.33301 -66.667 -31.833 -116.5 -67.5 -149.5s-86.834 -49.5 -153.501 -49.5c-36 0 -68.5 3.83301 -97.5 11.5
s-50.833 14.167 -65.5 19.5l28 92c13.333 -4.66699 31.333 -9.5 54 -14.5s46.334 -7.5 71.001 -7.5c12 0 23 1 33 3s19 6.33301 27 13s14.833 16.167 20.5 28.5s10.167 28.833 13.5 49.5zM510 671.999c-3.33301 -22.667 -12.499 -41 -27.499 -55s-32.167 -21 -51.5 -21
s-34.333 7 -45 21s-14.334 32.333 -11.001 55s12.333 41 27 55s31.667 21 51 21s34.5 -7 45.5 -21s14.833 -32.333 11.5 -55zM318.001 671.999c-3.33301 -22.667 -12.167 -41 -26.5 -55s-31.166 -21 -50.499 -21s-34.5 7 -45.5 21s-14.833 32.333 -11.5 55s12.5 41 27.5 55
s32.167 21 51.5 21s34.166 -7 44.499 -21s13.833 -32.333 10.5 -55z" />
    <glyph glyph-name="dotlessi" unicode="&#x131;" horiz-adv-x="239" 
d="M187 0h-135l72 514h135z" />
    <glyph glyph-name="Lslash" unicode="&#x141;" horiz-adv-x="419" 
d="M408 0h-342l29 210l-35 -28l-31 60l79 61l50 355h139l-34 -244l87 69l32 -60l-132 -102l-29 -204h194z" />
    <glyph glyph-name="lslash" unicode="&#x142;" horiz-adv-x="281" 
d="M275 489l56.999 44.999c5.33301 -9.33301 11 -18.666 17 -27.999s12.333 -18.666 19 -27.999l-106 -84l-55 -394h-134l40 286l-33 -27c-5.33301 9.33301 -11.166 18.666 -17.499 27.999l-18.5 28l82 65l50 359h134z" />
    <glyph glyph-name="omacron" unicode="&#x14d;" horiz-adv-x="497" 
d="M505 257c-7.33301 -48.667 -18.6709 -90 -34.0039 -124s-34.166 -61.833 -56.499 -83.5s-47.666 -37.334 -75.999 -47.001s-59.166 -14.5 -92.499 -14.5s-63 4.83301 -89 14.5s-47 25.334 -63 47.001s-26.833 49.5 -32.5 83.5s-4.83398 75.333 2.49902 124
c6.66699 48 17.5 89 32.5 123s33.5 61.833 55.5 83.5s47.333 37.334 76 47.001s59.667 14.5 93 14.5s62.833 -4.83301 88.5 -14.5s46.834 -25.334 63.501 -47.001s27.834 -49.5 33.501 -83.5s5.16699 -75 -1.5 -123zM306.995 426c-28 0 -50.333 -13.167 -67 -39.5
s-29 -69.5 -37 -129.5c-8.66699 -60.667 -8.33398 -104.167 0.999023 -130.5s28 -39.5 56 -39.5s50.333 13.333 67 40s29.334 70 38.001 130c8 60 7.33301 103.167 -2 129.5s-28 39.5 -56 39.5zM460.995 626h-255l12 80h255z" />
    <glyph glyph-name="ohungarumlaut" unicode="&#x151;" horiz-adv-x="497" 
d="M505 257c-7.33301 -48.667 -18.6709 -90 -34.0039 -124s-34.166 -61.833 -56.499 -83.5s-47.666 -37.334 -75.999 -47.001s-59.166 -14.5 -92.499 -14.5s-63 4.83301 -89 14.5s-47 25.334 -63 47.001s-26.833 49.5 -32.5 83.5s-4.83398 75.333 2.49902 124
c6.66699 48 17.5 89 32.5 123s33.5 61.833 55.5 83.5s47.333 37.334 76 47.001s59.667 14.5 93 14.5s62.833 -4.83301 88.5 -14.5s46.834 -25.334 63.501 -47.001s27.834 -49.5 33.501 -83.5s5.16699 -75 -1.5 -123zM364.995 257c8 60 7.33301 103.167 -2 129.5
s-28 39.5 -56 39.5s-50.333 -13.167 -67 -39.5s-29 -69.5 -37 -129.5c-8.66699 -60.667 -8.33398 -104.167 0.999023 -130.5s28 -39.5 56 -39.5s50.333 13.333 67 40s29.334 70 38.001 130zM430.995 585l-72 30l111 186l80 -56zM265.995 585l-73 30l110 186l80 -56z" />
    <glyph glyph-name="OE" unicode="&#x152;" horiz-adv-x="785" 
d="M394 0l5.00098 41.999c-32.667 -36.667 -71.667 -55 -117 -55c-80.667 0 -138.834 27.833 -174.501 83.5s-45.167 141.834 -28.5 258.501c16 116.667 49.667 202.667 101 258s117.333 83 198 83c45.333 0 79.333 -18.333 102 -55l6 43h356l-16 -113h-216l-21 -152h164
l-15 -106h-164l-25 -174h216l-15 -113h-356zM297.001 97.999c38.667 0 69.167 20.167 91.5 60.5s38.833 97.166 49.5 170.499c10 73.333 9.33301 130 -2 170s-36 60 -74 60s-68.333 -20 -91 -60s-39 -96.667 -49 -170c-10.667 -73.333 -10.5 -130.166 0.5 -170.499
s35.833 -60.5 74.5 -60.5z" />
    <glyph glyph-name="oe" unicode="&#x153;" horiz-adv-x="744" 
d="M706 37c-4 -2.66699 -11.1641 -6.66895 -21.4971 -12.002s-23.333 -10.833 -39 -16.5s-33.834 -10.5 -54.501 -14.5s-43.334 -6 -68.001 -6c-26.667 0 -50.834 5.5 -72.501 16.5s-39.167 28.167 -52.5 51.5c-19.333 -23.333 -42 -40.5 -68 -51.5s-54 -16.5 -84 -16.5
c-33.333 0 -63 4.83301 -89 14.5s-47 25.334 -63 47.001s-26.833 49.5 -32.5 83.5s-4.83398 75.333 2.49902 124c6.66699 48 17.5 89 32.5 123s33.5 61.833 55.5 83.5s47.333 37.334 76 47.001s59.667 14.5 93 14.5c31.333 0 58.5 -5.83301 81.5 -17.5
s41.167 -30.167 54.5 -55.5c20 24.667 41.667 43 65 55s47.666 18 72.999 18c28.667 0 54.167 -4.5 76.5 -13.5s40.833 -23.333 55.5 -43s24.667 -44.5 30 -74.5s5 -66 -1 -108c-2.66699 -18 -5.66699 -33.5 -9 -46.5s-5.66602 -20.833 -6.99902 -23.5h-261
c-6 -44.667 -0.666992 -76.834 16 -96.501s39.334 -29.5 68.001 -29.5c13.333 0 26.333 1.33301 39 4s24.5 5.83398 35.5 9.50098s21.167 7.5 30.5 11.5l23 10zM365.003 256.998c8 60 7.33301 103.167 -2 129.5s-28 39.5 -56 39.5s-50.333 -13.167 -67 -39.5
s-29 -69.5 -37 -129.5c-8.66699 -60.667 -8.33398 -104.167 0.999023 -130.5s28 -39.5 56 -39.5s50.333 13.333 67 40s29.334 70 38.001 130zM581.003 428.998c-8.66699 0 -17.6689 -2.16797 -27.002 -6.50098s-18 -11.5 -26 -21.5s-15.333 -23.333 -22 -40
s-11.667 -37 -15 -61h137c3.33301 25.333 4.5 46.333 3.5 63s-3.66699 29.834 -8 39.501s-10.166 16.5 -17.499 20.5s-15.666 6 -24.999 6z" />
    <glyph glyph-name="Scaron" unicode="&#x160;" horiz-adv-x="448" 
d="M339 670c24.667 0 46.4951 -1.83008 65.4951 -5.49707s35.333 -8 49 -13s25 -9.83301 34 -14.5s16.167 -8 21.5 -10l-47 -101c-4.66699 2 -11.167 5.16699 -19.5 9.5s-18 8.66602 -29 12.999s-22.833 8.33301 -35.5 12s-25.667 5.5 -39 5.5
c-15.333 0 -28.666 -2.5 -39.999 -7.5s-21 -11.167 -29 -18.5s-14.167 -15.333 -18.5 -24s-6.83301 -16.334 -7.5 -23.001c-2.66699 -20 1 -37.333 11 -52s23.333 -28.167 40 -40.5s34.834 -24.833 54.501 -37.5s37.667 -27 54 -43s29 -34.833 38 -56.5
s11.5 -47.834 7.5 -78.501c-9.33301 -62.667 -34.666 -111.334 -75.999 -146.001s-98.333 -52 -171 -52c-25.333 0 -47.666 2.16699 -66.999 6.5s-36 9.33301 -50 15s-25.833 11.167 -35.5 16.5s-16.834 9 -21.501 11l46 101c4.66699 -2 11.167 -5.16699 19.5 -9.5
s18 -8.66602 29 -12.999s22.833 -8.33301 35.5 -12s25.667 -5.5 39 -5.5c12 0 24 1.5 36 4.5s23.167 7.5 33.5 13.5s19 13.667 26 23s11.5 20.666 13.5 33.999c2.66699 18.667 -1.16602 34.667 -11.499 48s-24 26 -41 38l-54.5 37
c-19.333 12.667 -37.166 27.334 -53.499 44.001s-29 36.167 -38 58.5s-11.167 49.833 -6.5 82.5c8 58.667 33 105 75 139s96.333 51 163 51zM355.995 731.003h-65l-103 113l58 70l96 -77l117 77l39 -71z" />
    <glyph glyph-name="scaron" unicode="&#x161;" horiz-adv-x="376" 
d="M57 118c3.33301 -1.33301 9.00684 -3.82812 17.0068 -7.49512s17 -7.33398 27 -11.001s20.667 -6.83398 32 -9.50098s22.666 -4 33.999 -4c19.333 0 34.666 3 45.999 9s18.333 18.667 21 38c2 14 -0.833008 26.5 -8.5 37.5s-17.5 21.667 -29.5 32
s-25.333 21.166 -40 32.499s-27.834 23.833 -39.501 37.5s-20.834 29 -27.501 46s-8.33398 37.167 -5.00098 60.5c6.66699 46 26.667 81.833 60 107.5s77.666 38.5 132.999 38.5c34 0 61.5 -2.66699 82.5 -8s36.167 -9.66602 45.5 -12.999
c-3.33301 -16.667 -6.83301 -33.167 -10.5 -49.5l-10.5 -48.5l-40 11c-19.333 5.33301 -39.333 8 -60 8c-42 0 -65 -13.333 -69 -40c-2 -12.667 1.16699 -24.167 9.5 -34.5s18.833 -20.5 31.5 -30.5s26.667 -20.5 42 -31.5s29.166 -23.333 41.499 -37s22 -29.5 29 -47.5
s8.83301 -39 5.5 -63c-3.33301 -21.333 -9.5 -41.333 -18.5 -60s-21.5 -34.834 -37.5 -48.501s-35.833 -24.5 -59.5 -32.5s-51.167 -12 -82.5 -12c-21.333 0 -40.5 1.66699 -57.5 5s-31.833 7.16602 -44.5 11.499s-23.5 8.66602 -32.5 12.999s-15.833 7.83301 -20.5 10.5z
M301.007 587.005h-65l-103 113l58 70l96 -77l117 77l39 -71z" />
    <glyph glyph-name="Ydieresis" unicode="&#x178;" horiz-adv-x="528" 
d="M334 0l-139 -0.00195312l30 217l-12 40l-62 200l-61 201h149l22 -93.5l21 -90c6.66699 -28.333 12.5 -54.166 17.5 -77.499s9.16699 -41.666 12.5 -54.999l27.5 55l39 77.5l46 90l48.5 93.5h149l-118 -201l-117 -200l-23 -40zM541 815.998
c-3.33301 -22.667 -12.499 -41 -27.499 -55s-32.167 -21 -51.5 -21s-34.333 7 -45 21s-14.334 32.333 -11.001 55s12.333 41 27 55s31.667 21 51 21s34.5 -7 45.5 -21s14.833 -32.333 11.5 -55zM349.001 815.998c-3.33301 -22.667 -12.167 -41 -26.5 -55
s-31.166 -21 -50.499 -21s-34.5 7 -45.5 21s-14.833 32.333 -11.5 55s12.5 41 27.5 55s32.167 21 51.5 21s34.166 -7 44.499 -21s13.833 -32.333 10.5 -55z" />
    <glyph glyph-name="Zcaron" unicode="&#x17d;" horiz-adv-x="465" 
d="M508 568l-309 -456h249l-15 -112h-405l12 90l310 456h-239l16 112h394zM364 731h-65l-103 113l58 70l96 -77l117 77l39 -71z" />
    <glyph glyph-name="zcaron" unicode="&#x17e;" horiz-adv-x="383" 
d="M416 430l-231 -327h188l-14 -103h-337l12 87l228 324h-171l15 103h322zM305 587h-65l-103 113l58 70l96 -77l117 77l39 -71z" />
    <glyph glyph-name="florin" unicode="&#x192;" horiz-adv-x="441" 
d="M445 391l-97.999 0.00195312l-94 -415c-14.667 -77.333 -39.5 -132.5 -74.5 -165.5s-80.167 -49.5 -135.5 -49.5c-11.333 0 -21 0.333008 -29 1s-15.333 1.66699 -22 3l20 100c14 2 26.833 4.5 38.5 7.5s22.334 8.83301 32.001 17.5s18.167 21.167 25.5 37.5
s13.666 38.5 18.999 66.5l89 397h-47c1.33301 16 2.83301 32 4.5 48s3.5 32 5.5 48h58l20 98c8 57.333 26.5 100 55.5 128s66.5 42 112.5 42c32 0 56 -3.16699 72 -9.5s27.667 -10.5 35 -12.5l-26 -94c-3.33301 1.33301 -10.333 3.66602 -21 6.99902s-23.334 5 -38.001 5
c-19.333 0 -33.5 -6.83301 -42.5 -20.5s-16.5 -34.834 -22.5 -63.501l-13 -80h98z" />
    <glyph glyph-name="circumflex" unicode="&#x2c6;" horiz-adv-x="404" 
d="M451 672l-59 -71l-95 77l-118 -77l-38 70l135 113h65z" />
    <glyph glyph-name="caron" unicode="&#x2c7;" horiz-adv-x="404" 
d="M314 587h-65l-103 113l58 70l96 -77l117 77l39 -71z" />
    <glyph glyph-name="breve" unicode="&#x2d8;" horiz-adv-x="413" 
d="M300 670c14 0 26.6689 2.16602 38.002 6.49902s20.833 9.5 28.5 15.5s13.667 12.167 18 18.5s6.83301 11.833 7.5 16.5l63 -23c-2 -14 -7 -28 -15 -42s-19 -26.833 -33 -38.5s-30.833 -21.167 -50.5 -28.5s-42.5 -11 -68.5 -11c-25.333 0 -47 3.5 -65 10.5
s-32.5 16.167 -43.5 27.5s-18.667 24 -23 38s-5.5 28 -3.5 42l35 12.5l36 12.5c-0.666992 -5.33301 0.166016 -11.166 2.49902 -17.499s6.66602 -12.5 12.999 -18.5s14.5 -11 24.5 -15s22 -6 36 -6z" />
    <glyph glyph-name="dotaccent" unicode="&#x2d9;" horiz-adv-x="422" 
d="M389 673c-3.33301 -24 -13.3311 -43.5 -29.998 -58.5s-35.667 -22.5 -57 -22.5s-38.333 7.5 -51 22.5s-17.334 34.5 -14.001 58.5s13.5 43.667 30.5 59s36.167 23 57.5 23s38.166 -7.66699 50.499 -23s16.833 -35 13.5 -59z" />
    <glyph glyph-name="ring" unicode="&#x2da;" horiz-adv-x="429" 
d="M396 710c-2 -16.667 -6.66602 -32 -13.999 -46s-16.5 -26.167 -27.5 -36.5s-23.333 -18.333 -37 -24s-28.167 -8.5 -43.5 -8.5c-31.333 0 -55.333 10.833 -72 32.5s-22.667 49.167 -18 82.5c4.66699 32.667 18.5 59.667 41.5 81s49.833 32 80.5 32
c14.667 0 28 -2.83301 40 -8.5s22.167 -13.5 30.5 -23.5s14.166 -22 17.499 -36s4 -29 2 -45zM334.001 710c2.66699 15.333 0.668945 27.833 -5.99805 37.5s-16.667 14.5 -30 14.5s-24.833 -4.83301 -34.5 -14.5s-15.834 -22.167 -18.501 -37.5c-2 -15.333 0.5 -28 7.5 -38
s17.167 -15 30.5 -15s24.666 5 33.999 15s15 22.667 17 38z" />
    <glyph glyph-name="ogonek" unicode="&#x2db;" horiz-adv-x="352" 
d="M263 16c-5.33301 -3.33301 -13.835 -8.33594 -25.502 -15.0029s-23.834 -15.167 -36.501 -25.5s-24 -22.5 -34 -36.5s-16.333 -30.333 -19 -49c-2.66699 -17.333 2 -29.666 14 -36.999s25.667 -11 41 -11c10 0 20 1 30 3l2 -67c-10.667 -1.33301 -22.667 -3.33301 -36 -6
s-27.666 -4 -42.999 -4c-37.333 0 -64.666 9.33301 -81.999 28s-23.333 45.334 -18 80.001c3.33301 22.667 11.833 43.167 25.5 61.5s28.834 34.333 45.501 48s33 24.834 49 33.501s28 15 36 19z" />
    <glyph glyph-name="tilde" unicode="&#x2dc;" horiz-adv-x="431" 
d="M498 698c-6.66699 -7.33301 -14.1689 -16.1699 -22.502 -26.5029s-18 -20.5 -29 -30.5s-23.167 -18.5 -36.5 -25.5s-28.333 -10.5 -45 -10.5c-14 0 -26.167 2 -36.5 6s-20.333 8.5 -30 13.5l-28 14c-9 4.33301 -18.833 6.5 -29.5 6.5c-8 0 -16 -1.33301 -24 -4
s-15.333 -6 -22 -10s-12.667 -8 -18 -12s-9 -7.33301 -11 -10l-44 45c6.66699 6.66699 14.5 15.334 23.5 26.001s19 20.667 30 30s23.333 17.5 37 24.5s28.834 10.5 45.501 10.5c14 0 26.333 -2.16699 37 -6.5s20.5 -9.16602 29.5 -14.499s18 -10.166 27 -14.499
s18.833 -6.5 29.5 -6.5c8 0 15.833 1.5 23.5 4.5s14.834 6.5 21.501 10.5s12.167 7.83301 16.5 11.5s7.5 6.5 9.5 8.5z" />
    <glyph glyph-name="hungarumlaut" unicode="&#x2dd;" horiz-adv-x="427" 
d="M379 585l-72 30l111 186l80 -56zM214 585l-73 30l110 186l80 -56z" />
    <glyph glyph-name="afii10023" unicode="&#x401;" horiz-adv-x="450" 
d="M426 0h-364l92 658h356l-12.5 -56l-13.5 -57h-206l-21 -152h164l-15 -106h-164l-25 -174h215zM509 808c-3.33301 -22.667 -12.499 -41 -27.499 -55s-32.167 -21 -51.5 -21s-34.333 7 -45 21s-14.334 32.333 -11.001 55s12.333 41 27 55s31.667 21 51 21s34.5 -7 45.5 -21
s14.833 -32.333 11.5 -55zM317.001 808c-3.33301 -22.667 -12.167 -41 -26.5 -55s-31.166 -21 -50.499 -21s-34.5 7 -45.5 21s-14.833 32.333 -11.5 55s12.5 41 27.5 55s32.167 21 51.5 21s34.166 -7 44.499 -21s13.833 -32.333 10.5 -55z" />
    <glyph glyph-name="afii10051" unicode="&#x402;" horiz-adv-x="625" 
d="M529 658l-16 -112h-141l-24 -175c5.33301 2 12 5.33301 20 10s17.333 9.5 28 14.5s22.667 9.33301 36 13s28 5.5 44 5.5c114 0 159.333 -81.667 136 -245c-7.33301 -50 -19 -92 -35 -126s-36.333 -61.667 -61 -83s-53.167 -37.166 -85.5 -47.499
s-67.833 -16.833 -106.5 -19.5l16 109c31.333 3.33301 59.166 17.333 83.499 42s39.833 62 46.5 112c4.66699 32 7 57.167 7 75.5s-2.16699 32.166 -6.5 41.499s-10.5 15.333 -18.5 18s-17.667 4 -29 4c-15.333 0 -31.666 -3.16699 -48.999 -9.5s-31 -12.5 -41 -18.5
l-37 -267h-140l76 546h-142l16 112h423z" />
    <glyph glyph-name="afii10052" unicode="&#x403;" horiz-adv-x="395" 
d="M276 538l-75 -538h-139l92 658h321l-17 -120h-182zM468 850l-177 -148l-50 54l162 167z" />
    <glyph glyph-name="afii10053" unicode="&#x404;" horiz-adv-x="477" 
d="M218 278c-5.33301 -62 0.665039 -107.833 17.998 -137.5s51.333 -44.5 102 -44.5c24 0 46.333 3.16699 67 9.5s36.334 11.5 47.001 15.5c0.666992 -17.333 1.16699 -34.833 1.5 -52.5s1.16602 -35.167 2.49902 -52.5c-4.66699 -1.33301 -11.5 -3.66602 -20.5 -6.99902
s-20.333 -6.83301 -34 -10.5s-29.167 -6.83398 -46.5 -9.50098s-36.333 -4 -57 -4c-89.333 0 -152.333 28.167 -189 84.5s-46.667 142.5 -30 258.5c16 116 50.333 202.167 103 258.5s123.667 84.5 213 84.5c20.667 0 39.334 -1.33301 56.001 -4
s31.167 -5.83398 43.5 -9.50098s22.5 -7.16699 30.5 -10.5s14 -5.66602 18 -6.99902l-33 -105c-9.33301 4 -23.5 9.16699 -42.5 15.5s-40.5 9.5 -64.5 9.5c-49.333 0 -86.666 -14 -111.999 -42s-44.333 -70.667 -57 -128h183l-15 -112h-184z" />
    <glyph glyph-name="afii10054" unicode="&#x405;" horiz-adv-x="448" 
d="M339 670c24.667 0 46.4951 -1.83008 65.4951 -5.49707s35.333 -8 49 -13s25 -9.83301 34 -14.5s16.167 -8 21.5 -10l-47 -101c-4.66699 2 -11.167 5.16699 -19.5 9.5s-18 8.66602 -29 12.999s-22.833 8.33301 -35.5 12s-25.667 5.5 -39 5.5
c-15.333 0 -28.666 -2.5 -39.999 -7.5s-21 -11.167 -29 -18.5s-14.167 -15.333 -18.5 -24s-6.83301 -16.334 -7.5 -23.001c-2.66699 -20 1 -37.333 11 -52s23.333 -28.167 40 -40.5s34.834 -24.833 54.501 -37.5s37.667 -27 54 -43s29 -34.833 38 -56.5
s11.5 -47.834 7.5 -78.501c-9.33301 -62.667 -34.666 -111.334 -75.999 -146.001s-98.333 -52 -171 -52c-25.333 0 -47.666 2.16699 -66.999 6.5s-36 9.33301 -50 15s-25.833 11.167 -35.5 16.5s-16.834 9 -21.501 11l46 101c4.66699 -2 11.167 -5.16699 19.5 -9.5
s18 -8.66602 29 -12.999s22.833 -8.33301 35.5 -12s25.667 -5.5 39 -5.5c12 0 24 1.5 36 4.5s23.167 7.5 33.5 13.5s19 13.667 26 23s11.5 20.666 13.5 33.999c2.66699 18.667 -1.16602 34.667 -11.499 48s-24 26 -41 38l-54.5 37
c-19.333 12.667 -37.166 27.334 -53.499 44.001s-29 36.167 -38 58.5s-11.167 49.833 -6.5 82.5c8 58.667 33 105 75 139s96.333 51 163 51z" />
    <glyph glyph-name="afii10055" unicode="&#x406;" horiz-adv-x="264" 
d="M201 0h-139l92 658h139z" />
    <glyph glyph-name="afii10056" unicode="&#x407;" horiz-adv-x="264" 
d="M201 0h-139l92 658h139zM406 801c-3.33301 -22.667 -12.333 -41 -27 -55s-31.667 -21 -51 -21s-34.333 7 -45 21s-14.334 32.333 -11.001 55s12.333 41 27 55s31.667 21 51 21s34.333 -7 45 -21s14.334 -32.333 11.001 -55zM214 801
c-3.33301 -22.667 -12.167 -41 -26.5 -55s-31.166 -21 -50.499 -21c-18.667 0 -33.5 7 -44.5 21s-14.833 32.333 -11.5 55s12.5 41 27.5 55s31.833 21 50.5 21c19.333 0 34.166 -7 44.499 -21s13.833 -32.333 10.5 -55z" />
    <glyph glyph-name="afii10057" unicode="&#x408;" horiz-adv-x="271" 
d="M229 130c-8.66699 -62 -20.002 -112.331 -34.002 -150.998s-31 -68.834 -51 -90.501s-43 -36.334 -69 -44.001s-55 -11.5 -87 -11.5c-5.33301 0 -10.666 0.166992 -15.999 0.5s-10.666 0.833008 -15.999 1.5c4 17.333 7.66699 34.5 11 51.5s7 34.167 11 51.5
c20.667 2 38.667 13 54 33c14.667 9.33301 26 23.5 34 42.5s14.667 47.5 20 85.5l79 559h138z" />
    <glyph glyph-name="afii10058" unicode="&#x409;" horiz-adv-x="830" 
d="M449 541l-120.004 -0.000976562c-16.667 -87.333 -33.667 -165.333 -51 -234s-34.666 -130.334 -51.999 -185.001c-8 -26 -17.5 -47.5 -28.5 -64.5s-23.5 -30.167 -37.5 -39.5s-29.667 -15.833 -47 -19.5s-36.666 -5.5 -57.999 -5.5c-13.333 0 -25.333 1 -36 3l16 102
c19.333 1.33301 34.833 6 46.5 14s21.167 23.333 28.5 46c18.667 60 36.667 130.5 54 211.5s36 177.167 56 288.5h384l-34 -240c8 1.33301 19.167 2.33301 33.5 3s29.5 1 45.5 1c31.333 0 59.5 -3.66699 84.5 -11s45.667 -19.166 62 -35.499s27.833 -37.333 34.5 -63
s7.33398 -56.834 2.00098 -93.501c-5.33301 -39.333 -16.166 -73.166 -32.499 -101.499s-36.833 -51.666 -61.5 -69.999s-53 -32 -85 -41s-66.333 -13.5 -103 -13.5c-39.333 0 -74.333 1.16699 -105 3.5s-54.667 3.5 -72 3.5zM610.996 320.999
c-11.333 0 -22.5 -0.332031 -33.5 -0.999023s-18.167 -1.33398 -21.5 -2.00098l-31 -219c8.66699 -0.666992 17.167 -1 25.5 -1h24.5c31.333 0 57.5 9.83301 78.5 29.5s34.167 47.5 39.5 83.5c5.33301 40 0.5 68.333 -14.5 85s-37.5 25 -67.5 25z" />
    <glyph glyph-name="afii10059" unicode="&#x40a;" horiz-adv-x="844" 
d="M418 274l-179.002 -0.00195312l-38 -274h-139l92 658h139l-38 -273h179l38 273h140l-34 -240c8 1.33301 19.167 2.33301 33.5 3s29.5 1 45.5 1c31.333 0 59.5 -3.66699 84.5 -11s45.667 -19.166 62 -35.499s27.833 -37.333 34.5 -63s7.33398 -56.834 2.00098 -93.501
c-5.33301 -39.333 -16.166 -73.166 -32.499 -101.499s-36.833 -51.666 -61.5 -69.999s-53 -32 -85 -41s-66.333 -13.5 -103 -13.5c-39.333 0 -74.333 1.16699 -105 3.5s-54.667 3.5 -72 3.5zM618.998 320.998c-11.333 0 -22.5 -0.332031 -33.5 -0.999023
s-18.167 -1.33398 -21.5 -2.00098l-31 -219c8.66699 -0.666992 17.167 -1 25.5 -1h24.5c31.333 0 57.5 9.83301 78.5 29.5s34.167 47.5 39.5 83.5c5.33301 40 0.5 68.333 -14.5 85s-37.5 25 -67.5 25z" />
    <glyph glyph-name="afii10060" unicode="&#x40b;" horiz-adv-x="635" 
d="M529 658l-15.9932 -111.998h-141l-24 -170c7.33301 1.33301 15.666 4 24.999 8s19.666 8 30.999 12s23.666 7.66699 36.999 11s27.333 5 42 5c49.333 0 85.666 -14.833 108.999 -44.5s30.666 -75.834 21.999 -138.501l-32 -229h-138l29 212
c4 29.333 1.66699 50.166 -7 62.499s-24.334 18.5 -47.001 18.5c-12.667 0 -25.334 -2.33301 -38.001 -7l-48 -17l-37 -269h-140l76 546h-142l16 112h423z" />
    <glyph glyph-name="afii10061" unicode="&#x40c;" horiz-adv-x="539" 
d="M523 857l-177 -147l-50 53l80.5 84l81.5 84zM154 658h139l-40 -288l201 288h155l-228 -298l77.5 -180l78.5 -180h-165l-126 321l-45 -321h-139z" />
    <glyph glyph-name="afii10062" unicode="&#x40e;" horiz-adv-x="522" 
d="M380 799c14 0 26.501 2.16602 37.501 6.49902s20.333 9.5 28 15.5s13.667 12.167 18 18.5s7.16602 11.833 8.49902 16.5l64 -23c-2 -14 -7.16699 -28 -15.5 -42s-19.5 -26.833 -33.5 -38.5s-31 -21.167 -51 -28.5s-42.667 -11 -68 -11s-47 3.5 -65 10.5
s-32.5 16.167 -43.5 27.5s-18.833 24 -23.5 38s-6 28 -4 42l36 12.5l35 12.5c-0.666992 -5.33301 0.333008 -11.166 3 -17.499s7.16699 -12.5 13.5 -18.5s14.5 -11 24.5 -15s22 -6 36 -6zM330.001 339.999c5.33301 14 13.1699 33.1641 23.5029 57.4971l34.5 80.5l40 91
l39 89h144l-249 -493c-8 -16 -17.333 -33.333 -28 -52s-22.167 -36.167 -34.5 -52.5s-25.5 -30.166 -39.5 -41.499s-28.667 -17.666 -44 -18.999c-13.333 -1.33301 -25.833 -1.33301 -37.5 0s-23.834 2.33301 -36.501 3l14 103c13.333 -0.666992 24.166 1.83301 32.499 7.5
s14.666 12.334 18.999 20.001s7 15.5 8 23.5s1.16699 14 0.5 18l-118 483h149l19 -105.5l19 -102c6 -32.333 11.167 -62 15.5 -89s7.5 -49.167 9.5 -66.5z" />
    <glyph glyph-name="afii10145" unicode="&#x40f;" horiz-adv-x="575" 
d="M217 115h173l76 543h138l-92 -658h-165l-23 -157h-118l23 157h-167l92 658h139z" />
    <glyph glyph-name="afii10017" unicode="&#x410;" horiz-adv-x="553" 
d="M286 658h13.5c4.33301 0 8.83301 -0.333008 13.5 -1v1h141l88 -658h-147l-14 114h-184l-46 -114h-140zM348 531l-22.5 -64.5l-29.5 -80l-32.5 -88l-32.5 -88.5h142c-2 28.667 -4.33301 58.167 -7 88.5l-7.5 88l-6.5 80c-2 25 -3.33301 46.5 -4 64.5z" />
    <glyph glyph-name="afii10018" unicode="&#x411;" horiz-adv-x="520" 
d="M528 544l-251.003 0.00195312l-19 -133c8 1.33301 19.167 2.16602 33.5 2.49902s29.5 0.5 45.5 0.5c31.333 0 59.5 -3.5 84.5 -10.5s45.833 -18.167 62.5 -33.5s28.334 -35.833 35.001 -61.5s7.33398 -56.834 2.00098 -93.501c-5.33301 -39.333 -16.166 -73 -32.499 -101
s-36.833 -51 -61.5 -69s-53 -31.167 -85 -39.5s-66.333 -12.5 -103 -12.5c-39.333 0 -74.333 1.16699 -105 3.5s-54.667 3.5 -72 3.5l92 658h390zM298.997 314.002c-11.333 0 -22.5 -0.332031 -33.5 -0.999023s-18.167 -1.33398 -21.5 -2.00098l-30 -212
c8.66699 -0.666992 17.167 -1 25.5 -1h24.5c31.333 0 57.5 9.33301 78.5 28s34.167 46 39.5 82c5.33301 40 0.333008 67.667 -15 83s-38 23 -68 23z" />
    <glyph glyph-name="afii10019" unicode="&#x412;" horiz-adv-x="512" 
d="M154 658c16.667 0 40.833 1.00098 72.5 3.00098s63.834 3 96.501 3c79.333 0 135.666 -12.5 168.999 -37.5s45.333 -68.833 36 -131.5c-2.66699 -18.667 -7.33398 -36 -14.001 -52s-14.5 -30.333 -23.5 -43s-18.833 -23.834 -29.5 -33.501s-21.334 -17.5 -32.001 -23.5
c13.333 -4.66699 25.5 -10.834 36.5 -18.501s20.167 -17.5 27.5 -29.5s12.5 -26.667 15.5 -44s2.83301 -37.666 -0.5 -60.999c-9.33301 -66.667 -35.833 -116.167 -79.5 -148.5s-108.167 -48.5 -193.5 -48.5c-35.333 0 -68.666 1.16699 -99.999 3.5s-55.666 3.5 -72.999 3.5
zM274.999 289.001c-7.33301 0 -14.4961 -0.166992 -21.4961 -0.5s-13.167 -0.833008 -18.5 -1.5l-27 -191c5.33301 0 10.666 -0.166992 15.999 -0.5s10.666 -0.5 15.999 -0.5c39.333 0 69.666 7.33301 90.999 22s34.666 41.667 39.999 81
c4.66699 30.667 -1.33301 53.5 -18 68.5s-42.667 22.5 -78 22.5zM290.003 377.001c18.667 0 35.667 0.999023 51 2.99902c12.667 11.333 23.667 25.333 33 42s15.666 35.334 18.999 56.001c6.66699 52 -14.666 80 -63.999 84h-56l-26 -187c6 0.666992 12.5 1.16699 19.5 1.5
s14.833 0.5 23.5 0.5z" />
    <glyph glyph-name="afii10020" unicode="&#x413;" horiz-adv-x="395" 
d="M276 538l-75 -538h-139l92 658h321l-17 -120h-182z" />
    <glyph glyph-name="afii10021" unicode="&#x414;" horiz-adv-x="602" 
d="M613 658l-76.001 -543h60l-38 -267h-120l22 152h-324l-21 -148h-119l34 253c20 2.66699 38.333 8 55 16c14.667 20 27.834 46.5 39.501 79.5s22.667 72.167 33 117.5s20.5 96.5 30.5 153.5l33 186.5h391zM328.999 541l-25.001 -140.999c-8 -44 -16.667 -84.333 -26 -121
s-19.666 -68.834 -30.999 -96.501s-24.333 -50.167 -39 -67.5h192l60 426h-131z" />
    <glyph glyph-name="afii10022" unicode="&#x415;" horiz-adv-x="450" 
d="M62 0l92 658h356l-16 -113h-216l-21 -152h164l-15 -106h-164l-25 -174h216l-15 -113h-356z" />
    <glyph glyph-name="afii10024" unicode="&#x416;" horiz-adv-x="819" 
d="M533 370l201 288h155l-228 -298l77.5 -180l78.5 -180h-165l-126 321l-45 -321h-139l45 321l-216 -321h-165l127.5 180l128.5 180l-144 298h155l121 -288l40 288h139z" />
    <glyph glyph-name="afii10025" unicode="&#x417;" horiz-adv-x="466" 
d="M125 638c4.66699 2 12.168 4.6709 22.501 8.00391s23 6.83301 38 10.5s32.167 6.83398 51.5 9.50098s40 4 62 4c66 0 115.5 -14 148.5 -42s45.5 -69 37.5 -123c-5.33301 -39.333 -19.166 -71.666 -41.499 -96.999s-47.166 -45 -74.499 -59
c33.333 -9.33301 58.666 -26.5 75.999 -51.5s22.666 -60.167 15.999 -105.5c-5.33301 -36 -15.5 -67 -30.5 -93s-34 -47.333 -57 -64s-49.333 -28.834 -79 -36.501s-61.834 -11.5 -96.501 -11.5c-26.667 0 -50.5 2.5 -71.5 7.5s-39.167 10.5 -54.5 16.5s-28 11.833 -38 17.5
s-17 9.16699 -21 10.5l50 96c3.33301 -1.33301 9 -4 17 -8s17.667 -8 29 -12s24.166 -7.66699 38.499 -11s29.5 -5 45.5 -5c33.333 0 60.833 7.5 82.5 22.5s35.167 40.5 40.5 76.5c4.66699 30 -1.33301 51.667 -18 65s-42 20 -76 20c-15.333 0 -29.833 -0.166992 -43.5 -0.5
s-23.5 -0.5 -29.5 -0.5l14 101h34c15.333 0 29.833 1 43.5 3s26.167 4.66699 37.5 8c3.33301 2 8 5.16699 14 9.5s12.167 10.166 18.5 17.499s12 16.166 17 26.499s8.5 22.166 10.5 35.499c4 26.667 -1.66699 46 -17 58s-38 18 -68 18c-13.333 0 -26.666 -1 -39.999 -3
s-25.5 -4.33301 -36.5 -7s-20.167 -5.33398 -27.5 -8.00098s-12 -4.33398 -14 -5.00098z" />
    <glyph glyph-name="afii10026" unicode="&#x418;" horiz-adv-x="580" 
d="M517 0l-132.002 -0.000976562l46 332c2.66699 15.333 5.83398 31 9.50098 47s6.16699 27.667 7.5 35h-1l-267 -414h-118l92 658h132l-47 -335c-2 -14 -4.66699 -29.167 -8 -45.5s-5.66602 -28.166 -6.99902 -35.499l133.5 207.5l133.5 208.5h118z" />
    <glyph glyph-name="afii10027" unicode="&#x419;" horiz-adv-x="580" 
d="M517 0l-132.002 -0.000976562l46 332c2.66699 15.333 5.83398 31 9.50098 47s6.16699 27.667 7.5 35h-1l-267 -414h-118l92 658h132l-47 -335c-2 -14 -4.66699 -29.167 -8 -45.5s-5.66602 -28.166 -6.99902 -35.499l133.5 207.5l133.5 208.5h118zM404.998 798.999
c14 0 26.6689 2.16602 38.002 6.49902s20.833 9.5 28.5 15.5s13.667 12.167 18 18.5s6.83301 11.833 7.5 16.5l64 -23c-2 -14 -7 -28 -15 -42s-19 -26.833 -33 -38.5s-31 -21.167 -51 -28.5s-43 -11 -69 -11c-25.333 0 -47 3.5 -65 10.5s-32.5 16.167 -43.5 27.5
s-18.667 24 -23 38s-5.5 28 -3.5 42l35 12.5l36 12.5c-0.666992 -5.33301 0.166016 -11.166 2.49902 -17.499s6.66602 -12.5 12.999 -18.5s14.5 -11 24.5 -15s22 -6 36 -6z" />
    <glyph glyph-name="afii10028" unicode="&#x41a;" horiz-adv-x="539" 
d="M154 658h139l-40 -288l201 288h155l-228 -298l77.5 -180l78.5 -180h-165l-126 321l-45 -321h-139z" />
    <glyph glyph-name="afii10029" unicode="&#x41b;" horiz-adv-x="574" 
d="M603 658l-92.001 -658.001h-138l76 541h-120c-13.333 -70.667 -27 -136.834 -41 -198.501l-41 -173.5c-8.66699 -34 -19.5 -62.333 -32.5 -85s-28 -40.667 -45 -54s-36 -22.666 -57 -27.999s-43.833 -8 -68.5 -8c-4.66699 0 -9 0.166992 -13 0.5s-8 0.833008 -12 1.5
l16 102c20 1.33301 36.5 7.33301 49.5 18s23.5 28.667 31.5 54c17.333 61.333 34.333 131.833 51 211.5s34.334 171.834 53.001 276.501h383z" />
    <glyph glyph-name="afii10030" unicode="&#x41c;" horiz-adv-x="692" 
d="M667 0l-139.999 0.000976562c0.666992 11.333 1.66699 27.5 3 48.5l4.5 71l5.5 83.5l6 84.5l5.5 75.5c1.66699 23.333 3.16699 42 4.5 56l-19.5 -46l-28 -66l-33 -75.5l-32.5 -74l-27 -62c-8 -18.333 -14 -31.5 -18 -39.5h-95l-6.5 39l-10.5 61.5c-4 23 -8 47.5 -12 73.5
l-11.5 75l-10 66.5c-3 20.333 -5.16699 36.166 -6.5 47.499l-86 -419h-135l155 658h135c2 -9.33301 4.83301 -24.166 8.5 -44.499l12 -70l13.5 -84l13 -86l11 -76.5c3.33301 -23.333 5.66602 -41.333 6.99902 -54c4.66699 12.667 12 30.5 22 53.5l33 76l37.5 86l37.5 84.5
l32 70.5c9.33301 20.333 16.333 35.166 21 44.499h136z" />
    <glyph glyph-name="afii10031" unicode="&#x41d;" horiz-adv-x="581" 
d="M518 0h-138l38 272h-179l-38 -272h-139l92 658h139l-39 -275h179l39 275h138z" />
    <glyph glyph-name="afii10032" unicode="&#x41e;" horiz-adv-x="570" 
d="M582 329c-16.667 -116.667 -50.667 -202.834 -102 -258.501s-117.333 -83.5 -198 -83.5s-138.834 27.833 -174.501 83.5s-45.167 141.834 -28.5 258.501c16 116.667 49.667 202.667 101 258s117.333 83 198 83s138.834 -27.667 174.501 -83s45.5 -141.333 29.5 -258z
M440 329c10 73.333 9.16699 130 -2.5 170s-36.834 60 -75.501 60c-38 0 -68.333 -20 -91 -60s-39 -96.667 -49 -170c-10.667 -73.333 -10.5 -130.166 0.5 -170.499s35.833 -60.5 74.5 -60.5c39.333 0 70.333 20.167 93 60.5s39.334 97.166 50.001 170.499z" />
    <glyph glyph-name="afii10033" unicode="&#x41f;" horiz-adv-x="575" 
d="M512 0h-138l76 543h-173l-76 -543h-139l92 658h450z" />
    <glyph glyph-name="afii10034" unicode="&#x420;" horiz-adv-x="496" 
d="M154 658c8.66699 0 19.5029 0.333984 32.5029 1.00098s27.333 1.33398 43 2.00098l48.5 2c16.667 0.666992 33 1 49 1c85.333 0 143.5 -19 174.5 -57s41.167 -94 30.5 -168c-6 -41.333 -16.833 -76.333 -32.5 -105s-34.834 -51.834 -57.501 -69.501
s-48.334 -30.334 -77.001 -38.001s-59 -11.5 -91 -11.5c-8.66699 0 -16.834 0.166992 -24.501 0.5s-15.167 0.833008 -22.5 1.5l-30 -217h-135zM317.003 558.001l-20.502 0.000976562c-7 0 -14.167 -0.333008 -21.5 -1l-34 -238h37c28.667 0 53.334 8.66699 74.001 26
s34 48.666 40 93.999c6 40.667 2.33301 70.667 -11 90s-34.666 29 -63.999 29z" />
    <glyph glyph-name="afii10035" unicode="&#x421;" horiz-adv-x="477" 
d="M224 328c-5.33301 -39.333 -7.83398 -73.5 -7.50098 -102.5s4.83301 -53 13.5 -72s21.667 -33.333 39 -43s40.333 -14.5 69 -14.5c24 0 46.333 3.16699 67 9.5s36.334 11.5 47.001 15.5c0.666992 -17.333 1.16699 -34.833 1.5 -52.5s1.16602 -35.167 2.49902 -52.5
c-4.66699 -1.33301 -11.5 -3.66602 -20.5 -6.99902s-20.333 -6.83301 -34 -10.5s-29.167 -6.83398 -46.5 -9.50098s-36.333 -4 -57 -4c-89.333 0 -152.333 28.167 -189 84.5s-46.667 142.5 -30 258.5c16 116 50.333 202.167 103 258.5s123.667 84.5 213 84.5
c20.667 0 39.334 -1.33301 56.001 -4s31.167 -5.83398 43.5 -9.50098s22.5 -7.16699 30.5 -10.5s14 -5.66602 18 -6.99902l-33 -105c-9.33301 4 -23.5 9.16699 -42.5 15.5s-40.5 9.5 -64.5 9.5c-28.667 0 -53 -4.83301 -73 -14.5s-37 -24 -51 -43s-25.333 -43.167 -34 -72.5
s-15.667 -63.333 -21 -102z" />
    <glyph glyph-name="afii10036" unicode="&#x422;" horiz-adv-x="441" 
d="M501 545h-135l-76 -545h-139l76 545h-136l16 113h411z" />
    <glyph glyph-name="afii10037" unicode="&#x423;" horiz-adv-x="522" 
d="M330 340c5.33301 14 13.1699 33.1641 23.5029 57.4971l34.5 80.5l40 91l39 89h144l-249 -493c-8 -16 -17.333 -33.333 -28 -52s-22.167 -36.167 -34.5 -52.5s-25.5 -30.166 -39.5 -41.499s-28.667 -17.666 -44 -18.999c-13.333 -1.33301 -25.833 -1.33301 -37.5 0
s-23.834 2.33301 -36.501 3l14 103c13.333 -0.666992 24.166 1.83301 32.499 7.5s14.666 12.334 18.999 20.001s7 15.5 8 23.5s1.16699 14 0.5 18l-118 483h149l19 -105.5l19 -102c6 -32.333 11.167 -62 15.5 -89s7.5 -49.167 9.5 -66.5z" />
    <glyph glyph-name="afii10038" unicode="&#x424;" horiz-adv-x="698" 
d="M496 586c87.333 -1.33301 148 -24.167 182 -68.5s45.333 -106.833 34 -187.5c-11.333 -82 -40.166 -145.167 -86.499 -189.5s-113.5 -66.833 -201.5 -67.5l-10 -73h-131l10 73c-88 1.33301 -148.833 24 -182.5 68s-44.834 106.333 -33.501 187
c11.333 81.333 40 144.333 86 189s113.333 67.667 202 69l10 72h131zM574 329.999c7.33301 52.667 3.16699 91 -12.5 115s-42.5 36.667 -80.5 38l-43 -307c39.333 1.33301 70 14 92 38s36.667 62.667 44 116zM215.001 327.999
c-7.33301 -52.667 -3.33398 -90.834 11.999 -114.501s42 -36.167 80 -37.5l43 306c-38 -1.33301 -68.167 -14.166 -90.5 -38.499s-37.166 -62.833 -44.499 -115.5z" />
    <glyph glyph-name="afii10039" unicode="&#x425;" horiz-adv-x="538" 
d="M234 331l-131 327.001h160l13 -44.5l19.5 -66l20 -68c6.33301 -21.667 10.833 -37.834 13.5 -48.501c5.33301 11.333 14.333 27.833 27 49.5l39.5 67.5l39 65.5l26.5 44.5h158l-223 -328l69.5 -165l69.5 -165h-164c-3.33301 9.33301 -8.33301 24.333 -15 45l-21 66
l-20.5 68c-6.33301 22 -10.833 39.333 -13.5 52l-29.5 -51l-40.5 -68.5l-39.5 -66.5l-27.5 -45h-161z" />
    <glyph glyph-name="afii10040" unicode="&#x426;" horiz-adv-x="594" 
d="M217 115h173l76 543h138l-76 -543h60l-38 -267h-121l22 152h-389l92 658h139z" />
    <glyph glyph-name="afii10041" unicode="&#x427;" horiz-adv-x="538" 
d="M475 0l-137.998 -0.000976562l37 267c-4 -1.33301 -9.83301 -3.83301 -17.5 -7.5s-17.334 -7.5 -29.001 -11.5s-24.834 -7.5 -39.501 -10.5s-31 -4.5 -49 -4.5c-30 0 -54.833 4.33301 -74.5 13s-34.667 21.834 -45 39.501s-16.333 40.167 -18 67.5
s0.166016 60 5.49902 98l29 207h138l-31 -219c-5.33301 -36 -3.66602 -60.833 5.00098 -74.5s25 -20.5 49 -20.5c20 0 37.833 3 53.5 9l37.5 14l41 291h138z" />
    <glyph glyph-name="afii10042" unicode="&#x428;" horiz-adv-x="803" 
d="M486 115h131l76 543h139l-92 -658h-678l92 658h139l-76 -543h132l76 543h137z" />
    <glyph glyph-name="afii10043" unicode="&#x429;" horiz-adv-x="822" 
d="M756 115h60l-38 -267h-121l22 152h-617l92 658h139l-76 -543h132l76 543h137l-76 -543h131l76 543h139z" />
    <glyph glyph-name="afii10044" unicode="&#x42a;" horiz-adv-x="608" 
d="M236 542l-154.002 0.998047l15 115h294l-34 -240c8 1.33301 19.167 2.33301 33.5 3s29.5 1 45.5 1c31.333 0 59.5 -3.66699 84.5 -11s45.667 -19.166 62 -35.499s27.833 -37.333 34.5 -63s7.33398 -56.834 2.00098 -93.501
c-5.33301 -39.333 -16.166 -73.166 -32.499 -101.499s-36.833 -51.666 -61.5 -69.999s-53 -32 -85 -41s-66.333 -13.5 -103 -13.5c-39.333 0 -74.333 1.16699 -105 3.5s-54.667 3.5 -72 3.5zM397.998 320.998c-11.333 0 -22.5 -0.332031 -33.5 -0.999023
s-18.167 -1.33398 -21.5 -2.00098l-31 -219c8.66699 -0.666992 17.167 -1 25.5 -1h24.5c31.333 0 57.5 9.83301 78.5 29.5s34.167 47.5 39.5 83.5c5.33301 40 0.5 68.333 -14.5 85s-37.5 25 -67.5 25z" />
    <glyph glyph-name="afii10045" unicode="&#x42b;" horiz-adv-x="758" 
d="M154 658l138.998 -0.00195312l-34 -240c8 1.33301 19.167 2.33301 33.5 3s29.5 1 45.5 1c31.333 0 59.5 -3.66699 84.5 -11s45.667 -19.166 62 -35.499s27.833 -37.333 34.5 -63s7.33398 -56.834 2.00098 -93.501c-5.33301 -39.333 -16.166 -73.166 -32.499 -101.499
s-36.833 -51.666 -61.5 -69.999s-53 -32 -85 -41s-66.333 -13.5 -103 -13.5c-39.333 0 -74.333 1.16699 -105 3.5s-54.667 3.5 -72 3.5zM299.998 320.998c-11.333 0 -22.5 -0.332031 -33.5 -0.999023s-18.167 -1.33398 -21.5 -2.00098l-31 -219
c8.66699 -0.666992 17.167 -1 25.5 -1h24.5c31.333 0 57.5 9.83301 78.5 29.5s34.167 47.5 39.5 83.5c5.33301 40 0.5 68.333 -14.5 85s-37.5 25 -67.5 25zM695.998 -0.000976562h-139l92 658h139z" />
    <glyph glyph-name="afii10046" unicode="&#x42c;" horiz-adv-x="517" 
d="M154 658l138.998 -0.00195312l-34 -240c8 1.33301 19.167 2.33301 33.5 3s29.5 1 45.5 1c31.333 0 59.5 -3.66699 84.5 -11s45.667 -19.166 62 -35.499s27.833 -37.333 34.5 -63s7.33398 -56.834 2.00098 -93.501c-5.33301 -39.333 -16.166 -73.166 -32.499 -101.499
s-36.833 -51.666 -61.5 -69.999s-53 -32 -85 -41s-66.333 -13.5 -103 -13.5c-39.333 0 -74.333 1.16699 -105 3.5s-54.667 3.5 -72 3.5zM299.998 320.998c-11.333 0 -22.5 -0.332031 -33.5 -0.999023s-18.167 -1.33398 -21.5 -2.00098l-31 -219
c8.66699 -0.666992 17.167 -1 25.5 -1h24.5c31.333 0 57.5 9.83301 78.5 29.5s34.167 47.5 39.5 83.5c5.33301 40 0.5 68.333 -14.5 85s-37.5 25 -67.5 25z" />
    <glyph glyph-name="afii10047" unicode="&#x42d;" horiz-adv-x="472" 
d="M144 278l14.999 112h183c3.33301 57.333 -3.66699 100 -21 128s-50.666 42 -99.999 42c-24 0 -46.333 -3.16699 -67 -9.5s-36 -11.5 -46 -15.5l-2 52.5c-0.666992 17.667 -1.66699 35.167 -3 52.5c4.66699 1.33301 11.5 3.66602 20.5 6.99902s20.333 6.83301 34 10.5
s29.167 6.83398 46.5 9.50098s36.333 4 57 4c89.333 0 152.333 -28.167 189 -84.5s47 -142.5 31 -258.5c-16.667 -116 -51.334 -202.167 -104.001 -258.5s-123.667 -84.5 -213 -84.5c-20.667 0 -39.334 1.33301 -56.001 4s-31.167 5.83398 -43.5 9.50098
s-22.5 7.16699 -30.5 10.5s-14 5.66602 -18 6.99902l17.5 52.5l16.5 52.5c8.66699 -4 22.5 -9.16699 41.5 -15.5s40.5 -9.5 64.5 -9.5c50.667 0 88.834 14.833 114.501 44.5s44.834 75.5 57.501 137.5h-184z" />
    <glyph glyph-name="afii10048" unicode="&#x42e;" horiz-adv-x="832" 
d="M844 329c-16.667 -116.667 -50.498 -202.833 -101.498 -258.5s-116.833 -83.5 -197.5 -83.5c-74.667 0 -129.334 23.167 -164.001 69.5s-48.334 118.833 -41.001 217.5h-101l-38 -274h-139l92 658h139l-38 -271h102c20 96.667 53.667 168 101 214s108.333 69 183 69
c80.667 0 138.667 -27.667 174 -83s45 -141.333 29 -258zM701.002 329.001c10 71.333 9.33301 127.501 -2 168.501s-36.333 61.5 -75 61.5s-69 -20.5 -91 -61.5s-38 -97.167 -48 -168.5c-5.33301 -35.333 -8 -67.333 -8 -96s2.83301 -53 8.5 -73s14.5 -35.333 26.5 -46
s27.667 -16 47 -16c38.667 0 69.5 20.667 92.5 62s39.5 97.666 49.5 168.999z" />
    <glyph glyph-name="afii10049" unicode="&#x42f;" horiz-adv-x="522" 
d="M456 0l-132 -0.000976562l35 252c-3.33301 0 -9.5 -0.333008 -18.5 -1s-19.833 -1 -32.5 -1l-140 -250h-147l165 268c-13.333 5.33301 -26 12.833 -38 22.5s-22 22 -30 37s-13.667 32.667 -17 53s-3 43.833 1 70.5c5.33301 38.667 14.833 71.667 28.5 99
s31.667 49.333 54 66s49.166 28.834 80.499 36.501s67 11.5 107 11.5c34.667 0 68.334 -1 101.001 -3s57.667 -3 75 -3zM311 349.999c12.667 0 24.832 0.499023 36.499 1.49902s20.167 1.5 25.5 1.5l29 203c-10 0.666992 -19.5 1.16699 -28.5 1.5s-17.833 0.5 -26.5 0.5
c-32 0 -56.167 -8.66699 -72.5 -26s-27.166 -43.666 -32.499 -78.999c-5.33301 -34.667 -1.83301 -60.5 10.5 -77.5s31.833 -25.5 58.5 -25.5z" />
    <glyph glyph-name="afii10065" unicode="&#x430;" 
d="M460 0l-113.999 -0.00195312v60c-9.33301 -8.66699 -19.666 -17.167 -30.999 -25.5s-23.833 -16 -37.5 -23s-28.167 -12.667 -43.5 -17s-31.333 -6.5 -48 -6.5c-22 0 -42.167 4.83301 -60.5 14.5s-33.333 24.834 -45 45.501s-19.5 47.334 -23.5 80.001s-2.66699 72 4 118
c7.33301 51.333 19.166 94.666 35.499 129.999s35.666 63.833 57.999 85.5s46.833 37.334 73.5 47.001s54 14.5 82 14.5c34 0 70.667 -2 110 -6s76 -9.33301 110 -16zM259.001 100.998c17.333 0 33.8311 5.16699 49.498 15.5s28.167 21.166 37.5 32.499l38 268
c-9.33301 0.666992 -19.166 1.33398 -29.499 2.00098s-21.166 1 -32.499 1c-32.667 0 -58.5 -12 -77.5 -36s-32.833 -66 -41.5 -126c-4 -30 -5.83301 -55 -5.5 -75s3 -36.167 8 -48.5s12 -21 21 -26s19.833 -7.5 32.5 -7.5z" />
    <glyph glyph-name="afii10066" unicode="&#x431;" horiz-adv-x="486" 
d="M519 658c-21.333 -12 -42.168 -24.666 -62.501 -37.999s-41.5 -24.666 -63.5 -33.999c-24.667 -10 -46 -20 -64 -30s-33.833 -21.167 -47.5 -33.5s-25 -26.166 -34 -41.499s-16.833 -33.333 -23.5 -54c4 4.66699 9.5 10 16.5 16s15.5 11.667 25.5 17
s21.333 9.83301 34 13.5s26.667 5.5 42 5.5c27.333 0 51.5 -4.66699 72.5 -14s38 -23.5 51 -42.5s21.667 -43 26 -72s3.83301 -62.833 -1.5 -101.5c-6 -45.333 -16.5 -84.333 -31.5 -117s-33.5 -59.834 -55.5 -81.501s-47 -37.667 -75 -48s-58.333 -15.5 -91 -15.5
c-32 0 -60.333 4.5 -85 13.5s-44.667 24.5 -60 46.5s-25.166 52 -29.499 90s-2.5 86 5.5 144c8.66699 62.667 21.5 116.667 38.5 162s38.5 84.166 64.5 116.499s56.5 59.666 91.5 81.999s74.833 41.5 119.5 57.5c16 6 32.167 13.333 48.5 22s32.5 16.667 48.5 24l20 -43.5z
M297.998 386.001c-19.333 0 -34.666 -3.33301 -45.999 -10s-20.333 -16 -27 -28s-11.5 -26.333 -14.5 -43s-5.83301 -35 -8.5 -55c-8 -57.333 -8.16699 -98.333 -0.5 -123s25.167 -37 52.5 -37c28 0 49.333 12.667 64 38s25.667 63 33 113s7.16602 86.667 -0.500977 110
s-25.167 35 -52.5 35z" />
    <glyph glyph-name="afii10067" unicode="&#x432;" horiz-adv-x="466" 
d="M234 -7c-40.667 0 -76.498 1.16504 -107.498 3.49805s-55.833 3.5 -74.5 3.5l72 514c8 0 18.5 0.333008 31.5 1s27 1.33398 42 2.00098l47 2c16.333 0.666992 32.166 1 47.499 1c70.667 0 120.167 -10 148.5 -30s39.166 -53.667 32.499 -101
c-2 -16 -6.5 -30.5 -13.5 -43.5s-15.333 -24.333 -25 -34s-20.167 -18 -31.5 -25s-22.333 -12.833 -33 -17.5c10 -1.33301 20.667 -4 32 -8s21.833 -10.5 31.5 -19.5s17 -21.167 22 -36.5s5.83301 -34.666 2.5 -57.999c-7.33301 -50.667 -28.5 -89 -63.5 -115
s-88.5 -39 -160.5 -39zM212.002 221.998l-19.999 -137.999c8 -0.666992 16 -1.16699 24 -1.5s16 -0.5 24 -0.5c48.667 0 76.667 25.667 84 77c3.33301 21.333 -0.333984 37.166 -11.001 47.499s-27 15.5 -49 15.5h-52zM271.003 297.999c2 0 6.33203 0.5 12.999 1.5
s13.667 3.66699 21 8s14.333 11.333 21 21s11.334 23.5 14.001 41.5c2.66699 20.667 0 35.5 -8 44.5s-20.667 14.167 -38 15.5l-53 -2l-19 -130h49z" />
    <glyph glyph-name="afii10068" unicode="&#x433;" horiz-adv-x="376" 
d="M358 28c-5.33301 -2.66699 -12.999 -6.1709 -22.999 -10.5039s-21.833 -8.66602 -35.5 -12.999s-29.5 -8.16602 -47.5 -11.499s-37.667 -5 -59 -5c-31.333 0 -57.666 4 -78.999 12s-38.166 18.833 -50.499 32.5s-20.666 29.834 -24.999 48.501s-4.83301 38.667 -1.5 60
c3.33301 24 11.166 45 23.499 63s26.666 33.833 42.999 47.5s33.666 26 51.999 37l51 31.5c15.667 10 29 20.167 40 30.5s17.5 21.833 19.5 34.5c4 26.667 -15.667 40 -59 40c-10 0 -20.5 -0.833008 -31.5 -2.5s-21.167 -3.5 -30.5 -5.5s-17.833 -4.16699 -25.5 -6.5
s-13.167 -3.83301 -16.5 -4.5c1.33301 16 2.33301 32.167 3 48.5l2 49.5c10 3.33301 26.333 7.66602 49 12.999s51 8 85 8c55.333 0 96.333 -12.833 123 -38.5s36.667 -61.5 30 -107.5c-3.33301 -23.333 -10.833 -43.5 -22.5 -60.5s-25.334 -32.333 -41.001 -46
s-32.167 -26.167 -49.5 -37.5l-49 -32.5c-15.333 -10.333 -28.333 -21 -39 -32s-17 -23.5 -19 -37.5c-2.66699 -19.333 1 -32 11 -38s24.667 -9 44 -9c10.667 0 22.167 1.33301 34.5 4s24 5.83398 35 9.50098s20.833 7.33398 29.5 11.001s15 6.16699 19 7.5z" />
    <glyph glyph-name="afii10069" unicode="&#x434;" 
d="M279 520c28.667 0 51.8311 -6.99805 69.498 -20.998s34.167 -32.333 49.5 -55l10 35l10 35h114l-78 -556c-9.33301 -66.667 -31.666 -116.5 -66.999 -149.5s-86.333 -49.5 -153 -49.5c-36 0 -68.5 3.83301 -97.5 11.5s-50.833 14.167 -65.5 19.5l28 92
c13.333 -4.66699 31.333 -9.5 54 -14.5s46.334 -7.5 71.001 -7.5c12 0 23.167 1 33.5 3s19.666 6.33301 27.999 13s15.5 16.167 21.5 28.5s10.333 28.833 13 49.5l15 103h-1c-8 -8 -17.167 -16 -27.5 -24s-21.833 -15.333 -34.5 -22s-26.167 -12.167 -40.5 -16.5
s-29.5 -6.5 -45.5 -6.5c-22.667 0 -43 5 -61 15s-32.833 25.333 -44.5 46s-19.5 46.667 -23.5 78s-3 68.666 3 111.999c6.66699 46.667 17.334 87.667 32.001 123s32 64.666 52 87.999s41.5 40.833 64.5 52.5s46.5 17.5 70.5 17.5zM253.997 102.002c20 0 38.168 6 54.501 18
s29.166 23.667 38.499 35l29 204c-15.333 19.333 -28.5 32.5 -39.5 39.5s-23.833 10.5 -38.5 10.5c-31.333 0 -53.5 -13.333 -66.5 -40s-22.833 -65.667 -29.5 -117c-4 -28 -5.66699 -51.667 -5 -71s3.33398 -34.833 8.00098 -46.5s11.167 -20 19.5 -25
s18.166 -7.5 29.499 -7.5z" />
    <glyph glyph-name="afii10070" unicode="&#x435;" horiz-adv-x="457" 
d="M419 37c-4 -2.66699 -11.1689 -6.66602 -21.502 -11.999s-23.333 -10.833 -39 -16.5s-33.834 -10.5 -54.501 -14.5s-43.334 -6 -68.001 -6c-29.333 0 -56 4.83301 -80 14.5s-44 24.834 -60 45.501s-27.333 47 -34 79s-6.66699 70.667 0 116
c6.66699 48 17.834 89.667 33.501 125s34.5 64.666 56.5 87.999s46.333 40.666 73 51.999s54.334 17 83.001 17s54.167 -4.5 76.5 -13.5s40.833 -23.333 55.5 -43s24.667 -44.5 30 -74.5s5 -66 -1 -108c-2.66699 -18 -5.66699 -33.5 -9 -46.5
s-5.66602 -20.833 -6.99902 -23.5h-261c-6 -44.667 -0.666992 -76.834 16 -96.501s39.334 -29.5 68.001 -29.5c13.333 0 26.333 1.33301 39 4s24.5 5.83398 35.5 9.50098s21.167 7.5 30.5 11.5l23 10zM293.998 429.001c-8.66699 0 -17.6689 -2.33398 -27.002 -7.00098
s-18 -12.167 -26 -22.5s-15.333 -23.833 -22 -40.5s-12 -37 -16 -61h59c24.667 0 51 0.666992 79 2c3.33301 25.333 4.5 46.333 3.5 63s-3.66699 29.834 -8 39.501s-10.166 16.5 -17.499 20.5s-15.666 6 -24.999 6z" />
    <glyph glyph-name="afii10072" unicode="&#x436;" horiz-adv-x="744" 
d="M479 291l162 223h151l-197 -229l143 -285h-161l-104 245l-34 -245h-134l34 245l-172 -245h-161l223 285l-133 229h151l98 -223l32 223h134z" />
    <glyph glyph-name="afii10073" unicode="&#x437;" horiz-adv-x="383" 
d="M101 411c-1.33301 15.333 -2.49121 30.3389 -3.49121 45.0059s-2.16699 29.667 -3.5 45c7.33301 2.66699 23.333 7.33398 48 14.001s56.667 10 96 10c24 0 46.333 -2.33301 67 -7s38.167 -12.334 52.5 -23.001s25 -24.167 32 -40.5s8.83301 -36.166 5.5 -59.499
c-2.66699 -18.667 -7.33398 -34.834 -14.001 -48.501s-14.834 -25.5 -24.501 -35.5s-20.167 -18.333 -31.5 -25s-23 -12 -35 -16c10.667 -1.33301 21.5 -4.33301 32.5 -9s20.833 -11.834 29.5 -21.501s15.167 -22 19.5 -37s5.16602 -33.167 2.49902 -54.5
c-4 -27.333 -12.167 -51.166 -24.5 -71.499s-28 -37 -47 -50s-41 -22.667 -66 -29s-51.833 -9.5 -80.5 -9.5c-21.333 0 -40.333 1.5 -57 4.5s-31 6.66699 -43 11s-22 8.66602 -30 12.999s-14.333 7.5 -19 9.5l39 85c2 -0.666992 5.83301 -2.33398 11.5 -5.00098
s12.834 -5.33398 21.501 -8.00098s18.5 -5.16699 29.5 -7.5s23.167 -3.5 36.5 -3.5c25.333 0 46.5 5.66699 63.5 17s27.167 28.666 30.5 51.999s-1.33398 39.333 -14.001 48s-31.334 13 -56.001 13c-10.667 0 -21.834 -0.166992 -33.501 -0.5s-19.834 -0.5 -24.501 -0.5
l12 87c4 -0.666992 8.66699 -0.666992 14 0s11.666 1 18.999 1h25.5c10.333 0 20.666 1.66699 30.999 5s19.666 9.66602 27.999 18.999s13.833 23.666 16.5 42.999s-2.33301 33.5 -15 42.5s-30.667 13.5 -54 13.5c-20.667 0 -39.5 -2.33301 -56.5 -7
s-27.167 -7.66699 -30.5 -9z" />
    <glyph glyph-name="afii10074" unicode="&#x438;" horiz-adv-x="507" 
d="M457 0l-117.004 -0.000976562l1 69l-31 -25c-4.66699 -3.33301 -11 -8.16602 -19 -14.499s-17.667 -12.5 -29 -18.5s-24.166 -11.333 -38.499 -16s-29.833 -7 -46.5 -7c-47.333 0 -79.166 14.667 -95.499 44s-20.166 74.333 -11.499 135l49 347h135l-40 -280
c-3.33301 -24.667 -5.66602 -45.167 -6.99902 -61.5s-0.666016 -29.5 2.00098 -39.5s7.33398 -17 14.001 -21s16 -6 28 -6c9.33301 0 18.666 2.16699 27.999 6.5s18.166 9.5 26.499 15.5s15.833 12.333 22.5 19l16 16l50 351h135z" />
    <glyph glyph-name="afii10075" unicode="&#x439;" horiz-adv-x="507" 
d="M355 670c14 0 26.6689 2.16602 38.002 6.49902s20.833 9.5 28.5 15.5s13.667 12.167 18 18.5s6.83301 11.833 7.5 16.5l63 -23c-2 -14 -7 -28 -15 -42s-19 -26.833 -33 -38.5s-30.833 -21.167 -50.5 -28.5s-42.5 -11 -68.5 -11c-25.333 0 -47 3.5 -65 10.5
s-32.5 16.167 -43.5 27.5s-18.667 24 -23 38s-5.5 28 -3.5 42l35 12.5l36 12.5c-0.666992 -5.33301 0.166016 -11.166 2.49902 -17.499s6.66602 -12.5 12.999 -18.5s14.5 -11 24.5 -15s22 -6 36 -6zM457.002 -0.000976562l-117.004 -0.000976562l1 69l-31 -25
c-4.66699 -3.33301 -11 -8.16602 -19 -14.499s-17.667 -12.5 -29 -18.5s-24.166 -11.333 -38.499 -16s-29.833 -7 -46.5 -7c-47.333 0 -79.166 14.667 -95.499 44s-20.166 74.333 -11.499 135l49 347h135l-40 -280c-3.33301 -24.667 -5.66602 -45.167 -6.99902 -61.5
s-0.666016 -29.5 2.00098 -39.5s7.33398 -17 14.001 -21s16 -6 28 -6c9.33301 0 18.666 2.16699 27.999 6.5s18.166 9.5 26.499 15.5s15.833 12.333 22.5 19l16 16l50 351h135z" />
    <glyph glyph-name="afii10076" unicode="&#x43a;" horiz-adv-x="476" 
d="M122 514h134l-32 -223l162 223h151l-197 -229l143 -285h-161l-104 245l-34 -245h-134z" />
    <glyph glyph-name="afii10077" unicode="&#x43b;" horiz-adv-x="508" 
d="M456 0l-134.001 0.000976562l57 408h-98c-9.33301 -52.667 -18.5 -101.334 -27.5 -146.001s-18.5 -86.334 -28.5 -125.001c-7.33301 -26.667 -15.666 -49 -24.999 -67s-21 -32.5 -35 -43.5s-30.833 -19 -50.5 -24s-42.834 -7.5 -69.501 -7.5
c-6 0 -11.667 0.166992 -17 0.5s-10.666 0.833008 -15.999 1.5l20 93l21 5.5c6.66699 1.66699 13 4.5 19 8.5s11.5 9.83301 16.5 17.5s9.5 18.834 13.5 33.501c12.667 46 25 98.5 37 157.5s24.667 126.167 38 201.5h351z" />
    <glyph glyph-name="afii10078" unicode="&#x43c;" horiz-adv-x="594" 
d="M563 0h-123.996c0.666992 13.333 2 34 4 62s4 58 6 90s4.16699 63.333 6.5 94l5.5 74l-15.5 -39l-21 -51.5l-23.5 -57l-23 -55.5l-20 -46c-6 -13.333 -10.667 -23.333 -14 -30h-64l-21 2l-2 -2c-1.33301 6.66699 -2.83301 16.667 -4.5 30
s-3.83398 28.666 -6.50098 45.999s-5.33398 35.833 -8.00098 55.5l-7.5 57c-2.33301 18.333 -4.33301 35.5 -6 51.5s-2.83398 29 -3.50098 39l-16 -74l-20 -94l-19.5 -90c-6.33301 -28 -10.833 -48.667 -13.5 -62h-122l65.5 256.5l64.5 256.5h117l10 -59.5l15 -92
c5.33301 -33 10.166 -65 14.499 -96s7.5 -54.5 9.5 -70.5c4 10.667 9.66699 24.834 17 42.501l24.5 58l27.5 65.5l27.5 64l23.5 53.5c6.66699 15.667 12 27.167 16 34.5h119z" />
    <glyph glyph-name="afii10079" unicode="&#x43d;" horiz-adv-x="512" 
d="M124 514h134l-28 -195h140l28 195h134l-72 -514h-134l30 217h-140l-30 -217h-134z" />
    <glyph glyph-name="afii10080" unicode="&#x43e;" horiz-adv-x="497" 
d="M505 257c-7.33301 -48.667 -18.6709 -90 -34.0039 -124s-34.166 -61.833 -56.499 -83.5s-47.666 -37.334 -75.999 -47.001s-59.166 -14.5 -92.499 -14.5s-63 4.83301 -89 14.5s-47 25.334 -63 47.001s-26.833 49.5 -32.5 83.5s-4.83398 75.333 2.49902 124
c6.66699 48 17.5 89 32.5 123s33.5 61.833 55.5 83.5s47.333 37.334 76 47.001s59.667 14.5 93 14.5s62.833 -4.83301 88.5 -14.5s46.834 -25.334 63.501 -47.001s27.834 -49.5 33.501 -83.5s5.16699 -75 -1.5 -123zM364.995 257c8 60 7.33301 103.167 -2 129.5
s-28 39.5 -56 39.5s-50.333 -13.167 -67 -39.5s-29 -69.5 -37 -129.5c-8.66699 -60.667 -8.33398 -104.167 0.999023 -130.5s28 -39.5 56 -39.5s50.333 13.333 67 40s29.334 70 38.001 130z" />
    <glyph glyph-name="afii10081" unicode="&#x43f;" horiz-adv-x="508" 
d="M124 514h119l-4 -66h2l20 17.5c9.33301 8.33301 21 17 35 26s30 16.833 48 23.5s37.667 10 59 10c47.333 0 79 -14.667 95 -44s19.667 -74.333 11 -135l-48 -346h-135l43 313c5.33301 36.667 5.33301 61.667 0 75s-18.333 20 -39 20c-10 0 -20 -2.33301 -30 -7
s-19.167 -10 -27.5 -16s-15.833 -12.167 -22.5 -18.5l-15 -14.5l-49 -352h-134z" />
    <glyph glyph-name="afii10082" unicode="&#x440;" 
d="M121 514h124.998l-4 -68h2c5.33301 6.66699 12.833 14.5 22.5 23.5s20.834 17.667 33.501 26s26.834 15.333 42.501 21s32.167 8.5 49.5 8.5c22.667 0 43.167 -5.16699 61.5 -15.5s33.333 -26.166 45 -47.499s19.5 -48.5 23.5 -81.5s3 -71.833 -3 -116.5
c-6.66699 -47.333 -17.5 -88.333 -32.5 -123s-33 -63.334 -54 -86.001s-44.167 -39.5 -69.5 -50.5s-52 -16.5 -80 -16.5c-36 0 -69 6.66699 -99 20l-34 -237h-134zM320.998 411c-8.66699 0 -17.502 -2 -26.502 -6s-17.5 -9 -25.5 -15s-15.167 -12.333 -21.5 -19
s-11.166 -12.334 -14.499 -17.001l-36 -256c17.333 -8.66699 36.333 -13 57 -13c34 0 61 12.833 81 38.5s34.333 68.834 43 129.501c8.66699 59.333 7.83398 100.5 -2.49902 123.5s-28.5 34.5 -54.5 34.5z" />
    <glyph glyph-name="afii10083" unicode="&#x441;" horiz-adv-x="385" 
d="M387 34c-5.33301 -2 -12.501 -5.49707 -21.501 -10.4971s-20 -10.167 -33 -15.5s-27.833 -10 -44.5 -14s-34.667 -6 -54 -6c-67.333 0 -115.833 21.167 -145.5 63.5s-38.5 108.166 -26.5 197.499c13.333 93.333 41.666 162.666 84.999 207.999s100.333 68 171 68
c28 0 52.333 -2.66699 73 -8s35.334 -9.66602 44.001 -12.999l-30 -99c-6 2.66699 -16.667 6 -32 10s-32 6 -50 6c-33.333 0 -59.666 -13.167 -78.999 -39.5s-33.333 -68.833 -42 -127.5c-4 -29.333 -5.33301 -54.333 -4 -75s5.16602 -37.334 11.499 -50.001
s14.833 -21.834 25.5 -27.501s23.334 -8.5 38.001 -8.5c10 0 20 1.16699 30 3.5s19.167 5 27.5 8s15.833 6 22.5 9s11.667 5.16699 15 6.5z" />
    <glyph glyph-name="afii10084" unicode="&#x442;" horiz-adv-x="717" 
d="M124 514l119.002 -0.00390625l-4 -69c4.66699 4.66699 11 11.334 19 20.001s17.833 17.5 29.5 26.5s25 16.833 40 23.5s32.167 10 51.5 10c29.333 0 52.166 -5.66699 68.499 -17s26.166 -32 29.499 -62c4.66699 6 11.334 13.333 20.001 22s19 17.334 31 26.001
s25.667 16 41 22s32 9 50 9c44 0 73.833 -13.5 89.5 -40.5s18.834 -72.833 9.50098 -137.5l-48 -347h-134l47 336c3.33301 22.667 3.16602 40.334 -0.500977 53.001s-14.167 19 -31.5 19c-8.66699 0 -17.167 -2.16699 -25.5 -6.5s-16 -9.5 -23 -15.5s-13 -12.167 -18 -18.5
s-8.5 -11.5 -10.5 -15.5l-49 -352h-129l47 336c3.33301 22.667 3.16602 40.334 -0.500977 53.001s-14.167 19 -31.5 19c-8.66699 0 -17.167 -2.16699 -25.5 -6.5s-15.833 -9.5 -22.5 -15.5s-12.5 -12.167 -17.5 -18.5s-8.83301 -11.5 -11.5 -15.5l-49 -352h-133z" />
    <glyph glyph-name="afii10085" unicode="&#x443;" horiz-adv-x="506" 
d="M333 66l-2 -0.000976562c-4 -3.33301 -10.333 -9.16602 -19 -17.499s-19.5 -17 -32.5 -26s-28 -16.833 -45 -23.5s-35.833 -10 -56.5 -10c-47.333 0 -79 14.667 -95 44s-19.667 74.333 -11 135l49 346h135l-44 -313c-2.66699 -18.667 -4.16699 -34 -4.5 -46
s1 -21.667 4 -29s7.83301 -12.5 14.5 -15.5s15 -4.5 25 -4.5s20 2.33301 30 7s19.167 10 27.5 16s15.833 12.167 22.5 18.5l15 14.5l50 352h135l-78 -556c-9.33301 -66.667 -31.833 -116.5 -67.5 -149.5s-86.834 -49.5 -153.501 -49.5c-36 0 -68.5 3.83301 -97.5 11.5
s-50.833 14.167 -65.5 19.5l28 92c13.333 -4.66699 31.333 -9.5 54 -14.5s46.334 -7.5 71.001 -7.5c12 0 23 1 33 3s19 6.33301 27 13s14.833 16.167 20.5 28.5s10.167 28.833 13.5 49.5z" />
    <glyph glyph-name="afii10086" unicode="&#x444;" horiz-adv-x="709" 
d="M489 492c7.33301 7.33301 18.3311 14.667 32.998 22s32.667 11 54 11c30 0 55.167 -6.66699 75.5 -20s36.166 -31.5 47.499 -54.5s18.5 -50.333 21.5 -82s2.16699 -65.5 -2.5 -101.5c-6 -40.667 -15.5 -78.167 -28.5 -112.5s-29.5 -63.833 -49.5 -88.5
s-43.333 -43.834 -70 -57.501s-56.334 -20.5 -89.001 -20.5c-14 0 -25.667 2.5 -35 7.5s-17.666 10.5 -24.999 16.5l-34 -241h-131l35 250h-1c-7.33301 -7.33301 -18.333 -14.666 -33 -21.999s-32.334 -11 -53.001 -11c-30 0 -55.167 6.83301 -75.5 20.5
s-36.166 32.167 -47.499 55.5s-18.666 50.833 -21.999 82.5s-2.33301 65.5 3 101.5c6 40.667 15.5 78 28.5 112s29.333 63.167 49 87.5s42.834 43.333 69.501 57s56.334 20.5 89.001 20.5c14 0 25.833 -2.66699 35.5 -8s18.167 -11 25.5 -17l31 219l133 20zM249.998 85.001
c13.333 0 23.9971 1.5 31.9971 4.5s15 7.16699 21 12.5l45 322c-6 1.33301 -13.167 2.33301 -21.5 3s-16.166 1 -23.499 1c-28.667 0 -51.167 -14.5 -67.5 -43.5s-28.166 -71.167 -35.499 -126.5c-7.33301 -54 -7.16602 -96.333 0.500977 -127s24.167 -46 49.5 -46z
M528.995 427.001c-13.333 0 -23.8311 -1.5 -31.498 -4.5s-14.5 -7.16699 -20.5 -12.5l-45 -322c6 -1.33301 12.667 -2.33301 20 -3s15 -1 23 -1c29.333 0 52.166 14.833 68.499 44.5s28.5 72.5 36.5 128.5c7.33301 54 7.16602 95.833 -0.500977 125.5s-24.5 44.5 -50.5 44.5
z" />
    <glyph glyph-name="afii10087" unicode="&#x445;" horiz-adv-x="457" 
d="M514 514l-86.001 -125.999l-87 -126l110 -262h-144c-3.33301 7.33301 -7.5 19 -12.5 35l-16 52.5l-16 56c-5 18.333 -8.83301 33.166 -11.5 44.499l-23.5 -44.5l-30.5 -56l-29.5 -52.5c-9 -16 -15.833 -27.667 -20.5 -35h-142l183 266l-101 248h145
c2 -6.66699 5.16699 -18 9.5 -34l13.5 -51l13.5 -53c4.33301 -17.333 7.5 -31 9.5 -41l7.5 13c5 8.66699 10.833 19.5 17.5 32.5l22 42l22.5 42.5l17.5 34c4.66699 9.33301 7.33398 14.333 8.00098 15h141v0z" />
    <glyph glyph-name="afii10088" unicode="&#x446;" horiz-adv-x="528" 
d="M471 105l53.9961 -0.000976562l-37 -266h-116l23 161h-55l1 69l-31 -25c-4.66699 -3.33301 -11 -8.16602 -19 -14.499s-17.667 -12.5 -29 -18.5s-24.166 -11.333 -38.499 -16s-29.833 -7 -46.5 -7c-47.333 0 -79.166 14.667 -95.499 44s-20.166 74.333 -11.499 135
l49 347h135l-40 -280c-3.33301 -24.667 -5.66602 -45.167 -6.99902 -61.5s-0.666016 -29.5 2.00098 -39.5s7.33398 -17 14.001 -21s16 -6 28 -6c9.33301 0 18.666 2.16699 27.999 6.5s18.166 9.5 26.499 15.5s15.833 12.333 22.5 19l16 16l50 351h135z" />
    <glyph glyph-name="afii10089" unicode="&#x447;" horiz-adv-x="479" 
d="M365 514h133.999l-72 -514h-134l28 200c-9.33301 -5.33301 -25.166 -12.5 -47.499 -21.5s-51.166 -13.5 -86.499 -13.5c-44.667 0 -76 12.167 -94 36.5s-23 65.5 -15 123.5l27 189h135l-19 -134c-3.33301 -20.667 -5.5 -38 -6.5 -52s-0.333008 -25.333 2 -34
s6.83301 -15 13.5 -19s16.334 -6 29.001 -6c4.66699 0 10.5 0.5 17.5 1.5s14.167 2.5 21.5 4.5s14.166 4.16699 20.499 6.5s11.166 4.83301 14.499 7.5z" />
    <glyph glyph-name="afii10090" unicode="&#x448;" horiz-adv-x="716" 
d="M670 0l-123.999 0.00390625l3 69l-17.5 -20c-7.66699 -8.66699 -17.167 -17.5 -28.5 -26.5s-24.5 -16.833 -39.5 -23.5s-31.5 -10 -49.5 -10c-29.333 0 -52.166 5.66699 -68.499 17s-26.166 32 -29.499 62c-5.33301 -6 -12.333 -13.333 -21 -22s-19 -17.334 -31 -26.001
s-25.5 -16 -40.5 -22s-31.5 -9 -49.5 -9c-44 0 -73.833 13.5 -89.5 40.5s-18.834 72.833 -9.50098 137.5l49 347h134l-47 -336c-3.33301 -22.667 -3.33301 -40.334 0 -53.001s13.666 -19 30.999 -19c8.66699 0 17.167 1.66699 25.5 5s15.833 7.5 22.5 12.5s12.5 10 17.5 15
s8.5 9.16699 10.5 12.5l51 363h129l-47 -336c-3.33301 -22.667 -3.33301 -40.334 0 -53.001s13.666 -19 30.999 -19c8.66699 0 17 1.66699 25 5s15.333 7.5 22 12.5s12.5 10.167 17.5 15.5s8.83301 9.66602 11.5 12.999l51 362h133z" />
    <glyph glyph-name="afii10091" unicode="&#x449;" horiz-adv-x="736" 
d="M684 105l49.001 0.00390625l-37 -266h-118l23 161h-55l3 69l-17.5 -20c-7.66699 -8.66699 -17.167 -17.5 -28.5 -26.5s-24.5 -16.833 -39.5 -23.5s-31.5 -10 -49.5 -10c-29.333 0 -52.166 5.66699 -68.499 17s-26.166 32 -29.499 62c-5.33301 -6 -12.333 -13.333 -21 -22
s-19 -17.334 -31 -26.001s-25.5 -16 -40.5 -22s-31.5 -9 -49.5 -9c-44 0 -73.833 13.5 -89.5 40.5s-18.834 72.833 -9.50098 137.5l49 347h134l-47 -336c-3.33301 -22.667 -3.33301 -40.334 0 -53.001s13.666 -19 30.999 -19c8.66699 0 17.167 1.66699 25.5 5
s15.833 7.5 22.5 12.5s12.5 10 17.5 15s8.5 9.16699 10.5 12.5l51 363h129l-47 -336c-3.33301 -22.667 -3.33301 -40.334 0 -53.001s13.666 -19 30.999 -19c8.66699 0 17 1.66699 25 5s15.333 7.5 22 12.5s12.5 10.167 17.5 15.5s8.83301 9.66602 11.5 12.999l51 362h133z
" />
    <glyph glyph-name="afii10092" unicode="&#x44a;" horiz-adv-x="533" 
d="M299 339c5.33301 0.666992 16.667 2.83301 34 6.5s36.666 5.5 57.999 5.5c22 0 42.5 -2.83301 61.5 -8.5s35.167 -15 48.5 -28s23 -30.5 29 -52.5s6.66699 -49 2 -81c-4.66699 -33.333 -14.167 -61.833 -28.5 -85.5s-32.333 -43.167 -54 -58.5s-46 -26.5 -73 -33.5
s-55.833 -10.5 -86.5 -10.5h-37c-29.333 0 -56.166 1.16699 -80.499 3.5s-42.5 3.5 -54.5 3.5l57 408h-111l15 106h245zM339.001 255.999c-11.333 0 -22.498 -0.833008 -33.498 -2.5s-17.167 -2.83398 -18.5 -3.50098l-23 -163
c7.33301 -0.666992 14.666 -1.16699 21.999 -1.5s14.666 -0.5 21.999 -0.5c23.333 0 42.833 7.5 58.5 22.5s25.5 37.5 29.5 67.5c4.66699 30.667 1.66699 51.834 -9 63.501s-26.667 17.5 -48 17.5z" />
    <glyph glyph-name="afii10093" unicode="&#x44b;" horiz-adv-x="674" 
d="M622 0h-135l72 514h135zM233 339c5.33301 0.666992 16.667 2.83301 34 6.5s36.666 5.5 57.999 5.5c22 0 42.5 -2.83301 61.5 -8.5s35.167 -15 48.5 -28s23 -30.5 29 -52.5s6.66699 -49 2 -81c-4.66699 -33.333 -14.167 -61.833 -28.5 -85.5s-32.333 -43.167 -54 -58.5
s-46 -26.5 -73 -33.5s-55.833 -10.5 -86.5 -10.5h-37c-29.333 0 -56.166 1.16699 -80.499 3.5s-42.5 3.5 -54.5 3.5l72 514h134zM273.001 255.999c-11.333 0 -22.498 -0.833008 -33.498 -2.5s-17.167 -2.83398 -18.5 -3.50098l-23 -163
c7.33301 -0.666992 14.666 -1.16699 21.999 -1.5s14.666 -0.5 21.999 -0.5c23.333 0 42.833 7.5 58.5 22.5s25.5 37.5 29.5 67.5c4.66699 30.667 1.66699 51.834 -9 63.501s-26.667 17.5 -48 17.5z" />
    <glyph glyph-name="afii10094" unicode="&#x44c;" horiz-adv-x="462" 
d="M233 339c5.33301 0.666992 16.667 2.83301 34 6.5s36.666 5.5 57.999 5.5c22 0 42.5 -2.83301 61.5 -8.5s35.167 -15 48.5 -28s23 -30.5 29 -52.5s6.66699 -49 2 -81c-4.66699 -33.333 -14.167 -61.833 -28.5 -85.5s-32.333 -43.167 -54 -58.5s-46 -26.5 -73 -33.5
s-55.833 -10.5 -86.5 -10.5h-37c-29.333 0 -56.166 1.16699 -80.499 3.5s-42.5 3.5 -54.5 3.5l72 514h134zM273.001 255.999c-11.333 0 -22.498 -0.833008 -33.498 -2.5s-17.167 -2.83398 -18.5 -3.50098l-23 -163c7.33301 -0.666992 14.666 -1.16699 21.999 -1.5
s14.666 -0.5 21.999 -0.5c23.333 0 42.833 7.5 58.5 22.5s25.5 37.5 29.5 67.5c4.66699 30.667 1.66699 51.834 -9 63.501s-26.667 17.5 -48 17.5z" />
    <glyph glyph-name="afii10095" unicode="&#x44d;" horiz-adv-x="394" 
d="M96 500c9.33301 3.33301 26.001 8.33203 50.001 14.999s52.333 10 85 10c30 0 57.167 -5 81.5 -15s44.333 -25.667 60 -47s26.5 -48.333 32.5 -81s6 -72 0 -118c-7.33301 -50 -18.833 -92.5 -34.5 -127.5s-34.5 -63.5 -56.5 -85.5s-46.5 -38 -73.5 -48
s-55.5 -15 -85.5 -15c-22 0 -40.833 2 -56.5 6s-29.167 8.5 -40.5 13.5s-20.666 10 -27.999 15s-13.333 8.5 -18 10.5l20.5 41.5l20.5 41.5c6.66699 -2.66699 18.167 -7.66699 34.5 -15s36.5 -11 60.5 -11c26 0 49.5 9.33301 70.5 28s36.833 52.334 47.5 101.001h-151l12 85
h152c4 45.333 -1 76.833 -15 94.5s-35.667 26.5 -65 26.5c-18.667 0 -37.334 -2.16699 -56.001 -6.5s-31.334 -7.83301 -38.001 -10.5z" />
    <glyph glyph-name="afii10096" unicode="&#x44e;" horiz-adv-x="718" 
d="M727 257c-7.33301 -50 -18.8359 -92.168 -34.5029 -126.501s-34.667 -62 -57 -83s-47.5 -36.167 -75.5 -45.5s-58 -14 -90 -14c-28 0 -53.667 3.83301 -77 11.5s-43.166 20.334 -59.499 38.001s-28.333 40.834 -36 69.501s-10.167 64 -7.5 106h-75l-29 -213h-134l72 514
h134l-28 -196l77 1c9.33301 38 21.833 70.167 37.5 96.5s33.834 47.666 54.501 63.999s43.334 28 68.001 35s50.667 10.5 78 10.5c32 0 60.833 -4.66699 86.5 -14s46.667 -24.5 63 -45.5s27.5 -48.5 33.5 -82.5s5.66699 -76 -1 -126zM587.997 256.999
c7.33301 55.333 7.16602 97.666 -0.500977 126.999s-26.167 44 -55.5 44c-28.667 0 -51.167 -14.667 -67.5 -44s-28.166 -71.666 -35.499 -126.999c-8 -55.333 -8.16699 -97.833 -0.5 -127.5s25.834 -44.5 54.501 -44.5c29.333 0 52.166 14.833 68.499 44.5
s28.5 72.167 36.5 127.5z" />
    <glyph glyph-name="afii10097" unicode="&#x44f;" horiz-adv-x="460" 
d="M407 0l-134 0.00195312l27 193c-6 -0.666992 -11.833 -1 -17.5 -1h-16.5l-107 -192h-141l137 208c-25.333 9.33301 -45.5 26.666 -60.5 51.999s-19.833 58 -14.5 98c8.66699 59.333 33 101.166 73 125.499s93.667 36.5 161 36.5c36 0 68.167 -1.33301 96.5 -4
s50.833 -4 67.5 -4zM272 273.002h18.501c6.33301 0 13.166 0.333008 20.499 1l22 158c-5.33301 0 -10.833 0.166992 -16.5 0.5s-11.167 0.5 -16.5 0.5c-25.333 0 -45.5 -6.5 -60.5 -19.5s-24.5 -33.5 -28.5 -61.5s-0.833008 -48.167 9.5 -60.5s27.5 -18.5 51.5 -18.5z" />
    <glyph glyph-name="afii10071" unicode="&#x451;" horiz-adv-x="457" 
d="M419 37c-4 -2.66699 -11.1689 -6.66602 -21.502 -11.999s-23.333 -10.833 -39 -16.5s-33.834 -10.5 -54.501 -14.5s-43.334 -6 -68.001 -6c-29.333 0 -56 4.83301 -80 14.5s-44 24.834 -60 45.501s-27.333 47 -34 79s-6.66699 70.667 0 116
c6.66699 48 17.834 89.667 33.501 125s34.5 64.666 56.5 87.999s46.333 40.666 73 51.999s54.334 17 83.001 17s54.167 -4.5 76.5 -13.5s40.833 -23.333 55.5 -43s24.667 -44.5 30 -74.5s5 -66 -1 -108c-2.66699 -18 -5.66699 -33.5 -9 -46.5
s-5.66602 -20.833 -6.99902 -23.5h-261c-6 -44.667 -0.666992 -76.834 16 -96.501s39.334 -29.5 68.001 -29.5c13.333 0 26.333 1.33301 39 4s24.5 5.83398 35.5 9.50098s21.167 7.5 30.5 11.5l23 10zM293.998 429.001c-8.66699 0 -17.6689 -2.16895 -27.002 -6.50195
s-18 -11.666 -26 -21.999s-15.333 -23.833 -22 -40.5s-11.667 -37 -15 -61l137 1c3.33301 25.333 4.5 46.333 3.5 63s-3.66699 29.834 -8 39.501s-10.166 16.5 -17.499 20.5s-15.666 6 -24.999 6zM489.996 671.999c-3.33301 -22.667 -12.499 -41 -27.499 -55
s-32.167 -21 -51.5 -21s-34.333 7 -45 21s-14.334 32.333 -11.001 55s12.333 41 27 55s31.667 21 51 21s34.5 -7 45.5 -21s14.833 -32.333 11.5 -55zM297.997 671.999c-3.33301 -22.667 -12.167 -41 -26.5 -55s-31.166 -21 -50.499 -21s-34.5 7 -45.5 21
s-14.833 32.333 -11.5 55s12.5 41 27.5 55s32.167 21 51.5 21s34.166 -7 44.499 -21s13.833 -32.333 10.5 -55z" />
    <glyph glyph-name="afii10099" unicode="&#x452;" horiz-adv-x="512" 
d="M392 564h-129.001l-21 -146c4 4 10.333 9.66699 19 17s19.5 14.666 32.5 21.999s27.833 13.833 44.5 19.5s35 8.5 55 8.5c29.333 0 52.166 -5.66699 68.499 -17s27.666 -28.166 33.999 -50.499s8.83301 -49.833 7.5 -82.5s-5 -70 -11 -112
c-8 -58 -16.667 -111.5 -26 -160.5s-19 -94.5 -29 -136.5c-13.333 -58 -33.833 -99.5 -61.5 -124.5s-66.834 -37.5 -117.501 -37.5c-9.33301 0 -17.833 0.5 -25.5 1.5s-15.5 2.16699 -23.5 3.5l18 100c12 0.666992 22.333 2.33398 31 5.00098s16.5 7 23.5 13
s13 14.333 18 25s9.5 24 13.5 40c10.667 42 19.834 88 27.501 138l24.5 166c3.33301 22 4.83301 40 4.5 54s-2.16602 24.833 -5.49902 32.5s-8.16602 13 -14.499 16s-14.166 4.5 -23.499 4.5c-10.667 0 -21 -2 -31 -6s-19.5 -8.83301 -28.5 -14.5
s-16.833 -11.334 -23.5 -17.001l-16 -13.5l-43 -312h-132l79 564h-46l13 94h46l11 81h131l-11 -81h130z" />
    <glyph glyph-name="afii10100" unicode="&#x453;" horiz-adv-x="376" 
d="M422 721l-89 -74l-89 -74l-50 54l162 167zM358 28c-5.33301 -2.66699 -12.999 -6.1709 -22.999 -10.5039s-21.833 -8.66602 -35.5 -12.999s-29.5 -8.16602 -47.5 -11.499s-37.667 -5 -59 -5c-31.333 0 -57.666 4 -78.999 12s-38.166 18.833 -50.499 32.5
s-20.666 29.834 -24.999 48.501s-4.83301 38.667 -1.5 60c3.33301 24 11.166 45 23.499 63s26.666 33.833 42.999 47.5s33.666 26 51.999 37l51 31.5c15.667 10 29 20.167 40 30.5s17.5 21.833 19.5 34.5c4 26.667 -15.667 40 -59 40c-10 0 -20.5 -0.833008 -31.5 -2.5
s-21.167 -3.5 -30.5 -5.5s-17.833 -4.16699 -25.5 -6.5s-13.167 -3.83301 -16.5 -4.5c1.33301 16 2.33301 32.167 3 48.5l2 49.5c10 3.33301 26.333 7.66602 49 12.999s51 8 85 8c55.333 0 96.333 -12.833 123 -38.5s36.667 -61.5 30 -107.5
c-3.33301 -23.333 -10.833 -43.5 -22.5 -60.5s-25.334 -32.333 -41.001 -46s-32.167 -26.167 -49.5 -37.5l-49 -32.5c-15.333 -10.333 -28.333 -21 -39 -32s-17 -23.5 -19 -37.5c-2.66699 -19.333 1 -32 11 -38s24.667 -9 44 -9c10.667 0 22.167 1.33301 34.5 4
s24 5.83398 35 9.50098s20.833 7.33398 29.5 11.001s15 6.16699 19 7.5z" />
    <glyph glyph-name="afii10101" unicode="&#x454;" horiz-adv-x="394" 
d="M375 118l7.99707 -43.9961l8 -44c-5.33301 -2 -12.666 -5.33301 -21.999 -10s-20.5 -9.33398 -33.5 -14.001s-28 -8.83398 -45 -12.501s-35.5 -5.5 -55.5 -5.5c-30.667 0 -58.167 5.16699 -82.5 15.5s-44.166 26.166 -59.499 47.499s-25.833 48.166 -31.5 80.499
s-5.5 70.5 0.5 114.5c6.66699 48 17.834 89.667 33.501 125s34.5 64.333 56.5 87s47 39.5 75 50.5s57.667 16.5 89 16.5c32 0 58 -3 78 -9s34.333 -10.667 43 -14l-30 -95c-6 2.66699 -17.667 6.33398 -35 11.001s-35.333 7 -54 7c-31.333 0 -55.833 -9.33301 -73.5 -28
s-31.167 -50 -40.5 -94h146l-12 -85h-147c-3.33301 -46 2.5 -78.833 17.5 -98.5s36.167 -29.5 63.5 -29.5c11.333 0 22.5 1.16699 33.5 3.5s21 5.16602 30 8.49902s16.833 6.5 23.5 9.5s12 5.16699 16 6.5z" />
    <glyph glyph-name="afii10102" unicode="&#x455;" horiz-adv-x="376" 
d="M57 118c3.33301 -1.33301 9.00684 -3.82812 17.0068 -7.49512s17 -7.33398 27 -11.001s20.667 -6.83398 32 -9.50098s22.666 -4 33.999 -4c19.333 0 34.666 3 45.999 9s18.333 18.667 21 38c2 14 -0.833008 26.5 -8.5 37.5s-17.5 21.667 -29.5 32
s-25.333 21.166 -40 32.499s-27.834 23.833 -39.501 37.5s-20.834 29 -27.501 46s-8.33398 37.167 -5.00098 60.5c6.66699 46 26.667 81.833 60 107.5s77.666 38.5 132.999 38.5c34 0 61.5 -2.66699 82.5 -8s36.167 -9.66602 45.5 -12.999
c-3.33301 -16.667 -6.83301 -33.167 -10.5 -49.5l-10.5 -48.5l-40 11c-19.333 5.33301 -39.333 8 -60 8c-42 0 -65 -13.333 -69 -40c-2 -12.667 1.16699 -24.167 9.5 -34.5s18.833 -20.5 31.5 -30.5s26.667 -20.5 42 -31.5s29.166 -23.333 41.499 -37s22 -29.5 29 -47.5
s8.83301 -39 5.5 -63c-3.33301 -21.333 -9.5 -41.333 -18.5 -60s-21.5 -34.834 -37.5 -48.501s-35.833 -24.5 -59.5 -32.5s-51.167 -12 -82.5 -12c-21.333 0 -40.5 1.66699 -57.5 5s-31.833 7.16602 -44.5 11.499s-23.5 8.66602 -32.5 12.999s-15.833 7.83301 -20.5 10.5z
" />
    <glyph glyph-name="afii10103" unicode="&#x456;" horiz-adv-x="239" 
d="M187 0h-135l70 504l138 20zM288 671c-3.33301 -24 -13.502 -43.5 -30.502 -58.5s-36.167 -22.5 -57.5 -22.5s-38.166 7.5 -50.499 22.5s-16.833 34.5 -13.5 58.5s13.333 43.667 30 59s35.667 23 57 23s38.333 -7.66699 51 -23s17.334 -35 14.001 -59z" />
    <glyph glyph-name="afii10104" unicode="&#x457;" horiz-adv-x="239" 
d="M187 0h-135l70 504l138 20zM376 672c-3.33301 -22.667 -12.499 -41 -27.499 -55s-32.167 -21 -51.5 -21s-34.333 7 -45 21s-14.334 32.333 -11.001 55s12.333 41 27 55s31.667 21 51 21s34.5 -7 45.5 -21s14.833 -32.333 11.5 -55zM184.001 672
c-3.33301 -22.667 -12.166 -41 -26.499 -55s-31.166 -21 -50.499 -21s-34.333 7 -45 21s-14.334 32.333 -11.001 55s12.333 41 27 55s31.667 21 51 21s34.166 -7 44.499 -21s13.833 -32.333 10.5 -55z" />
    <glyph glyph-name="afii10105" unicode="&#x458;" horiz-adv-x="244" 
d="M127 504l136.999 20l-78 -559c-5.33301 -36.667 -13.166 -67.834 -23.499 -93.501s-23.5 -46.5 -39.5 -62.5s-34.5 -27.667 -55.5 -35s-44.833 -11 -71.5 -11c-9.33301 0 -18 0.666992 -26 2l-24 4l20 99c13.333 1.33301 24.833 4 34.5 8s18 10 25 18
s12.667 18.833 17 32.5s7.83301 30.834 10.5 51.501zM292.999 671c-3.33301 -24 -13.501 -43.5 -30.501 -58.5s-35.833 -22.5 -56.5 -22.5c-21.333 0 -38.333 7.5 -51 22.5s-17.334 34.5 -14.001 58.5s13.5 43.667 30.5 59s36.167 23 57.5 23
c20.667 0 37.334 -7.66699 50.001 -23s17.334 -35 14.001 -59z" />
    <glyph glyph-name="afii10106" unicode="&#x459;" horiz-adv-x="736" 
d="M500 339c5.33301 0.666992 16.668 2.83398 34.001 6.50098s36.666 5.5 57.999 5.5c22 0 42.5 -2.83301 61.5 -8.5s35.167 -15 48.5 -28s23 -30.5 29 -52.5s6.66699 -49 2 -81c-4.66699 -33.333 -14.167 -61.833 -28.5 -85.5s-32.333 -43.167 -54 -58.5
s-46 -26.5 -73 -33.5s-55.833 -10.5 -86.5 -10.5h-37c-29.333 0 -56.166 1.16699 -80.499 3.5s-42.5 3.5 -54.5 3.5l57 408h-95c-9.33301 -54.667 -18.833 -104.834 -28.5 -150.501s-19.834 -88.167 -30.501 -127.5c-13.333 -49.333 -32.5 -84.333 -57.5 -105
s-62.167 -31 -111.5 -31c-15.333 0 -29 1 -41 3l20 93c10 2 18.667 4.16699 26 6.5s13.833 5.83301 19.5 10.5s10.667 11.167 15 19.5s8.5 19.5 12.5 33.5c13.333 46.667 25.5 99 36.5 157l35.5 197h348zM540.002 256c-11.333 0 -22.498 -0.833008 -33.498 -2.5
s-17.167 -2.83398 -18.5 -3.50098l-23 -163c7.33301 -0.666992 14.666 -1.16699 21.999 -1.5s14.666 -0.5 21.999 -0.5c23.333 0 42.833 7.5 58.5 22.5s25.5 37.5 29.5 67.5c4.66699 30.667 1.66699 51.834 -9 63.501s-26.667 17.5 -48 17.5z" />
    <glyph glyph-name="afii10107" unicode="&#x45a;" horiz-adv-x="741" 
d="M505 339c5.33301 0.666992 16.667 2.83301 34 6.5s36.666 5.5 57.999 5.5c22 0 42.5 -2.83301 61.5 -8.5s35.167 -15 48.5 -28s23 -30.5 29 -52.5s6.66699 -49 2 -81c-4.66699 -33.333 -14.167 -61.833 -28.5 -85.5s-32.333 -43.167 -54 -58.5s-46 -26.5 -73 -33.5
s-55.833 -10.5 -86.5 -10.5h-37c-29.333 0 -56.166 1.16699 -80.499 3.5s-42.5 3.5 -54.5 3.5l30 219h-138l-30 -219h-134l72 514h134l-28 -194h138l28 194h134zM545.001 255.999c-11.333 0 -22.498 -0.833008 -33.498 -2.5s-17.167 -2.83398 -18.5 -3.50098l-23 -163
c7.33301 -0.666992 14.666 -1.16699 21.999 -1.5s14.666 -0.5 21.999 -0.5c23.333 0 42.833 7.5 58.5 22.5s25.5 37.5 29.5 67.5c4.66699 30.667 1.66699 51.834 -9 63.501s-26.667 17.5 -48 17.5z" />
    <glyph glyph-name="afii10108" unicode="&#x45b;" horiz-adv-x="509" 
d="M274 654l129.999 0.00195312l-19 -94h-123l-20 -142c4 4 10.333 9.66699 19 17s19.5 14.666 32.5 21.999s28 13.833 45 19.5s35.5 8.5 55.5 8.5c28.667 0 51 -5.83301 67 -17.5s27.333 -28.167 34 -49.5s9.5 -47.333 8.5 -78s-4.16699 -65 -9.5 -103l-33 -237h-131
l36 263c5.33301 38.667 4.83301 65 -1.5 79s-19.166 21 -38.499 21c-10.667 0 -21.167 -2.16699 -31.5 -6.5s-20 -9.33301 -29 -15s-16.833 -11.334 -23.5 -17.001l-15 -12.5l-43 -312h-132l78 560h-42l9 94h48l6 39.5c2 13 4.33301 26.167 7 39.5l128 6z" />
    <glyph glyph-name="afii10109" unicode="&#x45c;" horiz-adv-x="479" 
d="M125 514h134l-29 -202l34 32l125 170h152l-198 -228l143 -286h-161l-97 225l-15 -38l-26 -187h-134zM495 721l-177 -148l-50 54l162 167z" />
    <glyph glyph-name="afii10110" unicode="&#x45e;" horiz-adv-x="506" 
d="M333 66l-2 -0.000976562c-4 -3.33301 -10.333 -9.16602 -19 -17.499s-19.5 -17 -32.5 -26s-28 -16.833 -45 -23.5s-35.833 -10 -56.5 -10c-47.333 0 -79 14.667 -95 44s-19.667 74.333 -11 135l49 346h135l-44 -313c-2.66699 -18.667 -4.16699 -34 -4.5 -46
s1 -21.667 4 -29s7.83301 -12.5 14.5 -15.5s15 -4.5 25 -4.5s20 2.33301 30 7s19.167 10 27.5 16s15.833 12.167 22.5 18.5l15 14.5l50 352h135l-78 -556c-9.33301 -66.667 -31.833 -116.5 -67.5 -149.5s-86.834 -49.5 -153.501 -49.5c-36 0 -68.5 3.83301 -97.5 11.5
s-50.833 14.167 -65.5 19.5l28 92c13.333 -4.66699 31.333 -9.5 54 -14.5s46.334 -7.5 71.001 -7.5c12 0 23 1 33 3s19 6.33301 27 13s14.833 16.167 20.5 28.5s10.167 28.833 13.5 49.5zM347 669.999c14 0 26.6689 2.16602 38.002 6.49902s20.833 9.5 28.5 15.5
s13.667 12.167 18 18.5s6.83301 11.833 7.5 16.5l63 -23c-2 -14 -7 -28 -15 -42s-19 -26.833 -33 -38.5s-30.833 -21.167 -50.5 -28.5s-42.5 -11 -68.5 -11c-25.333 0 -47 3.5 -65 10.5s-32.5 16.167 -43.5 27.5s-18.667 24 -23 38s-5.5 28 -3.5 42l35 12.5l36 12.5
c-0.666992 -5.33301 0.166016 -11.166 2.49902 -17.499s6.66602 -12.5 12.999 -18.5s14.5 -11 24.5 -15s22 -6 36 -6z" />
    <glyph glyph-name="afii10193" unicode="&#x45f;" horiz-adv-x="519" 
d="M467 0h-149l-22 -153h-116l22 153h-150l72 514h134l-57 -404h147l57 404h134z" />
    <glyph glyph-name="afii10050" unicode="&#x490;" horiz-adv-x="396" 
d="M498 786l-34 -242h-187l-76 -544h-139l92 658h208l15 108z" />
    <glyph glyph-name="afii10098" unicode="&#x491;" horiz-adv-x="328" 
d="M411 647l-33 -239h-135l-57 -408h-134l72 514h155l16 113z" />
    <glyph glyph-name="endash" unicode="&#x2013;" horiz-adv-x="452" 
d="M460 241h-403l16 112h403z" />
    <glyph glyph-name="emdash" unicode="&#x2014;" horiz-adv-x="761" 
d="M753 242h-678l15 110h678z" />
    <glyph glyph-name="quoteleft" unicode="&#x2018;" horiz-adv-x="206" 
d="M224 594c0 -10.667 2.33301 -21.332 7 -31.999s6.33398 -23.334 5.00098 -38.001c-1.33301 -10.667 -8.5 -20.667 -21.5 -30s-27.5 -14 -43.5 -14c-18 0 -32.5 5.66699 -43.5 17s-14.833 27.666 -11.5 48.999c2 16 6.83301 32.833 14.5 50.5s17 35.5 28 53.5
s23.167 35.833 36.5 53.5s27 34.834 41 51.501l24.5 -14c8.33301 -4.66699 17.166 -9.33398 26.499 -14.001c-14.667 -21.333 -28.167 -44.166 -40.5 -68.499s-19.833 -45.833 -22.5 -64.5z" />
    <glyph glyph-name="quoteright" unicode="&#x2019;" horiz-adv-x="206" 
d="M153 640c0.666992 5.33301 0.166992 10.6689 -1.5 16.002l-5 16c-1.66699 5.33301 -3.16699 11.166 -4.5 17.499s-1.33301 13.166 0 20.499c1.33301 10.667 8.5 20.667 21.5 30s27.5 14 43.5 14c42.667 0 60 -26.667 52 -80c-3.33301 -15.333 -8.83301 -31.5 -16.5 -48.5
s-17 -33.833 -28 -50.5s-22.667 -33.167 -35 -49.5l-36.5 -46.5l-52 28c14.667 21.333 28 44.333 40 69s19.333 46 22 64z" />
    <glyph glyph-name="quotesinglbase" unicode="&#x201a;" horiz-adv-x="206" 
d="M65 12c0.666992 5.33301 0.166992 10.6689 -1.5 16.002l-5 16c-1.66699 5.33301 -3.16699 11.166 -4.5 17.499s-1.33301 13.166 0 20.499c1.33301 10.667 8.5 20.667 21.5 30s27.5 14 43.5 14c42.667 0 60 -26.667 52 -80c-3.33301 -15.333 -9 -31.5 -17 -48.5
s-17.333 -33.833 -28 -50.5s-22.167 -33.167 -34.5 -49.5s-24.5 -31.5 -36.5 -45.5l-53 27c15.333 21.333 29 44.333 41 69s19.333 46 22 64z" />
    <glyph glyph-name="quotedblleft" unicode="&#x201c;" horiz-adv-x="378" 
d="M225 594c-0.666992 -10.667 1.16797 -21.1689 5.50098 -31.502s6.16602 -23.166 5.49902 -38.499c-1.33301 -10.667 -8.5 -20.667 -21.5 -30s-27.5 -14 -43.5 -14c-18 0 -32.5 5.66699 -43.5 17s-14.833 27.666 -11.5 48.999c2 16 6.83301 32.833 14.5 50.5
s17 35.5 28 53.5s23.167 35.833 36.5 53.5s27 34.834 41 51.501l51 -28c-14 -21.333 -27.167 -44.166 -39.5 -68.499s-19.833 -45.833 -22.5 -64.5zM395.002 593.998c-0.666992 -10.667 1.33203 -21.332 5.99902 -31.999s6.66699 -23.334 6 -38.001
c-1.33301 -10.667 -8.66602 -20.667 -21.999 -30s-28 -14 -44 -14c-18 0 -32.5 5.66699 -43.5 17s-14.833 27.666 -11.5 48.999c2 16 6.83301 32.833 14.5 50.5s17 35.5 28 53.5s23.167 36 36.5 54s27 35 41 51l25.5 -14l25.5 -14
c-14 -21.333 -27.167 -44.166 -39.5 -68.499s-19.833 -45.833 -22.5 -64.5z" />
    <glyph glyph-name="quotedblright" unicode="&#x201d;" horiz-adv-x="378" 
d="M153 640c0.666992 5.33301 0.166992 10.6689 -1.5 16.002l-5 16c-1.66699 5.33301 -3.16699 11.166 -4.5 17.499s-1.33301 13.166 0 20.499c1.33301 10.667 8.5 20.667 21.5 30s27.5 14 43.5 14c42.667 0 60 -26.667 52 -80c-3.33301 -15.333 -8.83301 -31.5 -16.5 -48.5
s-17 -33.833 -28 -50.5s-22.667 -33.167 -35 -49.5l-36.5 -46.5l-52 28c14.667 21.333 28 44.333 40 69s19.333 46 22 64zM316 688.003c3.33301 19.333 11.001 35.168 23.001 47.501s24.667 18.5 38 18.5c43.333 0 61 -26.667 53 -80
c-3.33301 -15.333 -8.83301 -31.5 -16.5 -48.5s-17 -34 -28 -51s-22.833 -33.667 -35.5 -50s-25 -31.5 -37 -45.5c-8.66699 5.33301 -17.334 10 -26.001 14s-17 8.66699 -25 14c10.667 15.333 21.5 32.666 32.5 51.999s17.5 36.333 19.5 51
c1.33301 11.333 1.5 22.833 0.5 34.5s-0.833008 24.5 0.5 38.5z" />
    <glyph glyph-name="quotedblbase" unicode="&#x201e;" horiz-adv-x="378" 
d="M65 12c0.666992 5.33301 0.166992 10.6689 -1.5 16.002l-5 16c-1.66699 5.33301 -3.16699 11.166 -4.5 17.499s-1.33301 13.166 0 20.499c1.33301 10.667 8.5 20.667 21.5 30s27.5 14 43.5 14c42.667 0 60 -26.667 52 -80c-3.33301 -15.333 -9 -31.5 -17 -48.5
s-17.333 -33.833 -28 -50.5s-22.167 -33.167 -34.5 -49.5s-24.5 -31.5 -36.5 -45.5l-53 27c15.333 21.333 29 44.333 41 69s19.333 46 22 64zM228 60.0029c2.66699 19.333 10.168 35.168 22.501 47.501s25.166 18.5 38.499 18.5c43.333 0 61 -26.667 53 -80
c-3.33301 -15.333 -9 -31.333 -17 -48s-17.5 -33.5 -28.5 -50.5s-22.667 -33.667 -35 -50s-24.5 -31.5 -36.5 -45.5l-52 27c11.333 16 22.5 33.5 33.5 52.5s17.5 36.167 19.5 51.5c1.33301 11.333 1.33301 22.666 0 33.999s-1 24 1 38z" />
    <glyph glyph-name="dagger" unicode="&#x2020;" horiz-adv-x="470" 
d="M475 362h-128l-84 -559h-113l36 279.5l37 279.5h-129l16 109h133l26 187h115l-26 -187h133z" />
    <glyph glyph-name="daggerdbl" unicode="&#x2021;" horiz-adv-x="470" 
d="M439 99l-7.99805 -54.5l-8 -54.5h-134l-26 -187h-115l26 187h-132l15 109h132l17 118c3.33301 26.667 7.16602 53.167 11.499 79.5s8.16602 52.833 11.499 79.5h-133l16 109h133l24 173c19.333 0 38.5 0.166992 57.5 0.5s38.167 0.5 57.5 0.5l-11.5 -87l-11.5 -86
c22 0 44.167 -0.166992 66.5 -0.5s44.5 -0.5 66.5 -0.5c-2.66699 -18 -5.5 -36.167 -8.5 -54.5s-5.83301 -36.5 -8.5 -54.5c-22 0 -44.167 0.166992 -66.5 0.5s-44.5 0.5 -66.5 0.5l-19 -139l-10 -69l-10 -69c22.667 0 45 -0.166992 67 -0.5s44.333 -0.5 67 -0.5z" />
    <glyph glyph-name="bullet" unicode="&#x2022;" horiz-adv-x="388" 
d="M378 354c-3.33301 -22 -9.66602 -42 -18.999 -60s-21 -33.5 -35 -46.5s-29.667 -23.167 -47 -30.5s-35.333 -11 -54 -11s-35.667 3.66699 -51 11s-28 17.5 -38 30.5s-17.333 28.5 -22 46.5s-5.33398 38 -2.00098 60c2.66699 22 8.83398 42.167 18.501 60.5
s21.5 34.166 35.5 47.499s29.667 23.666 47 30.999s35.333 11 54 11s35.667 -3.66699 51 -11s28 -17.666 38 -30.999s17.167 -29.166 21.5 -47.499s5.16602 -38.5 2.49902 -60.5z" />
    <glyph glyph-name="ellipsis" unicode="&#x2026;" horiz-adv-x="732" 
d="M692 74c-3.33301 -25.333 -13.333 -45.666 -30 -60.999s-35.667 -23 -57 -23s-38 7.66699 -50 23s-16.333 35.666 -13 60.999s13.333 45.666 30 60.999s35.667 23 57 23s38 -7.66699 50 -23s16.333 -35.666 13 -60.999zM450 74
c-3.33301 -25.333 -13.1689 -45.666 -29.502 -60.999s-35.166 -23 -56.499 -23s-38 7.66699 -50 23s-16.333 35.666 -13 60.999s13.333 45.666 30 60.999s35.667 23 57 23s37.833 -7.66699 49.5 -23s15.834 -35.666 12.501 -60.999zM208.997 74
c-3.33301 -25.333 -13.1689 -45.666 -29.502 -60.999s-35.166 -23 -56.499 -23s-38 7.66699 -50 23s-16.333 35.666 -13 60.999s13.333 45.666 30 60.999s35.667 23 57 23s37.833 -7.66699 49.5 -23s15.834 -35.666 12.501 -60.999z" />
    <glyph glyph-name="perthousand" unicode="&#x2030;" horiz-adv-x="1285" 
d="M1281 197c-10 -72.667 -31 -126.5 -63 -161.5s-75.667 -52.5 -131 -52.5c-56 0 -94.667 17.5 -116 52.5s-27 88.833 -17 161.5c20 141.333 84.333 212 193 212c109.333 0 154 -70.667 134 -212zM905 197c-10 -72.667 -31 -126.5 -63 -161.5s-75.667 -52.5 -131 -52.5
c-56 0 -94.667 17.5 -116 52.5s-27 88.833 -17 161.5c20 141.333 84.333 212 193 212c109.333 0 154 -70.667 134 -212zM348 -5h-110l417 670h109zM422 463c-10.667 -72.667 -31.834 -126.5 -63.501 -161.5s-75.167 -52.5 -130.5 -52.5c-56 0 -94.667 17.5 -116 52.5
s-26.666 88.833 -15.999 161.5c20 141.333 84 212 192 212c109.333 0 154 -70.667 134 -212zM1176 197c5.33301 40 4.99902 70.667 -1.00098 92s-19.333 32 -40 32s-37.167 -10.667 -49.5 -32s-21.166 -52 -26.499 -92c-5.33301 -40.667 -5 -71.667 1 -93s19.333 -32 40 -32
c21.333 0 38 10.667 50 32s20.667 52.333 26 93zM799.999 197c5.33301 40 4.99902 70.667 -1.00098 92s-19.333 32 -40 32s-37.167 -10.667 -49.5 -32s-21.166 -52 -26.499 -92c-5.33301 -40.667 -5 -71.667 1 -93s19.333 -32 40 -32c21.333 0 38 10.667 50 32
s20.667 52.333 26 93zM317.998 463c5.33301 40 4.83301 70.667 -1.5 92s-19.833 32 -40.5 32s-37 -10.667 -49 -32s-20.667 -52 -26 -92c-6 -40.667 -6 -71.834 0 -93.501s19.333 -32.5 40 -32.5c21.333 0 38 10.833 50 32.5s21 52.834 27 93.501z" />
    <glyph glyph-name="guilsinglleft" unicode="&#x2039;" horiz-adv-x="295" 
d="M193 269l40.5 -68.5l40.5 -67.5l-35 -30c-11.333 -10 -23 -19.667 -35 -29l-63 97l-62 97l179 191l54 -54z" />
    <glyph glyph-name="guilsinglright" unicode="&#x203a;" horiz-adv-x="295" 
d="M164 459l125 -193l-179 -192l-55 54l119 137l-81 136z" />
    <glyph glyph-name="fraction" unicode="&#x2044;" horiz-adv-x="452" 
d="M132 11l-98 14l402 605l97 -13z" />
    <glyph glyph-name="Euro" unicode="&#x20ac;" horiz-adv-x="542" 
d="M121 295l5.00098 33.0029l5 36h-52l17 70h51c48 158 146.333 237 295 237c20.667 0 40.167 -1.33301 58.5 -4s34.833 -5.83398 49.5 -9.50098s27 -7.16699 37 -10.5l21 -7l-33 -105c-4.66699 2 -11.5 4.5 -20.5 7.5s-19.333 5.66699 -31 8s-23.834 4.5 -36.501 6.5
s-25 3 -37 3c-42 0 -75.5 -10.5 -100.5 -31.5s-44.167 -52.5 -57.5 -94.5h174l-16 -70h-174l-5 -36l-5 -33h169l-17 -70h-155c1.33301 -44 11.333 -76.5 30 -97.5s49.334 -31.5 92.001 -31.5c12 0 24.667 1 38 3s26 4.16699 38 6.5s23 5 33 8s17.667 5.5 23 7.5
c0.666992 -17.333 1.16699 -34.833 1.5 -52.5s1.16602 -35.167 2.49902 -52.5l-23.5 -7c-11 -3.33301 -24.333 -6.83301 -40 -10.5s-33.167 -6.83398 -52.5 -9.50098s-39.333 -4 -60 -4c-74.667 0 -131 19.667 -169 59s-57.333 99.666 -58 180.999h-59l8.5 35
c3 12 6.16699 23.667 9.5 35h44z" />
    <glyph glyph-name="afii61352" unicode="&#x2116;" horiz-adv-x="906" 
d="M503 0h-124l-140 409l-4 -35l-4 -35l-47 -339h-122l92 658h125l69.5 -203l69.5 -203c1.33301 14 2.83301 27.833 4.5 41.5s3.5 27.5 5.5 41.5l45 323h122zM942 444c-4.66699 -33.333 -12.334 -61.5 -23.001 -84.5s-23.834 -41.833 -39.501 -56.5
s-33.167 -25.334 -52.5 -32.001s-40.333 -10 -63 -10c-22 0 -41.833 3.33301 -59.5 10s-32.167 17.334 -43.5 32.001s-19.166 33.5 -23.499 56.5s-4.16602 51.167 0.500977 84.5c4.66699 32.667 12.334 60.667 23.001 84s23.667 42.166 39 56.499s32.833 24.833 52.5 31.5
s40.5 10 62.5 10c22.667 0 42.834 -3.33301 60.501 -10s32.167 -17.167 43.5 -31.5s19.166 -33.166 23.499 -56.499s4.16602 -51.333 -0.500977 -84zM844 444c5.33301 34.667 4.99707 61.166 -1.00293 79.499s-18.667 27.5 -38 27.5c-18.667 0 -33.167 -9 -43.5 -27
s-18.166 -44.667 -23.499 -80s-5.16602 -62.166 0.500977 -80.499s17.834 -27.5 36.501 -27.5c19.333 0 34.333 9 45 27s18.667 45 24 81zM870.997 82.999h-264l13 94h264z" />
    <glyph glyph-name="trademark" unicode="&#x2122;" horiz-adv-x="751" 
d="M785 739c-2.66699 -68 -5.16699 -135.5 -7.5 -202.5s-5.16602 -134.5 -8.49902 -202.5h-91l14 243l-1 -1l-87 -204h-62c-4 36 -8.33301 72 -13 108s-9 72 -13 108c-10.667 -52 -21.167 -100 -31.5 -144l-26.5 -110h-89c4.66699 19.333 11.167 44.5 19.5 75.5l27 102
l29.5 114.5l29 113h92l13.5 -117.5c4.33301 -39 9.16602 -78.167 14.499 -117.5l51 118l50 117h90zM420 739l-11 -81h-95l-46 -324h-92l46 324h-91l11 81h278z" />
    <glyph glyph-name=".null" horiz-adv-x="0" 
 />
    <glyph glyph-name="nonmarkingreturn" horiz-adv-x="210" 
 />
    </font>
</defs>
</svg>
